{
date = "2012-08-21 22:14:25 +0000";
familyName = "FontAwesome";
featurePrefixes = (
{
automatic = 1;
code = "languagesystem DFLT dflt;\012languagesystem latn dflt;\012";
name = Languagesystems;
}
);
fontMaster = (
{
ascender = 750;
capHeight = 700;
customParameters = (
{
name = TypoAscender;
value = 750;
},
{
name = TypoDescender;
value = "-250";
},
{
name = postscriptUnderlinePosition;
value = "-75";
}
);
descender = "-250";
id = "ABA48147-5BAC-4B76-8A51-0B949BA99F04";
weightValue = 400;
widthValue = 5;
xHeight = 500;
}
);
glyphs = (
{
glyphname = Eth;
lastChange = "2012-08-21 22:33:42 +0000";
layers = (
{
layerId = "ABA48147-5BAC-4B76-8A51-0B949BA99F04";
name = Regular;
paths = (
{
closed = 1;
nodes = (
"688 750 LINE",
"688 225 LINE SMOOTH",
"688 194 OFFCURVE",
"672 166 OFFCURVE",
"647 146 CURVE SMOOTH",
"622 125 OFFCURVE",
"586 112 OFFCURVE",
"547 112 CURVE SMOOTH",
"508 112 OFFCURVE",
"473 125 OFFCURVE",
"448 146 CURVE SMOOTH",
"423 166 OFFCURVE",
"407 194 OFFCURVE",
"407 225 CURVE SMOOTH",
"407 256 OFFCURVE",
"423 284 OFFCURVE",
"448 304 CURVE SMOOTH",
"473 324 OFFCURVE",
"508 337 OFFCURVE",
"547 337 CURVE SMOOTH",
"563 337 OFFCURVE",
"579 335 OFFCURVE",
"594 331 CURVE",
"594 579 LINE",
"282 489 LINE",
"282 112 LINE SMOOTH",
"282 81 OFFCURVE",
"266 53 OFFCURVE",
"241 33 CURVE SMOOTH",
"216 13 OFFCURVE",
"180 0 OFFCURVE",
"141 0 CURVE SMOOTH",
"102 0 OFFCURVE",
"66 13 OFFCURVE",
"41 33 CURVE SMOOTH",
"16 53 OFFCURVE",
"0 81 OFFCURVE",
"0 112 CURVE SMOOTH",
"0 144 OFFCURVE",
"16 172 OFFCURVE",
"41 192 CURVE SMOOTH",
"66 212 OFFCURVE",
"102 225 OFFCURVE",
"141 225 CURVE SMOOTH",
"158 225 OFFCURVE",
"173 222 OFFCURVE",
"188 218 CURVE",
"188 606 LINE"
);
}
);
width = 688;
}
);
unicode = 00D0;
},
{
glyphname = J;
lastChange = "2012-08-21 22:33:42 +0000";
layers = (
{
anchors = (
{
name = top;
position = "{394, 700}";
}
);
layerId = "ABA48147-5BAC-4B76-8A51-0B949BA99F04";
name = Regular;
paths = (
{
closed = 1;
nodes = (
"402 750 OFFCURVE",
"410 744 OFFCURVE",
"417 731 CURVE",
"523 515 LINE",
"760 481 LINE SMOOTH",
"789 477 OFFCURVE",
"795 457 OFFCURVE",
"775 437 CURVE SMOOTH",
"603 269 LINE",
"643 33 LINE SMOOTH",
"647 12 OFFCURVE",
"640 0 OFFCURVE",
"625 0 CURVE SMOOTH",
"620 0 OFFCURVE",
"614 2 OFFCURVE",
"606 5 CURVE",
"393 117 LINE",
"181 5 LINE",
"173 2 OFFCURVE",
"167 0 OFFCURVE",
"162 0 CURVE SMOOTH",
"147 0 OFFCURVE",
"140 12 OFFCURVE",
"143 33 CURVE SMOOTH",
"184 269 LINE",
"12 437 LINE SMOOTH",
"-9 457 OFFCURVE",
"-2 477 OFFCURVE",
"26 481 CURVE SMOOTH",
"264 515 LINE",
"370 731 LINE",
"377 744 OFFCURVE",
"384 750 OFFCURVE",
"393 750 CURVE SMOOTH"
);
},
{
closed = 1;
nodes = (
"323 486 LINE",
"307 456 LINE",
"273 451 LINE",
"115 428 LINE",
"230 316 LINE",
"254 292 LINE",
"249 258 LINE",
"222 101 LINE",
"363 175 LINE",
"393 191 LINE",
"424 175 LINE",
"565 101 LINE",
"538 258 LINE",
"532 292 LINE",
"557 316 LINE",
"671 428 LINE",
"513 451 LINE",
"479 456 LINE",
"464 486 LINE",
"393 630 LINE"
);
}
);
width = 787;
}
);
unicode = 004A;
},
{
glyphname = K;
lastChange = "2012-08-21 22:33:42 +0000";
layers = (
{
anchors = (
{
name = bottom;
position = "{375, 0}";
},
{
name = top;
position = "{375, 700}";
}
);
layerId = "ABA48147-5BAC-4B76-8A51-0B949BA99F04";
name = Regular;
paths = (
{
closed = 1;
nodes = (
"233 484 OFFCURVE",
"269 520 OFFCURVE",
"269 565 CURVE SMOOTH",
"269 609 OFFCURVE",
"233 644 OFFCURVE",
"188 644 CURVE SMOOTH",
"144 644 OFFCURVE",
"108 610 OFFCURVE",
"108 565 CURVE SMOOTH",
"108 520 OFFCURVE",
"144 484 OFFCURVE",
"188 484 CURVE SMOOTH"
);
},
{
closed = 1;
nodes = (
"750 152 LINE",
"750 1 LINE",
"599 1 LINE",
"598 1 LINE",
"598 117 LINE",
"483 117 LINE",
"483 118 LINE",
"483 233 LINE",
"368 233 LINE",
"313 287 LINE",
"291 279 OFFCURVE",
"266 275 OFFCURVE",
"238 275 CURVE SMOOTH",
"173 275 OFFCURVE",
"113 302 OFFCURVE",
"70 345 CURVE SMOOTH",
"27 388 OFFCURVE",
"0 448 OFFCURVE",
"0 513 CURVE SMOOTH",
"0 578 OFFCURVE",
"27 638 OFFCURVE",
"70 681 CURVE SMOOTH",
"113 724 OFFCURVE",
"173 751 OFFCURVE",
"238 751 CURVE SMOOTH",
"303 751 OFFCURVE",
"363 724 OFFCURVE",
"406 681 CURVE SMOOTH",
"449 638 OFFCURVE",
"476 578 OFFCURVE",
"476 513 CURVE SMOOTH",
"476 486 OFFCURVE",
"473 461 OFFCURVE",
"464 438 CURVE"
);
}
);
width = 750;
}
);
unicode = 004B;
},
{
glyphname = Lslash;
lastChange = "2012-08-21 22:33:42 +0000";
layers = (
{
layerId = "ABA48147-5BAC-4B76-8A51-0B949BA99F04";
name = Regular;
paths = (
{
closed = 1;
nodes = (
"825 75 LINE",
"825 491 LINE",
"815 481 OFFCURVE",
"806 473 OFFCURVE",
"797 467 CURVE",
"778 453 OFFCURVE",
"757 438 OFFCURVE",
"736 421 CURVE SMOOTH",
"715 404 OFFCURVE",
"693 388 OFFCURVE",
"672 372 CURVE",
"659 363 OFFCURVE",
"647 353 OFFCURVE",
"636 344 CURVE",
"624 335 OFFCURVE",
"613 326 OFFCURVE",
"603 319 CURVE",
"601 318 OFFCURVE",
"599 316 OFFCURVE",
"597 315 CURVE",
"595 313 OFFCURVE",
"593 311 OFFCURVE",
"590 309 CURVE",
"571 294 OFFCURVE",
"551 279 OFFCURVE",
"527 265 CURVE SMOOTH",
"503 251 OFFCURVE",
"477 241 OFFCURVE",
"449 241 CURVE SMOOTH",
"422 241 OFFCURVE",
"396 251 OFFCURVE",
"373 265 CURVE SMOOTH",
"349 279 OFFCURVE",
"327 294 OFFCURVE",
"310 309 CURVE",
"307 311 OFFCURVE",
"305 313 OFFCURVE",
"303 315 CURVE",
"301 316 OFFCURVE",
"299 318 OFFCURVE",
"297 319 CURVE",
"287 326 OFFCURVE",
"276 335 OFFCURVE",
"265 344 CURVE",
"253 353 OFFCURVE",
"241 363 OFFCURVE",
"228 372 CURVE",
"207 388 OFFCURVE",
"185 404 OFFCURVE",
"164 421 CURVE SMOOTH",
"143 438 OFFCURVE",
"122 453 OFFCURVE",
"103 467 CURVE",
"94 473 OFFCURVE",
"85 481 OFFCURVE",
"75 491 CURVE",
"75 75 LINE"
);
},
{
closed = 1;
nodes = (
"75 675 LINE",
"75 643 LINE SMOOTH",
"75 624 OFFCURVE",
"84 602 OFFCURVE",
"98 581 CURVE SMOOTH",
"112 560 OFFCURVE",
"128 540 OFFCURVE",
"147 527 CURVE",
"178 504 OFFCURVE",
"213 478 OFFCURVE",
"248 452 CURVE SMOOTH",
"265 439 OFFCURVE",
"282 426 OFFCURVE",
"298 413 CURVE SMOOTH",
"314 400 OFFCURVE",
"329 389 OFFCURVE",
"342 379 CURVE",
"348 374 OFFCURVE",
"356 369 OFFCURVE",
"365 362 CURVE SMOOTH",
"383 348 OFFCURVE",
"402 334 OFFCURVE",
"422 324 CURVE",
"431 319 OFFCURVE",
"440 316 OFFCURVE",
"449 316 CURVE SMOOTH",
"450 316 LINE",
"451 316 LINE SMOOTH",
"468 316 OFFCURVE",
"488 328 OFFCURVE",
"508 341 CURVE",
"517 348 OFFCURVE",
"527 355 OFFCURVE",
"536 362 CURVE SMOOTH",
"545 369 OFFCURVE",
"552 374 OFFCURVE",
"558 379 CURVE",
"571 389 OFFCURVE",
"586 400 OFFCURVE",
"602 413 CURVE SMOOTH",
"634 438 OFFCURVE",
"669 465 OFFCURVE",
"704 491 CURVE SMOOTH",
"721 504 OFFCURVE",
"738 516 OFFCURVE",
"753 527 CURVE SMOOTH",
"770 540 OFFCURVE",
"789 560 OFFCURVE",
"803 581 CURVE SMOOTH",
"817 602 OFFCURVE",
"825 624 OFFCURVE",
"825 643 CURVE SMOOTH",
"825 675 LINE"
);
},
{
closed = 1;
nodes = (
"875 750 OFFCURVE",
"900 725 OFFCURVE",
"900 694 CURVE SMOOTH",
"900 675 LINE",
"900 645 LINE",
"900 56 LINE SMOOTH",
"900 25 OFFCURVE",
"875 0 OFFCURVE",
"844 0 CURVE SMOOTH",
"56 0 LINE SMOOTH",
"25 0 OFFCURVE",
"0 25 OFFCURVE",
"0 56 CURVE SMOOTH",
"0 643 LINE",
"0 675 LINE",
"0 694 LINE SMOOTH",
"0 725 OFFCURVE",
"25 750 OFFCURVE",
"56 750 CURVE SMOOTH",
"75 750 LINE",
"825 750 LINE",
"844 750 LINE SMOOTH"
);
}
);
width = 900;
}
);
unicode = 0141;
},
{
glyphname = M;
lastChange = "2012-08-21 22:33:42 +0000";
layers = (
{
layerId = "ABA48147-5BAC-4B76-8A51-0B949BA99F04";
name = Regular;
paths = (
{
closed = 1;
nodes = (
"825 75 LINE",
"825 491 LINE",
"815 481 OFFCURVE",
"806 473 OFFCURVE",
"797 467 CURVE",
"778 453 OFFCURVE",
"757 438 OFFCURVE",
"736 421 CURVE SMOOTH",
"715 404 OFFCURVE",
"693 388 OFFCURVE",
"672 372 CURVE",
"659 363 OFFCURVE",
"647 353 OFFCURVE",
"636 344 CURVE",
"624 335 OFFCURVE",
"613 326 OFFCURVE",
"603 319 CURVE",
"601 318 OFFCURVE",
"599 316 OFFCURVE",
"597 315 CURVE",
"595 313 OFFCURVE",
"593 311 OFFCURVE",
"590 309 CURVE",
"571 294 OFFCURVE",
"551 279 OFFCURVE",
"527 265 CURVE SMOOTH",
"503 251 OFFCURVE",
"477 241 OFFCURVE",
"449 241 CURVE SMOOTH",
"422 241 OFFCURVE",
"396 251 OFFCURVE",
"373 265 CURVE SMOOTH",
"349 279 OFFCURVE",
"327 294 OFFCURVE",
"310 309 CURVE",
"307 311 OFFCURVE",
"305 313 OFFCURVE",
"303 315 CURVE",
"301 316 OFFCURVE",
"299 318 OFFCURVE",
"297 319 CURVE",
"287 326 OFFCURVE",
"276 335 OFFCURVE",
"265 344 CURVE",
"253 353 OFFCURVE",
"241 363 OFFCURVE",
"228 372 CURVE",
"207 388 OFFCURVE",
"185 404 OFFCURVE",
"164 421 CURVE SMOOTH",
"143 438 OFFCURVE",
"122 453 OFFCURVE",
"103 467 CURVE",
"94 473 OFFCURVE",
"85 481 OFFCURVE",
"75 491 CURVE",
"75 75 LINE"
);
},
{
closed = 1;
nodes = (
"75 675 LINE",
"75 643 LINE SMOOTH",
"75 624 OFFCURVE",
"84 602 OFFCURVE",
"98 581 CURVE SMOOTH",
"112 560 OFFCURVE",
"128 540 OFFCURVE",
"147 527 CURVE",
"178 504 OFFCURVE",
"213 478 OFFCURVE",
"248 452 CURVE SMOOTH",
"265 439 OFFCURVE",
"282 426 OFFCURVE",
"298 413 CURVE SMOOTH",
"314 400 OFFCURVE",
"329 389 OFFCURVE",
"342 379 CURVE",
"348 374 OFFCURVE",
"356 369 OFFCURVE",
"365 362 CURVE SMOOTH",
"383 348 OFFCURVE",
"402 334 OFFCURVE",
"422 324 CURVE",
"431 319 OFFCURVE",
"440 316 OFFCURVE",
"449 316 CURVE SMOOTH",
"450 316 LINE",
"451 316 LINE SMOOTH",
"468 316 OFFCURVE",
"488 328 OFFCURVE",
"508 341 CURVE",
"517 348 OFFCURVE",
"527 355 OFFCURVE",
"536 362 CURVE SMOOTH",
"545 369 OFFCURVE",
"552 374 OFFCURVE",
"558 379 CURVE",
"571 389 OFFCURVE",
"586 400 OFFCURVE",
"602 413 CURVE SMOOTH",
"634 438 OFFCURVE",
"669 465 OFFCURVE",
"704 491 CURVE SMOOTH",
"721 504 OFFCURVE",
"738 516 OFFCURVE",
"753 527 CURVE SMOOTH",
"770 540 OFFCURVE",
"789 560 OFFCURVE",
"803 581 CURVE SMOOTH",
"817 602 OFFCURVE",
"825 624 OFFCURVE",
"825 643 CURVE SMOOTH",
"825 675 LINE"
);
},
{
closed = 1;
nodes = (
"875 750 OFFCURVE",
"900 725 OFFCURVE",
"900 694 CURVE SMOOTH",
"900 675 LINE",
"900 645 LINE",
"900 56 LINE SMOOTH",
"900 25 OFFCURVE",
"875 0 OFFCURVE",
"844 0 CURVE SMOOTH",
"56 0 LINE SMOOTH",
"25 0 OFFCURVE",
"0 25 OFFCURVE",
"0 56 CURVE SMOOTH",
"0 643 LINE",
"0 675 LINE",
"0 694 LINE SMOOTH",
"0 725 OFFCURVE",
"25 750 OFFCURVE",
"56 750 CURVE SMOOTH",
"75 750 LINE",
"825 750 LINE",
"844 750 LINE SMOOTH"
);
}
);
width = 900;
}
);
unicode = 004D;
},
{
glyphname = P;
lastChange = "2012-08-21 22:33:42 +0000";
layers = (
{
layerId = "ABA48147-5BAC-4B76-8A51-0B949BA99F04";
name = Regular;
paths = (
{
closed = 1;
nodes = (
"753 128 LINE",
"144 128 LINE",
"144 178 LINE",
"282 351 LINE",
"374 277 LINE",
"550 534 LINE",
"753 331 LINE"
);
},
{
closed = 1;
nodes = (
"177 423 OFFCURVE",
"144 457 OFFCURVE",
"144 498 CURVE SMOOTH",
"144 541 OFFCURVE",
"177 574 OFFCURVE",
"220 574 CURVE SMOOTH",
"263 574 OFFCURVE",
"295 541 OFFCURVE",
"295 498 CURVE SMOOTH",
"295 457 OFFCURVE",
"263 423 OFFCURVE",
"220 423 CURVE SMOOTH"
);
},
{
closed = 1;
nodes = (
"828 648 LINE",
"72 648 LINE",
"72 72 LINE",
"828 72 LINE"
);
},
{
closed = 1;
nodes = (
"880 720 OFFCURVE",
"900 700 OFFCURVE",
"900 675 CURVE SMOOTH",
"900 45 LINE SMOOTH",
"900 20 OFFCURVE",
"880 0 OFFCURVE",
"855 0 CURVE SMOOTH",
"45 0 LINE SMOOTH",
"20 0 OFFCURVE",
"0 20 OFFCURVE",
"0 45 CURVE SMOOTH",
"0 675 LINE SMOOTH",
"0 700 OFFCURVE",
"20 720 OFFCURVE",
"45 720 CURVE SMOOTH",
"855 720 LINE SMOOTH"
);
}
);
width = 900;
}
);
unicode = 0050;
},
{
glyphname = Thorn;
lastChange = "2012-08-21 22:33:42 +0000";
layers = (
{
layerId = "ABA48147-5BAC-4B76-8A51-0B949BA99F04";
name = Regular;
paths = (
{
closed = 1;
nodes = (
"863 750 LINE SMOOTH",
"883 750 OFFCURVE",
"900 733 OFFCURVE",
"900 713 CURVE SMOOTH",
"900 580 LINE SMOOTH",
"900 559 OFFCURVE",
"883 542 OFFCURVE",
"863 542 CURVE SMOOTH",
"333 542 LINE SMOOTH",
"312 542 OFFCURVE",
"295 559 OFFCURVE",
"295 580 CURVE SMOOTH",
"295 713 LINE SMOOTH",
"295 733 OFFCURVE",
"312 750 OFFCURVE",
"333 750 CURVE SMOOTH"
);
},
{
closed = 1;
nodes = (
"295 430 LINE SMOOTH",
"295 451 OFFCURVE",
"312 467 OFFCURVE",
"333 467 CURVE SMOOTH",
"863 467 LINE SMOOTH",
"883 467 OFFCURVE",
"900 451 OFFCURVE",
"900 430 CURVE SMOOTH",
"900 320 LINE SMOOTH",
"900 299 OFFCURVE",
"883 282 OFFCURVE",
"863 282 CURVE SMOOTH",
"333 282 LINE SMOOTH",
"312 282 OFFCURVE",
"295 299 OFFCURVE",
"295 320 CURVE SMOOTH"
);
},
{
closed = 1;
nodes = (
"295 170 LINE SMOOTH",
"295 191 OFFCURVE",
"312 207 OFFCURVE",
"333 207 CURVE SMOOTH",
"863 207 LINE SMOOTH",
"883 207 OFFCURVE",
"900 191 OFFCURVE",
"900 170 CURVE SMOOTH",
"900 38 LINE SMOOTH",
"900 17 OFFCURVE",
"883 0 OFFCURVE",
"863 0 CURVE SMOOTH",
"333 0 LINE SMOOTH",
"312 0 OFFCURVE",
"295 17 OFFCURVE",
"295 38 CURVE SMOOTH"
);
},
{
closed = 1;
nodes = (
"183 207 LINE SMOOTH",
"203 207 OFFCURVE",
"220 191 OFFCURVE",
"220 170 CURVE SMOOTH",
"220 38 LINE SMOOTH",
"220 17 OFFCURVE",
"203 0 OFFCURVE",
"183 0 CURVE SMOOTH",
"38 0 LINE SMOOTH",
"17 0 OFFCURVE",
"0 17 OFFCURVE",
"0 38 CURVE SMOOTH",
"0 170 LINE SMOOTH",
"0 191 OFFCURVE",
"17 207 OFFCURVE",
"38 207 CURVE SMOOTH"
);
},
{
closed = 1;
nodes = (
"220 580 LINE SMOOTH",
"220 559 OFFCURVE",
"203 542 OFFCURVE",
"183 542 CURVE SMOOTH",
"38 542 LINE SMOOTH",
"17 542 OFFCURVE",
"0 559 OFFCURVE",
"0 580 CURVE SMOOTH",
"0 713 LINE SMOOTH",
"0 733 OFFCURVE",
"17 750 OFFCURVE",
"38 750 CURVE SMOOTH",
"183 750 LINE SMOOTH",
"203 750 OFFCURVE",
"220 733 OFFCURVE",
"220 713 CURVE SMOOTH"
);
},
{
closed = 1;
nodes = (
"220 320 LINE SMOOTH",
"220 299 OFFCURVE",
"203 282 OFFCURVE",
"183 282 CURVE SMOOTH",
"38 282 LINE SMOOTH",
"17 282 OFFCURVE",
"0 299 OFFCURVE",
"0 320 CURVE SMOOTH",
"0 430 LINE SMOOTH",
"0 451 OFFCURVE",
"17 467 OFFCURVE",
"38 467 CURVE SMOOTH",
"183 467 LINE SMOOTH",
"203 467 OFFCURVE",
"220 451 OFFCURVE",
"220 430 CURVE SMOOTH"
);
}
);
width = 900;
}
);
unicode = 00DE;
},
{
glyphname = S;
lastChange = "2012-08-21 22:33:42 +0000";
layers = (
{
anchors = (
{
name = bottom;
position = "{394, 0}";
},
{
name = top;
position = "{394, 700}";
}
);
layerId = "ABA48147-5BAC-4B76-8A51-0B949BA99F04";
name = Regular;
paths = (
{
closed = 1;
nodes = (
"12 437 LINE SMOOTH",
"-9 457 OFFCURVE",
"-2 477 OFFCURVE",
"26 481 CURVE SMOOTH",
"264 516 LINE",
"370 731 LINE",
"377 744 OFFCURVE",
"385 751 OFFCURVE",
"394 751 CURVE SMOOTH",
"403 751 OFFCURVE",
"410 744 OFFCURVE",
"416 731 CURVE SMOOTH",
"523 516 LINE",
"760 481 LINE SMOOTH",
"789 477 OFFCURVE",
"795 457 OFFCURVE",
"775 437 CURVE SMOOTH",
"603 269 LINE",
"643 33 LINE SMOOTH",
"648 4 OFFCURVE",
"631 -9 OFFCURVE",
"606 6 CURVE",
"393 117 LINE",
"181 6 LINE SMOOTH",
"154 -9 OFFCURVE",
"138 4 OFFCURVE",
"143 33 CURVE SMOOTH",
"184 269 LINE"
);
}
);
width = 787;
}
);
unicode = 0053;
},
{
glyphname = Scaron;
lastChange = "2012-08-21 22:33:42 +0000";
layers = (
{
layerId = "ABA48147-5BAC-4B76-8A51-0B949BA99F04";
name = Regular;
paths = (
{
closed = 1;
nodes = (
"12 437 LINE SMOOTH",
"-9 457 OFFCURVE",
"-2 477 OFFCURVE",
"26 481 CURVE SMOOTH",
"264 516 LINE",
"370 731 LINE",
"377 744 OFFCURVE",
"385 751 OFFCURVE",
"394 751 CURVE SMOOTH",
"403 751 OFFCURVE",
"410 744 OFFCURVE",
"416 731 CURVE SMOOTH",
"523 516 LINE",
"760 481 LINE SMOOTH",
"789 477 OFFCURVE",
"795 457 OFFCURVE",
"775 437 CURVE SMOOTH",
"603 269 LINE",
"643 33 LINE SMOOTH",
"648 4 OFFCURVE",
"631 -9 OFFCURVE",
"606 6 CURVE",
"393 117 LINE",
"181 6 LINE SMOOTH",
"154 -9 OFFCURVE",
"138 4 OFFCURVE",
"143 33 CURVE SMOOTH",
"184 269 LINE"
);
}
);
width = 787;
}
);
unicode = 0160;
},
{
glyphname = U;
lastChange = "2012-08-21 22:33:42 +0000";
layers = (
{
anchors = (
{
name = ogonek;
position = "{773, 10}";
},
{
name = top;
position = "{430, 700}";
}
);
layerId = "ABA48147-5BAC-4B76-8A51-0B949BA99F04";
name = Regular;
paths = (
{
closed = 1;
nodes = (
"771 179 OFFCURVE",
"788 168 OFFCURVE",
"804 157 CURVE",
"831 140 OFFCURVE",
"859 116 OFFCURVE",
"859 89 CURVE SMOOTH",
"859 0 LINE",
"0 0 LINE",
"0 89 LINE SMOOTH",
"0 116 OFFCURVE",
"26 140 OFFCURVE",
"53 157 CURVE SMOOTH",
"70 168 OFFCURVE",
"87 179 OFFCURVE",
"107 188 CURVE SMOOTH",
"120 194 OFFCURVE",
"134 202 OFFCURVE",
"150 211 CURVE SMOOTH",
"182 230 OFFCURVE",
"222 252 OFFCURVE",
"270 270 CURVE SMOOTH",
"293 279 OFFCURVE",
"319 286 OFFCURVE",
"348 291 CURVE",
"319 322 OFFCURVE",
"298 371 OFFCURVE",
"275 428 CURVE SMOOTH",
"260 463 OFFCURVE",
"263 490 OFFCURVE",
"263 531 CURVE SMOOTH",
"263 539 OFFCURVE",
"263 548 OFFCURVE",
"263 557 CURVE",
"262 576 OFFCURVE",
"261 595 OFFCURVE",
"262 612 CURVE",
"262 621 OFFCURVE",
"263 628 OFFCURVE",
"265 635 CURVE SMOOTH",
"278 680 OFFCURVE",
"300 709 OFFCURVE",
"328 726 CURVE SMOOTH",
"356 743 OFFCURVE",
"391 750 OFFCURVE",
"428 750 CURVE SMOOTH",
"465 750 OFFCURVE",
"500 743 OFFCURVE",
"528 726 CURVE SMOOTH",
"556 709 OFFCURVE",
"579 680 OFFCURVE",
"592 635 CURVE",
"595 622 OFFCURVE",
"596 606 OFFCURVE",
"595 585 CURVE SMOOTH",
"594 564 OFFCURVE",
"593 546 OFFCURVE",
"593 531 CURVE SMOOTH",
"593 510 OFFCURVE",
"593 492 OFFCURVE",
"593 477 CURVE SMOOTH",
"593 446 OFFCURVE",
"571 397 OFFCURVE",
"548 350 CURVE SMOOTH",
"537 327 OFFCURVE",
"524 307 OFFCURVE",
"509 291 CURVE",
"565 280 OFFCURVE",
"613 261 OFFCURVE",
"653 241 CURVE",
"673 230 OFFCURVE",
"691 220 OFFCURVE",
"708 211 CURVE SMOOTH",
"724 202 OFFCURVE",
"738 194 OFFCURVE",
"751 188 CURVE SMOOTH"
);
}
);
width = 859;
}
);
unicode = 0055;
},
{
glyphname = W;
lastChange = "2012-08-21 22:33:42 +0000";
layers = (
{
anchors = (
{
name = top;
position = "{437, 700}";
}
);
layerId = "ABA48147-5BAC-4B76-8A51-0B949BA99F04";
name = Regular;
paths = (
{
closed = 1;
nodes = (
"406 372 LINE",
"362 238 LINE",
"496 281 LINE"
);
},
{
closed = 1;
nodes = (
"739 748 LINE",
"873 613 LINE",
"513 254 LINE",
"315 189 LINE",
"379 388 LINE"
);
},
{
closed = 1;
nodes = (
"657 308 LINE",
"751 402 LINE",
"751 124 LINE SMOOTH",
"751 89 OFFCURVE",
"738 58 OFFCURVE",
"715 35 CURVE SMOOTH",
"692 12 OFFCURVE",
"661 -1 OFFCURVE",
"626 -1 CURVE SMOOTH",
"124 -1 LINE SMOOTH",
"89 -1 OFFCURVE",
"58 12 OFFCURVE",
"35 35 CURVE SMOOTH",
"12 58 OFFCURVE",
"-1 89 OFFCURVE",
"-1 124 CURVE SMOOTH",
"-1 625 LINE SMOOTH",
"-1 660 OFFCURVE",
"12 691 OFFCURVE",
"35 714 CURVE SMOOTH",
"58 737 OFFCURVE",
"89 750 OFFCURVE",
"124 750 CURVE SMOOTH",
"626 750 LINE SMOOTH",
"630 750 OFFCURVE",
"634 750 OFFCURVE",
"638 751 CURVE",
"642 751 OFFCURVE",
"646 750 OFFCURVE",
"650 749 CURVE",
"559 657 LINE",
"124 657 LINE SMOOTH",
"105 657 OFFCURVE",
"93 644 OFFCURVE",
"93 625 CURVE SMOOTH",
"93 124 LINE SMOOTH",
"93 105 OFFCURVE",
"105 93 OFFCURVE",
"124 93 CURVE SMOOTH",
"626 93 LINE SMOOTH",
"645 93 OFFCURVE",
"657 105 OFFCURVE",
"657 124 CURVE SMOOTH"
);
}
);
width = 874;
}
);
unicode = 0057;
},
{
glyphname = Y;
lastChange = "2012-08-21 22:33:42 +0000";
layers = (
{
anchors = (
{
name = top;
position = "{450, 700}";
}
);
layerId = "ABA48147-5BAC-4B76-8A51-0B949BA99F04";
name = Regular;
paths = (
{
closed = 1;
nodes = (
"750 129 LINE",
"651 129 LINE",
"651 579 LINE",
"750 579 LINE"
);
},
{
closed = 1;
nodes = (
"584 129 LINE",
"485 129 LINE",
"485 418 LINE",
"584 418 LINE"
);
},
{
closed = 1;
nodes = (
"415 129 LINE",
"317 129 LINE",
"317 508 LINE",
"415 508 LINE"
);
},
{
closed = 1;
nodes = (
"249 129 LINE",
"150 129 LINE",
"150 306 LINE",
"249 306 LINE"
);
},
{
closed = 1;
nodes = (
"825 675 LINE",
"75 675 LINE",
"75 75 LINE",
"825 75 LINE"
);
},
{
closed = 1;
nodes = (
"875 750 OFFCURVE",
"900 725 OFFCURVE",
"900 694 CURVE SMOOTH",
"900 56 LINE SMOOTH",
"900 25 OFFCURVE",
"875 0 OFFCURVE",
"844 0 CURVE SMOOTH",
"57 0 LINE SMOOTH",
"26 0 OFFCURVE",
"0 25 OFFCURVE",
"0 56 CURVE SMOOTH",
"0 694 LINE SMOOTH",
"0 725 OFFCURVE",
"26 750 OFFCURVE",
"57 750 CURVE SMOOTH",
"844 750 LINE SMOOTH"
);
}
);
width = 900;
}
);
unicode = 0059;
},
{
glyphname = Yacute;
lastChange = "2012-08-21 22:33:42 +0000";
layers = (
{
layerId = "ABA48147-5BAC-4B76-8A51-0B949BA99F04";
name = Regular;
paths = (
{
closed = 1;
nodes = (
"50 0 LINE",
"39 3 OFFCURVE",
"31 9 OFFCURVE",
"24 16 CURVE SMOOTH",
"17 23 OFFCURVE",
"9 29 OFFCURVE",
"0 34 CURVE",
"0 41 LINE",
"6 54 OFFCURVE",
"12 67 OFFCURVE",
"17 81 CURVE SMOOTH",
"27 109 OFFCURVE",
"37 138 OFFCURVE",
"50 163 CURVE",
"56 176 OFFCURVE",
"63 187 OFFCURVE",
"72 197 CURVE SMOOTH",
"80 206 OFFCURVE",
"91 216 OFFCURVE",
"103 221 CURVE",
"109 224 OFFCURVE",
"116 225 OFFCURVE",
"124 226 CURVE SMOOTH",
"131 227 OFFCURVE",
"139 228 OFFCURVE",
"146 229 CURVE",
"167 233 OFFCURVE",
"190 237 OFFCURVE",
"214 242 CURVE",
"238 246 OFFCURVE",
"261 250 OFFCURVE",
"283 254 CURVE",
"286 265 OFFCURVE",
"288 277 OFFCURVE",
"290 289 CURVE",
"291 300 OFFCURVE",
"293 311 OFFCURVE",
"296 322 CURVE",
"291 329 OFFCURVE",
"287 337 OFFCURVE",
"282 344 CURVE",
"273 358 OFFCURVE",
"264 374 OFFCURVE",
"257 395 CURVE SMOOTH",
"250 416 OFFCURVE",
"246 447 OFFCURVE",
"244 476 CURVE SMOOTH",
"243 490 OFFCURVE",
"243 503 OFFCURVE",
"246 516 CURVE",
"242 521 OFFCURVE",
"239 537 OFFCURVE",
"236 554 CURVE SMOOTH",
"233 570 OFFCURVE",
"232 587 OFFCURVE",
"232 592 CURVE SMOOTH",
"232 625 OFFCURVE",
"244 664 OFFCURVE",
"271 696 CURVE SMOOTH",
"298 727 OFFCURVE",
"339 750 OFFCURVE",
"396 750 CURVE SMOOTH",
"453 750 OFFCURVE",
"495 727 OFFCURVE",
"521 696 CURVE SMOOTH",
"547 664 OFFCURVE",
"559 625 OFFCURVE",
"559 592 CURVE SMOOTH",
"559 587 OFFCURVE",
"558 570 OFFCURVE",
"555 554 CURVE SMOOTH",
"552 537 OFFCURVE",
"549 521 OFFCURVE",
"545 516 CURVE",
"550 491 OFFCURVE",
"547 461 OFFCURVE",
"543 432 CURVE SMOOTH",
"534 375 OFFCURVE",
"514 351 OFFCURVE",
"495 322 CURVE",
"498 311 OFFCURVE",
"501 300 OFFCURVE",
"503 289 CURVE",
"504 277 OFFCURVE",
"506 265 OFFCURVE",
"508 254 CURVE",
"530 250 OFFCURVE",
"553 246 OFFCURVE",
"577 242 CURVE",
"601 237 OFFCURVE",
"624 233 OFFCURVE",
"645 229 CURVE",
"652 228 OFFCURVE",
"660 227 OFFCURVE",
"668 226 CURVE",
"683 225 OFFCURVE",
"694 219 OFFCURVE",
"705 211 CURVE",
"710 206 OFFCURVE",
"715 202 OFFCURVE",
"719 197 CURVE SMOOTH",
"736 177 OFFCURVE",
"748 151 OFFCURVE",
"759 123 CURVE SMOOTH",
"764 109 OFFCURVE",
"770 95 OFFCURVE",
"775 81 CURVE SMOOTH",
"780 67 OFFCURVE",
"785 54 OFFCURVE",
"791 41 CURVE",
"791 34 LINE",
"782 29 OFFCURVE",
"775 23 OFFCURVE",
"768 16 CURVE SMOOTH",
"761 9 OFFCURVE",
"752 3 OFFCURVE",
"741 0 CURVE"
);
}
);
width = 791;
}
);
unicode = 00DD;
},
{
glyphname = Zcaron;
lastChange = "2012-08-21 22:33:42 +0000";
layers = (
{
layerId = "ABA48147-5BAC-4B76-8A51-0B949BA99F04";
name = Regular;
paths = (
{
closed = 1;
nodes = (
"433 469 OFFCURVE",
"438 464 OFFCURVE",
"438 453 CURVE SMOOTH",
"438 422 LINE SMOOTH",
"438 411 OFFCURVE",
"433 406 OFFCURVE",
"422 406 CURVE SMOOTH",
"344 406 LINE",
"344 328 LINE SMOOTH",
"344 317 OFFCURVE",
"339 312 OFFCURVE",
"328 312 CURVE SMOOTH",
"297 312 LINE SMOOTH",
"286 312 OFFCURVE",
"281 317 OFFCURVE",
"281 328 CURVE SMOOTH",
"281 406 LINE",
"203 406 LINE SMOOTH",
"195 406 OFFCURVE",
"188 413 OFFCURVE",
"188 422 CURVE SMOOTH",
"188 453 LINE SMOOTH",
"188 462 OFFCURVE",
"195 469 OFFCURVE",
"203 469 CURVE SMOOTH",
"281 469 LINE",
"281 547 LINE SMOOTH",
"281 555 OFFCURVE",
"288 562 OFFCURVE",
"297 562 CURVE SMOOTH",
"328 562 LINE SMOOTH",
"337 562 OFFCURVE",
"344 555 OFFCURVE",
"344 547 CURVE SMOOTH",
"344 469 LINE",
"422 469 LINE SMOOTH"
);
},
{
closed = 1;
nodes = (
"125 385 OFFCURVE",
"146 339 OFFCURVE",
"180 305 CURVE SMOOTH",
"214 271 OFFCURVE",
"261 250 OFFCURVE",
"313 250 CURVE SMOOTH",
"365 250 OFFCURVE",
"412 271 OFFCURVE",
"446 305 CURVE SMOOTH",
"480 339 OFFCURVE",
"500 385 OFFCURVE",
"500 437 CURVE SMOOTH",
"500 489 OFFCURVE",
"480 536 OFFCURVE",
"446 570 CURVE SMOOTH",
"412 604 OFFCURVE",
"365 625 OFFCURVE",
"313 625 CURVE SMOOTH",
"261 625 OFFCURVE",
"214 604 OFFCURVE",
"180 570 CURVE SMOOTH",
"146 536 OFFCURVE",
"125 489 OFFCURVE",
"125 437 CURVE SMOOTH"
);
},
{
closed = 1;
nodes = (
"747 91 OFFCURVE",
"750 84 OFFCURVE",
"750 75 CURVE SMOOTH",
"750 66 OFFCURVE",
"747 59 OFFCURVE",
"741 53 CURVE SMOOTH",
"697 9 LINE SMOOTH",
"691 3 OFFCURVE",
"684 0 OFFCURVE",
"675 0 CURVE SMOOTH",
"666 0 OFFCURVE",
"659 3 OFFCURVE",
"653 9 CURVE SMOOTH",
"485 177 LINE",
"434 144 OFFCURVE",
"377 125 OFFCURVE",
"313 125 CURVE SMOOTH",
"226 125 OFFCURVE",
"148 160 OFFCURVE",
"92 217 CURVE SMOOTH",
"35 273 OFFCURVE",
"0 350 OFFCURVE",
"0 437 CURVE SMOOTH",
"0 524 OFFCURVE",
"35 602 OFFCURVE",
"92 659 CURVE SMOOTH",
"148 715 OFFCURVE",
"226 750 OFFCURVE",
"313 750 CURVE SMOOTH",
"398 750 OFFCURVE",
"477 715 OFFCURVE",
"534 659 CURVE SMOOTH",
"590 602 OFFCURVE",
"625 524 OFFCURVE",
"625 437 CURVE SMOOTH",
"625 373 OFFCURVE",
"606 316 OFFCURVE",
"573 265 CURVE",
"741 98 LINE"
);
}
);
width = 750;
}
);
unicode = 017D;
},
{
glyphname = eth;
lastChange = "2012-08-21 22:33:42 +0000";
layers = (
{
layerId = "ABA48147-5BAC-4B76-8A51-0B949BA99F04";
name = Regular;
paths = (
{
closed = 1;
nodes = (
"326 556 OFFCURVE",
"336 545 OFFCURVE",
"336 532 CURVE SMOOTH",
"336 519 OFFCURVE",
"326 509 OFFCURVE",
"313 509 CURVE SMOOTH",
"273 509 OFFCURVE",
"241 477 OFFCURVE",
"241 437 CURVE SMOOTH",
"241 424 OFFCURVE",
"231 414 OFFCURVE",
"218 414 CURVE SMOOTH",
"205 414 OFFCURVE",
"194 424 OFFCURVE",
"194 437 CURVE SMOOTH",
"194 470 OFFCURVE",
"208 500 OFFCURVE",
"229 521 CURVE SMOOTH",
"250 542 OFFCURVE",
"280 556 OFFCURVE",
"313 556 CURVE SMOOTH"
);
},
{
closed = 1;
nodes = (
"125 385 OFFCURVE",
"146 339 OFFCURVE",
"180 305 CURVE SMOOTH",
"214 271 OFFCURVE",
"261 250 OFFCURVE",
"313 250 CURVE SMOOTH",
"365 250 OFFCURVE",
"412 271 OFFCURVE",
"446 305 CURVE SMOOTH",
"480 339 OFFCURVE",
"500 385 OFFCURVE",
"500 437 CURVE SMOOTH",
"500 489 OFFCURVE",
"480 536 OFFCURVE",
"446 570 CURVE SMOOTH",
"412 604 OFFCURVE",
"365 625 OFFCURVE",
"313 625 CURVE SMOOTH",
"261 625 OFFCURVE",
"214 604 OFFCURVE",
"180 570 CURVE SMOOTH",
"146 536 OFFCURVE",
"125 489 OFFCURVE",
"125 437 CURVE SMOOTH"
);
},
{
closed = 1;
nodes = (
"747 91 OFFCURVE",
"750 84 OFFCURVE",
"750 75 CURVE SMOOTH",
"750 66 OFFCURVE",
"747 59 OFFCURVE",
"741 53 CURVE SMOOTH",
"697 9 LINE SMOOTH",
"691 3 OFFCURVE",
"684 0 OFFCURVE",
"675 0 CURVE SMOOTH",
"666 0 OFFCURVE",
"659 3 OFFCURVE",
"653 9 CURVE SMOOTH",
"485 177 LINE",
"434 144 OFFCURVE",
"377 125 OFFCURVE",
"313 125 CURVE SMOOTH",
"226 125 OFFCURVE",
"148 160 OFFCURVE",
"92 217 CURVE SMOOTH",
"35 273 OFFCURVE",
"0 350 OFFCURVE",
"0 437 CURVE SMOOTH",
"0 524 OFFCURVE",
"35 602 OFFCURVE",
"92 659 CURVE SMOOTH",
"148 715 OFFCURVE",
"226 750 OFFCURVE",
"313 750 CURVE SMOOTH",
"398 750 OFFCURVE",
"477 715 OFFCURVE",
"534 659 CURVE SMOOTH",
"590 602 OFFCURVE",
"625 524 OFFCURVE",
"625 437 CURVE SMOOTH",
"625 373 OFFCURVE",
"606 316 OFFCURVE",
"573 265 CURVE",
"741 98 LINE"
);
}
);
width = 750;
}
);
unicode = 00F0;
},
{
glyphname = j;
lastChange = "2012-08-21 22:33:42 +0000";
layers = (
{
layerId = "ABA48147-5BAC-4B76-8A51-0B949BA99F04";
name = Regular;
paths = (
{
closed = 1;
nodes = (
"883 338 OFFCURVE",
"900 321 OFFCURVE",
"900 300 CURVE SMOOTH",
"900 38 LINE SMOOTH",
"900 17 OFFCURVE",
"883 0 OFFCURVE",
"863 0 CURVE SMOOTH",
"525 0 LINE SMOOTH",
"504 0 OFFCURVE",
"488 17 OFFCURVE",
"488 38 CURVE SMOOTH",
"488 300 LINE SMOOTH",
"488 321 OFFCURVE",
"504 338 OFFCURVE",
"525 338 CURVE SMOOTH",
"863 338 LINE SMOOTH"
);
},
{
closed = 1;
nodes = (
"883 750 OFFCURVE",
"900 733 OFFCURVE",
"900 713 CURVE SMOOTH",
"900 450 LINE SMOOTH",
"900 429 OFFCURVE",
"883 413 OFFCURVE",
"863 413 CURVE SMOOTH",
"525 413 LINE SMOOTH",
"504 413 OFFCURVE",
"488 429 OFFCURVE",
"488 450 CURVE SMOOTH",
"488 713 LINE SMOOTH",
"488 733 OFFCURVE",
"504 750 OFFCURVE",
"525 750 CURVE SMOOTH",
"863 750 LINE SMOOTH"
);
},
{
closed = 1;
nodes = (
"396 338 OFFCURVE",
"413 321 OFFCURVE",
"413 300 CURVE SMOOTH",
"413 38 LINE SMOOTH",
"413 17 OFFCURVE",
"396 0 OFFCURVE",
"375 0 CURVE SMOOTH",
"38 0 LINE SMOOTH",
"17 0 OFFCURVE",
"0 17 OFFCURVE",
"0 38 CURVE SMOOTH",
"0 300 LINE SMOOTH",
"0 321 OFFCURVE",
"17 338 OFFCURVE",
"38 338 CURVE SMOOTH",
"375 338 LINE SMOOTH"
);
},
{
closed = 1;
nodes = (
"396 750 OFFCURVE",
"413 733 OFFCURVE",
"413 713 CURVE SMOOTH",
"413 450 LINE SMOOTH",
"413 429 OFFCURVE",
"396 413 OFFCURVE",
"375 413 CURVE SMOOTH",
"38 413 LINE SMOOTH",
"17 413 OFFCURVE",
"0 429 OFFCURVE",
"0 450 CURVE SMOOTH",
"0 713 LINE SMOOTH",
"0 733 OFFCURVE",
"17 750 OFFCURVE",
"38 750 CURVE SMOOTH",
"375 750 LINE SMOOTH"
);
}
);
width = 900;
}
);
unicode = 006A;
},
{
glyphname = k;
lastChange = "2012-08-21 22:33:42 +0000";
layers = (
{
anchors = (
{
name = bottom;
position = "{450, 0}";
}
);
layerId = "ABA48147-5BAC-4B76-8A51-0B949BA99F04";
name = Regular;
paths = (
{
closed = 1;
nodes = (
"650 170 LINE SMOOTH",
"650 191 OFFCURVE",
"667 207 OFFCURVE",
"688 207 CURVE SMOOTH",
"863 207 LINE SMOOTH",
"883 207 OFFCURVE",
"900 191 OFFCURVE",
"900 170 CURVE SMOOTH",
"900 38 LINE SMOOTH",
"900 17 OFFCURVE",
"883 0 OFFCURVE",
"863 0 CURVE SMOOTH",
"688 0 LINE SMOOTH",
"667 0 OFFCURVE",
"650 17 OFFCURVE",
"650 38 CURVE SMOOTH"
);
},
{
closed = 1;
nodes = (
"538 207 LINE SMOOTH",
"558 207 OFFCURVE",
"575 191 OFFCURVE",
"575 170 CURVE SMOOTH",
"575 38 LINE SMOOTH",
"575 17 OFFCURVE",
"558 0 OFFCURVE",
"538 0 CURVE SMOOTH",
"363 0 LINE SMOOTH",
"342 0 OFFCURVE",
"325 17 OFFCURVE",
"325 38 CURVE SMOOTH",
"325 170 LINE SMOOTH",
"325 191 OFFCURVE",
"342 207 OFFCURVE",
"363 207 CURVE SMOOTH"
);
},
{
closed = 1;
nodes = (
"863 750 LINE SMOOTH",
"883 750 OFFCURVE",
"900 733 OFFCURVE",
"900 713 CURVE SMOOTH",
"900 580 LINE SMOOTH",
"900 559 OFFCURVE",
"883 542 OFFCURVE",
"863 542 CURVE SMOOTH",
"688 542 LINE SMOOTH",
"667 542 OFFCURVE",
"650 559 OFFCURVE",
"650 580 CURVE SMOOTH",
"650 713 LINE SMOOTH",
"650 733 OFFCURVE",
"667 750 OFFCURVE",
"688 750 CURVE SMOOTH"
);
},
{
closed = 1;
nodes = (
"650 430 LINE SMOOTH",
"650 451 OFFCURVE",
"667 467 OFFCURVE",
"688 467 CURVE SMOOTH",
"863 467 LINE SMOOTH",
"883 467 OFFCURVE",
"900 451 OFFCURVE",
"900 430 CURVE SMOOTH",
"900 320 LINE SMOOTH",
"900 299 OFFCURVE",
"883 282 OFFCURVE",
"863 282 CURVE SMOOTH",
"688 282 LINE SMOOTH",
"667 282 OFFCURVE",
"650 299 OFFCURVE",
"650 320 CURVE SMOOTH"
);
},
{
closed = 1;
nodes = (
"575 320 LINE SMOOTH",
"575 299 OFFCURVE",
"558 282 OFFCURVE",
"538 282 CURVE SMOOTH",
"363 282 LINE SMOOTH",
"342 282 OFFCURVE",
"325 299 OFFCURVE",
"325 320 CURVE SMOOTH",
"325 430 LINE SMOOTH",
"325 451 OFFCURVE",
"342 467 OFFCURVE",
"363 467 CURVE SMOOTH",
"538 467 LINE SMOOTH",
"558 467 OFFCURVE",
"575 451 OFFCURVE",
"575 430 CURVE SMOOTH"
);
},
{
closed = 1;
nodes = (
"363 542 LINE SMOOTH",
"342 542 OFFCURVE",
"325 559 OFFCURVE",
"325 580 CURVE SMOOTH",
"325 713 LINE SMOOTH",
"325 733 OFFCURVE",
"342 750 OFFCURVE",
"363 750 CURVE SMOOTH",
"538 750 LINE SMOOTH",
"558 750 OFFCURVE",
"575 733 OFFCURVE",
"575 713 CURVE SMOOTH",
"575 580 LINE SMOOTH",
"575 559 OFFCURVE",
"558 542 OFFCURVE",
"538 542 CURVE SMOOTH"
);
},
{
closed = 1;
nodes = (
"213 207 LINE SMOOTH",
"233 207 OFFCURVE",
"250 191 OFFCURVE",
"250 170 CURVE SMOOTH",
"250 38 LINE SMOOTH",
"250 17 OFFCURVE",
"233 0 OFFCURVE",
"213 0 CURVE SMOOTH",
"38 0 LINE SMOOTH",
"17 0 OFFCURVE",
"0 17 OFFCURVE",
"0 38 CURVE SMOOTH",
"0 170 LINE SMOOTH",
"0 191 OFFCURVE",
"17 207 OFFCURVE",
"38 207 CURVE SMOOTH"
);
},
{
closed = 1;
nodes = (
"250 320 LINE SMOOTH",
"250 299 OFFCURVE",
"233 282 OFFCURVE",
"213 282 CURVE SMOOTH",
"38 282 LINE SMOOTH",
"17 282 OFFCURVE",
"0 299 OFFCURVE",
"0 320 CURVE SMOOTH",
"0 430 LINE SMOOTH",
"0 451 OFFCURVE",
"17 467 OFFCURVE",
"38 467 CURVE SMOOTH",
"213 467 LINE SMOOTH",
"233 467 OFFCURVE",
"250 451 OFFCURVE",
"250 430 CURVE SMOOTH"
);
},
{
closed = 1;
nodes = (
"250 580 LINE SMOOTH",
"250 559 OFFCURVE",
"233 542 OFFCURVE",
"213 542 CURVE SMOOTH",
"38 542 LINE SMOOTH",
"17 542 OFFCURVE",
"0 559 OFFCURVE",
"0 580 CURVE SMOOTH",
"0 713 LINE SMOOTH",
"0 733 OFFCURVE",
"17 750 OFFCURVE",
"38 750 CURVE SMOOTH",
"213 750 LINE SMOOTH",
"233 750 OFFCURVE",
"250 733 OFFCURVE",
"250 713 CURVE SMOOTH"
);
}
);
width = 900;
}
);
unicode = 006B;
},
{
glyphname = l;
lastChange = "2012-08-21 22:33:42 +0000";
layers = (
{
anchors = (
{
name = bottom;
position = "{450, 0}";
},
{
name = top;
position = "{450, 500}";
},
{
name = topright;
position = "{880, 500}";
}
);
layerId = "ABA48147-5BAC-4B76-8A51-0B949BA99F04";
name = Regular;
paths = (
{
closed = 1;
nodes = (
"863 750 LINE SMOOTH",
"883 750 OFFCURVE",
"900 733 OFFCURVE",
"900 713 CURVE SMOOTH",
"900 580 LINE SMOOTH",
"900 559 OFFCURVE",
"883 542 OFFCURVE",
"863 542 CURVE SMOOTH",
"333 542 LINE SMOOTH",
"312 542 OFFCURVE",
"295 559 OFFCURVE",
"295 580 CURVE SMOOTH",
"295 713 LINE SMOOTH",
"295 733 OFFCURVE",
"312 750 OFFCURVE",
"333 750 CURVE SMOOTH"
);
},
{
closed = 1;
nodes = (
"295 430 LINE SMOOTH",
"295 451 OFFCURVE",
"312 467 OFFCURVE",
"333 467 CURVE SMOOTH",
"863 467 LINE SMOOTH",
"883 467 OFFCURVE",
"900 451 OFFCURVE",
"900 430 CURVE SMOOTH",
"900 320 LINE SMOOTH",
"900 299 OFFCURVE",
"883 282 OFFCURVE",
"863 282 CURVE SMOOTH",
"333 282 LINE SMOOTH",
"312 282 OFFCURVE",
"295 299 OFFCURVE",
"295 320 CURVE SMOOTH"
);
},
{
closed = 1;
nodes = (
"295 170 LINE SMOOTH",
"295 191 OFFCURVE",
"312 207 OFFCURVE",
"333 207 CURVE SMOOTH",
"863 207 LINE SMOOTH",
"883 207 OFFCURVE",
"900 191 OFFCURVE",
"900 170 CURVE SMOOTH",
"900 38 LINE SMOOTH",
"900 17 OFFCURVE",
"883 0 OFFCURVE",
"863 0 CURVE SMOOTH",
"333 0 LINE SMOOTH",
"312 0 OFFCURVE",
"295 17 OFFCURVE",
"295 38 CURVE SMOOTH"
);
},
{
closed = 1;
nodes = (
"183 207 LINE SMOOTH",
"203 207 OFFCURVE",
"220 191 OFFCURVE",
"220 170 CURVE SMOOTH",
"220 38 LINE SMOOTH",
"220 17 OFFCURVE",
"203 0 OFFCURVE",
"183 0 CURVE SMOOTH",
"38 0 LINE SMOOTH",
"17 0 OFFCURVE",
"0 17 OFFCURVE",
"0 38 CURVE SMOOTH",
"0 170 LINE SMOOTH",
"0 191 OFFCURVE",
"17 207 OFFCURVE",
"38 207 CURVE SMOOTH"
);
},
{
closed = 1;
nodes = (
"220 580 LINE SMOOTH",
"220 559 OFFCURVE",
"203 542 OFFCURVE",
"183 542 CURVE SMOOTH",
"38 542 LINE SMOOTH",
"17 542 OFFCURVE",
"0 559 OFFCURVE",
"0 580 CURVE SMOOTH",
"0 713 LINE SMOOTH",
"0 733 OFFCURVE",
"17 750 OFFCURVE",
"38 750 CURVE SMOOTH",
"183 750 LINE SMOOTH",
"203 750 OFFCURVE",
"220 733 OFFCURVE",
"220 713 CURVE SMOOTH"
);
},
{
closed = 1;
nodes = (
"220 320 LINE SMOOTH",
"220 299 OFFCURVE",
"203 282 OFFCURVE",
"183 282 CURVE SMOOTH",
"38 282 LINE SMOOTH",
"17 282 OFFCURVE",
"0 299 OFFCURVE",
"0 320 CURVE SMOOTH",
"0 430 LINE SMOOTH",
"0 451 OFFCURVE",
"17 467 OFFCURVE",
"38 467 CURVE SMOOTH",
"183 467 LINE SMOOTH",
"203 467 OFFCURVE",
"220 451 OFFCURVE",
"220 430 CURVE SMOOTH"
);
}
);
width = 900;
}
);
unicode = 006C;
},
{
glyphname = lslash;
lastChange = "2012-08-21 22:33:42 +0000";
layers = (
{
layerId = "ABA48147-5BAC-4B76-8A51-0B949BA99F04";
name = Regular;
paths = (
{
closed = 1;
nodes = (
"673 750 OFFCURVE",
"730 735 OFFCURVE",
"774 699 CURVE SMOOTH",
"817 662 OFFCURVE",
"846 604 OFFCURVE",
"846 519 CURVE SMOOTH",
"846 460 OFFCURVE",
"820 406 OFFCURVE",
"794 366 CURVE SMOOTH",
"781 346 OFFCURVE",
"768 330 OFFCURVE",
"757 318 CURVE",
"745 306 OFFCURVE",
"739 300 OFFCURVE",
"738 299 CURVE SMOOTH",
"449 11 LINE SMOOTH",
"442 4 OFFCURVE",
"433 0 OFFCURVE",
"423 0 CURVE SMOOTH",
"413 0 OFFCURVE",
"404 4 OFFCURVE",
"397 11 CURVE SMOOTH",
"107 299 LINE SMOOTH",
"106 300 OFFCURVE",
"100 306 OFFCURVE",
"89 318 CURVE SMOOTH",
"66 342 OFFCURVE",
"39 383 OFFCURVE",
"17 436 CURVE SMOOTH",
"6 462 OFFCURVE",
"0 490 OFFCURVE",
"0 519 CURVE SMOOTH",
"0 604 OFFCURVE",
"29 662 OFFCURVE",
"73 699 CURVE SMOOTH",
"116 735 OFFCURVE",
"173 750 OFFCURVE",
"229 750 CURVE SMOOTH",
"269 750 OFFCURVE",
"309 735 OFFCURVE",
"342 715 CURVE SMOOTH",
"375 695 OFFCURVE",
"403 670 OFFCURVE",
"423 650 CURVE",
"443 670 OFFCURVE",
"471 695 OFFCURVE",
"504 715 CURVE SMOOTH",
"537 735 OFFCURVE",
"577 750 OFFCURVE",
"617 750 CURVE SMOOTH"
);
}
);
width = 846;
}
);
unicode = 0142;
},
{
glyphname = m;
lastChange = "2012-08-21 22:33:42 +0000";
layers = (
{
layerId = "ABA48147-5BAC-4B76-8A51-0B949BA99F04";
name = Regular;
paths = (
{
closed = 1;
nodes = (
"225 94 LINE SMOOTH",
"225 114 OFFCURVE",
"242 131 OFFCURVE",
"263 131 CURVE SMOOTH",
"863 131 LINE SMOOTH",
"883 131 OFFCURVE",
"900 114 OFFCURVE",
"900 94 CURVE SMOOTH",
"900 38 LINE SMOOTH",
"900 17 OFFCURVE",
"883 0 OFFCURVE",
"863 0 CURVE SMOOTH",
"263 0 LINE SMOOTH",
"242 0 OFFCURVE",
"225 17 OFFCURVE",
"225 38 CURVE SMOOTH"
);
},
{
closed = 1;
nodes = (
"225 300 LINE SMOOTH",
"225 321 OFFCURVE",
"242 338 OFFCURVE",
"263 338 CURVE SMOOTH",
"863 338 LINE SMOOTH",
"883 338 OFFCURVE",
"900 321 OFFCURVE",
"900 300 CURVE SMOOTH",
"900 244 LINE SMOOTH",
"900 223 OFFCURVE",
"883 206 OFFCURVE",
"863 206 CURVE SMOOTH",
"263 206 LINE SMOOTH",
"242 206 OFFCURVE",
"225 223 OFFCURVE",
"225 244 CURVE SMOOTH"
);
},
{
closed = 1;
nodes = (
"863 750 LINE SMOOTH",
"883 750 OFFCURVE",
"900 733 OFFCURVE",
"900 713 CURVE SMOOTH",
"900 656 LINE SMOOTH",
"900 636 OFFCURVE",
"883 619 OFFCURVE",
"863 619 CURVE SMOOTH",
"263 619 LINE SMOOTH",
"242 619 OFFCURVE",
"225 636 OFFCURVE",
"225 656 CURVE SMOOTH",
"225 713 LINE SMOOTH",
"225 733 OFFCURVE",
"242 750 OFFCURVE",
"263 750 CURVE SMOOTH"
);
},
{
closed = 1;
nodes = (
"225 506 LINE SMOOTH",
"225 527 OFFCURVE",
"242 544 OFFCURVE",
"263 544 CURVE SMOOTH",
"863 544 LINE SMOOTH",
"883 544 OFFCURVE",
"900 527 OFFCURVE",
"900 506 CURVE SMOOTH",
"900 450 LINE SMOOTH",
"900 429 OFFCURVE",
"883 413 OFFCURVE",
"863 413 CURVE SMOOTH",
"263 413 LINE SMOOTH",
"242 413 OFFCURVE",
"225 429 OFFCURVE",
"225 450 CURVE SMOOTH"
);
},
{
closed = 1;
nodes = (
"150 656 LINE SMOOTH",
"150 636 OFFCURVE",
"133 619 OFFCURVE",
"113 619 CURVE SMOOTH",
"38 619 LINE SMOOTH",
"17 619 OFFCURVE",
"0 636 OFFCURVE",
"0 656 CURVE SMOOTH",
"0 713 LINE SMOOTH",
"0 733 OFFCURVE",
"17 750 OFFCURVE",
"38 750 CURVE SMOOTH",
"113 750 LINE SMOOTH",
"133 750 OFFCURVE",
"150 733 OFFCURVE",
"150 713 CURVE SMOOTH"
);
},
{
closed = 1;
nodes = (
"150 450 LINE SMOOTH",
"150 429 OFFCURVE",
"133 413 OFFCURVE",
"113 413 CURVE SMOOTH",
"38 413 LINE SMOOTH",
"17 413 OFFCURVE",
"0 429 OFFCURVE",
"0 450 CURVE SMOOTH",
"0 506 LINE SMOOTH",
"0 527 OFFCURVE",
"17 544 OFFCURVE",
"38 544 CURVE SMOOTH",
"113 544 LINE SMOOTH",
"133 544 OFFCURVE",
"150 527 OFFCURVE",
"150 506 CURVE SMOOTH"
);
},
{
closed = 1;
nodes = (
"150 244 LINE SMOOTH",
"150 223 OFFCURVE",
"133 206 OFFCURVE",
"113 206 CURVE SMOOTH",
"38 206 LINE SMOOTH",
"17 206 OFFCURVE",
"0 223 OFFCURVE",
"0 244 CURVE SMOOTH",
"0 300 LINE SMOOTH",
"0 321 OFFCURVE",
"17 338 OFFCURVE",
"38 338 CURVE SMOOTH",
"113 338 LINE SMOOTH",
"133 338 OFFCURVE",
"150 321 OFFCURVE",
"150 300 CURVE SMOOTH"
);
},
{
closed = 1;
nodes = (
"113 131 LINE SMOOTH",
"133 131 OFFCURVE",
"150 114 OFFCURVE",
"150 94 CURVE SMOOTH",
"150 38 LINE SMOOTH",
"150 17 OFFCURVE",
"133 0 OFFCURVE",
"113 0 CURVE SMOOTH",
"38 0 LINE SMOOTH",
"17 0 OFFCURVE",
"0 17 OFFCURVE",
"0 38 CURVE SMOOTH",
"0 94 LINE SMOOTH",
"0 114 OFFCURVE",
"17 131 OFFCURVE",
"38 131 CURVE SMOOTH"
);
}
);
width = 900;
}
);
unicode = 006D;
},
{
glyphname = o;
lastChange = "2012-08-21 22:33:42 +0000";
layers = (
{
anchors = (
{
name = top;
position = "{320, 500}";
}
);
layerId = "ABA48147-5BAC-4B76-8A51-0B949BA99F04";
name = Regular;
paths = (
{
closed = 1;
nodes = (
"391 539 OFFCURVE",
"416 534 OFFCURVE",
"441 529 CURVE",
"450 528 OFFCURVE",
"460 526 OFFCURVE",
"471 524 CURVE SMOOTH",
"481 522 OFFCURVE",
"492 521 OFFCURVE",
"504 521 CURVE SMOOTH",
"511 521 OFFCURVE",
"518 522 OFFCURVE",
"526 523 CURVE SMOOTH",
"534 524 OFFCURVE",
"542 525 OFFCURVE",
"549 525 CURVE SMOOTH",
"576 525 OFFCURVE",
"585 508 OFFCURVE",
"586 489 CURVE",
"587 479 OFFCURVE",
"586 470 OFFCURVE",
"585 463 CURVE SMOOTH",
"584 455 OFFCURVE",
"584 447 OFFCURVE",
"583 438 CURVE SMOOTH",
"582 429 OFFCURVE",
"582 421 OFFCURVE",
"583 412 CURVE",
"584 407 OFFCURVE",
"586 402 OFFCURVE",
"588 399 CURVE",
"591 391 OFFCURVE",
"595 382 OFFCURVE",
"596 372 CURVE",
"597 367 OFFCURVE",
"598 361 OFFCURVE",
"599 356 CURVE SMOOTH",
"616 257 OFFCURVE",
"591 190 OFFCURVE",
"548 130 CURVE SMOOTH",
"513 83 OFFCURVE",
"473 38 OFFCURVE",
"402 15 CURVE SMOOTH",
"367 3 OFFCURVE",
"326 2 OFFCURVE",
"291 -1 CURVE",
"280 -1 LINE SMOOTH",
"255 -1 OFFCURVE",
"233 1 OFFCURVE",
"212 5 CURVE SMOOTH",
"191 9 OFFCURVE",
"168 11 OFFCURVE",
"144 11 CURVE SMOOTH",
"142 11 LINE SMOOTH",
"134 11 OFFCURVE",
"125 10 OFFCURVE",
"115 8 CURVE",
"105 5 OFFCURVE",
"95 4 OFFCURVE",
"86 3 CURVE",
"85 3 LINE SMOOTH",
"68 3 OFFCURVE",
"54 12 OFFCURVE",
"47 24 CURVE SMOOTH",
"38 40 OFFCURVE",
"41 58 OFFCURVE",
"46 73 CURVE SMOOTH",
"51 87 OFFCURVE",
"51 104 OFFCURVE",
"48 123 CURVE",
"44 142 OFFCURVE",
"41 162 OFFCURVE",
"40 181 CURVE SMOOTH",
"39 196 OFFCURVE",
"40 212 OFFCURVE",
"43 231 CURVE SMOOTH",
"44 239 OFFCURVE",
"45 247 OFFCURVE",
"46 256 CURVE SMOOTH",
"47 264 OFFCURVE",
"48 272 OFFCURVE",
"49 279 CURVE",
"56 310 OFFCURVE",
"63 338 OFFCURVE",
"76 365 CURVE SMOOTH",
"85 385 OFFCURVE",
"97 403 OFFCURVE",
"110 422 CURVE SMOOTH",
"112 425 OFFCURVE",
"114 428 OFFCURVE",
"117 430 CURVE SMOOTH",
"120 432 OFFCURVE",
"123 434 OFFCURVE",
"126 437 CURVE SMOOTH",
"131 442 OFFCURVE",
"137 448 OFFCURVE",
"142 453 CURVE",
"152 464 OFFCURVE",
"164 473 OFFCURVE",
"180 481 CURVE SMOOTH",
"195 489 OFFCURVE",
"209 496 OFFCURVE",
"226 503 CURVE SMOOTH",
"242 510 OFFCURVE",
"261 517 OFFCURVE",
"278 523 CURVE SMOOTH",
"295 529 OFFCURVE",
"317 536 OFFCURVE",
"336 538 CURVE SMOOTH",
"345 539 OFFCURVE",
"355 539 OFFCURVE",
"364 539 CURVE SMOOTH"
);
}
);
width = 640;
}
);
unicode = 006F;
},
{
glyphname = p;
lastChange = "2012-08-21 22:33:42 +0000";
layers = (
{
layerId = "ABA48147-5BAC-4B76-8A51-0B949BA99F04";
name = Regular;
paths = (
{
closed = 1;
nodes = (
"660 373 OFFCURVE",
"653 390 OFFCURVE",
"638 387 CURVE",
"636 387 LINE",
"651 402 OFFCURVE",
"658 417 OFFCURVE",
"647 425 CURVE",
"642 430 OFFCURVE",
"637 430 OFFCURVE",
"631 426 CURVE",
"626 423 OFFCURVE",
"610 418 OFFCURVE",
"594 418 CURVE SMOOTH",
"593 418 OFFCURVE",
"592 418 OFFCURVE",
"591 419 CURVE",
"589 419 OFFCURVE",
"587 420 OFFCURVE",
"587 421 CURVE",
"586 422 OFFCURVE",
"586 422 OFFCURVE",
"586 423 CURVE",
"575 463 OFFCURVE",
"547 497 OFFCURVE",
"512 512 CURVE",
"513 513 OFFCURVE",
"514 515 OFFCURVE",
"515 516 CURVE SMOOTH",
"516 517 OFFCURVE",
"517 519 OFFCURVE",
"518 520 CURVE",
"522 531 OFFCURVE",
"519 537 OFFCURVE",
"512 544 CURVE SMOOTH",
"509 547 OFFCURVE",
"503 549 OFFCURVE",
"495 548 CURVE",
"494 549 OFFCURVE",
"493 551 OFFCURVE",
"492 552 CURVE SMOOTH",
"488 556 OFFCURVE",
"484 557 OFFCURVE",
"480 556 CURVE",
"472 555 OFFCURVE",
"464 553 OFFCURVE",
"456 550 CURVE",
"455 551 LINE",
"450 554 OFFCURVE",
"445 553 OFFCURVE",
"440 550 CURVE SMOOTH",
"401 526 OFFCURVE",
"378 482 OFFCURVE",
"359 435 CURVE",
"348 445 OFFCURVE",
"338 452 OFFCURVE",
"331 455 CURVE",
"291 478 OFFCURVE",
"249 495 OFFCURVE",
"193 516 CURVE",
"184 519 OFFCURVE",
"177 513 OFFCURVE",
"174 504 CURVE",
"173 487 OFFCURVE",
"178 465 OFFCURVE",
"197 445 CURVE",
"189 443 OFFCURVE",
"186 438 OFFCURVE",
"187 429 CURVE",
"191 407 OFFCURVE",
"202 391 OFFCURVE",
"220 380 CURVE",
"214 374 LINE SMOOTH",
"205 365 OFFCURVE",
"210 356 OFFCURVE",
"225 340 CURVE",
"232 331 OFFCURVE",
"243 325 OFFCURVE",
"257 321 CURVE",
"255 317 OFFCURVE",
"254 313 OFFCURVE",
"254 310 CURVE SMOOTH",
"254 307 OFFCURVE",
"254 304 OFFCURVE",
"255 303 CURVE",
"257 292 OFFCURVE",
"263 284 OFFCURVE",
"274 279 CURVE",
"250 263 OFFCURVE",
"222 258 OFFCURVE",
"194 260 CURVE SMOOTH",
"166 262 OFFCURVE",
"139 273 OFFCURVE",
"119 292 CURVE SMOOTH",
"116 295 OFFCURVE",
"113 296 OFFCURVE",
"110 296 CURVE SMOOTH",
"106 296 OFFCURVE",
"103 295 OFFCURVE",
"100 292 CURVE",
"93 286 OFFCURVE",
"92 280 OFFCURVE",
"98 273 CURVE",
"150 201 OFFCURVE",
"230 162 OFFCURVE",
"322 162 CURVE SMOOTH",
"385 162 OFFCURVE",
"443 180 OFFCURVE",
"490 211 CURVE SMOOTH",
"537 242 OFFCURVE",
"572 285 OFFCURVE",
"588 336 CURVE",
"615 338 OFFCURVE",
"636 347 OFFCURVE",
"651 364 CURVE"
);
},
{
closed = 1;
nodes = (
"708 750 OFFCURVE",
"750 708 OFFCURVE",
"750 656 CURVE SMOOTH",
"750 94 LINE SMOOTH",
"750 67 OFFCURVE",
"739 44 OFFCURVE",
"723 28 CURVE SMOOTH",
"706 11 OFFCURVE",
"681 0 OFFCURVE",
"656 0 CURVE SMOOTH",
"93 0 LINE SMOOTH",
"68 0 OFFCURVE",
"44 11 OFFCURVE",
"28 28 CURVE",
"11 44 OFFCURVE",
"0 67 OFFCURVE",
"0 94 CURVE SMOOTH",
"0 656 LINE SMOOTH",
"0 681 OFFCURVE",
"11 706 OFFCURVE",
"28 723 CURVE SMOOTH",
"44 739 OFFCURVE",
"68 750 OFFCURVE",
"93 750 CURVE SMOOTH",
"656 750 LINE SMOOTH"
);
}
);
width = 750;
}
);
unicode = 0070;
},
{
glyphname = thorn;
lastChange = "2012-08-21 22:33:42 +0000";
layers = (
{
layerId = "ABA48147-5BAC-4B76-8A51-0B949BA99F04";
name = Regular;
paths = (
{
closed = 1;
nodes = (
"335 0 LINE SMOOTH",
"312 0 OFFCURVE",
"283 12 OFFCURVE",
"268 27 CURVE SMOOTH",
"11 285 LINE SMOOTH",
"4 292 OFFCURVE",
"0 302 OFFCURVE",
"0 313 CURVE SMOOTH",
"0 324 OFFCURVE",
"4 333 OFFCURVE",
"11 340 CURVE SMOOTH",
"96 425 LINE SMOOTH",
"103 432 OFFCURVE",
"113 436 OFFCURVE",
"124 436 CURVE SMOOTH",
"135 436 OFFCURVE",
"144 432 OFFCURVE",
"151 425 CURVE SMOOTH",
"329 247 LINE SMOOTH",
"336 240 OFFCURVE",
"346 236 OFFCURVE",
"357 236 CURVE SMOOTH",
"368 236 OFFCURVE",
"377 240 OFFCURVE",
"384 247 CURVE SMOOTH",
"748 611 LINE SMOOTH",
"755 618 OFFCURVE",
"765 622 OFFCURVE",
"776 622 CURVE SMOOTH",
"787 622 OFFCURVE",
"796 618 OFFCURVE",
"803 611 CURVE SMOOTH",
"888 526 LINE SMOOTH",
"895 519 OFFCURVE",
"899 510 OFFCURVE",
"899 499 CURVE SMOOTH",
"899 488 OFFCURVE",
"895 478 OFFCURVE",
"888 471 CURVE SMOOTH",
"444 27 LINE SMOOTH",
"429 12 OFFCURVE",
"399 0 OFFCURVE",
"378 0 CURVE SMOOTH"
);
}
);
width = 900;
}
);
unicode = 00FE;
},
{
glyphname = q;
lastChange = "2012-08-21 22:33:42 +0000";
layers = (
{
layerId = "ABA48147-5BAC-4B76-8A51-0B949BA99F04";
name = Regular;
paths = (
{
closed = 1;
nodes = (
"709 750 OFFCURVE",
"751 708 OFFCURVE",
"751 656 CURVE SMOOTH",
"751 94 LINE SMOOTH",
"751 67 OFFCURVE",
"740 44 OFFCURVE",
"724 28 CURVE SMOOTH",
"707 11 OFFCURVE",
"682 0 OFFCURVE",
"657 0 CURVE SMOOTH",
"420 0 LINE",
"420 314 LINE",
"504 314 LINE SMOOTH",
"512 314 OFFCURVE",
"519 320 OFFCURVE",
"519 328 CURVE",
"525 410 LINE",
"525 419 OFFCURVE",
"518 427 OFFCURVE",
"510 427 CURVE SMOOTH",
"420 427 LINE",
"420 463 LINE SMOOTH",
"420 490 OFFCURVE",
"423 496 OFFCURVE",
"451 496 CURVE SMOOTH",
"467 496 OFFCURVE",
"488 493 OFFCURVE",
"507 489 CURVE",
"511 489 OFFCURVE",
"516 489 OFFCURVE",
"519 492 CURVE",
"522 494 OFFCURVE",
"525 498 OFFCURVE",
"526 503 CURVE",
"537 582 LINE SMOOTH",
"538 591 OFFCURVE",
"534 597 OFFCURVE",
"525 599 CURVE",
"496 607 OFFCURVE",
"465 611 OFFCURVE",
"433 611 CURVE SMOOTH",
"335 611 OFFCURVE",
"286 563 OFFCURVE",
"286 468 CURVE SMOOTH",
"286 427 LINE",
"236 427 LINE SMOOTH",
"225 427 OFFCURVE",
"220 422 OFFCURVE",
"220 411 CURVE SMOOTH",
"220 329 LINE SMOOTH",
"220 321 OFFCURVE",
"227 314 OFFCURVE",
"236 314 CURVE SMOOTH",
"286 314 LINE",
"286 0 LINE",
"94 0 LINE SMOOTH",
"69 0 OFFCURVE",
"45 11 OFFCURVE",
"29 28 CURVE",
"12 44 OFFCURVE",
"1 67 OFFCURVE",
"1 94 CURVE SMOOTH",
"1 656 LINE SMOOTH",
"1 681 OFFCURVE",
"12 706 OFFCURVE",
"29 723 CURVE SMOOTH",
"45 739 OFFCURVE",
"69 750 OFFCURVE",
"94 750 CURVE SMOOTH",
"657 750 LINE SMOOTH"
);
}
);
width = 750;
}
);
unicode = 0071;
},
{
glyphname = s;
lastChange = "2012-08-21 22:33:42 +0000";
layers = (
{
anchors = (
{
name = bottom;
position = "{375, 0}";
},
{
name = top;
position = "{375, 500}";
}
);
layerId = "ABA48147-5BAC-4B76-8A51-0B949BA99F04";
name = Regular;
paths = (
{
closed = 1;
nodes = (
"326 556 OFFCURVE",
"336 545 OFFCURVE",
"336 532 CURVE SMOOTH",
"336 519 OFFCURVE",
"326 509 OFFCURVE",
"313 509 CURVE SMOOTH",
"273 509 OFFCURVE",
"241 477 OFFCURVE",
"241 437 CURVE SMOOTH",
"241 424 OFFCURVE",
"231 414 OFFCURVE",
"218 414 CURVE SMOOTH",
"205 414 OFFCURVE",
"194 424 OFFCURVE",
"194 437 CURVE SMOOTH",
"194 470 OFFCURVE",
"208 500 OFFCURVE",
"229 521 CURVE SMOOTH",
"250 542 OFFCURVE",
"280 556 OFFCURVE",
"313 556 CURVE SMOOTH"
);
},
{
closed = 1;
nodes = (
"125 385 OFFCURVE",
"146 339 OFFCURVE",
"180 305 CURVE SMOOTH",
"214 271 OFFCURVE",
"261 250 OFFCURVE",
"313 250 CURVE SMOOTH",
"365 250 OFFCURVE",
"412 271 OFFCURVE",
"446 305 CURVE SMOOTH",
"480 339 OFFCURVE",
"500 385 OFFCURVE",
"500 437 CURVE SMOOTH",
"500 489 OFFCURVE",
"480 536 OFFCURVE",
"446 570 CURVE SMOOTH",
"412 604 OFFCURVE",
"365 625 OFFCURVE",
"313 625 CURVE SMOOTH",
"261 625 OFFCURVE",
"214 604 OFFCURVE",
"180 570 CURVE SMOOTH",
"146 536 OFFCURVE",
"125 489 OFFCURVE",
"125 437 CURVE SMOOTH"
);
},
{
closed = 1;
nodes = (
"747 91 OFFCURVE",
"750 84 OFFCURVE",
"750 75 CURVE SMOOTH",
"750 66 OFFCURVE",
"747 59 OFFCURVE",
"741 53 CURVE SMOOTH",
"697 9 LINE SMOOTH",
"691 3 OFFCURVE",
"684 0 OFFCURVE",
"675 0 CURVE SMOOTH",
"666 0 OFFCURVE",
"659 3 OFFCURVE",
"653 9 CURVE SMOOTH",
"485 177 LINE",
"434 144 OFFCURVE",
"377 125 OFFCURVE",
"313 125 CURVE SMOOTH",
"226 125 OFFCURVE",
"148 160 OFFCURVE",
"92 217 CURVE SMOOTH",
"35 273 OFFCURVE",
"0 350 OFFCURVE",
"0 437 CURVE SMOOTH",
"0 524 OFFCURVE",
"35 602 OFFCURVE",
"92 659 CURVE SMOOTH",
"148 715 OFFCURVE",
"226 750 OFFCURVE",
"313 750 CURVE SMOOTH",
"398 750 OFFCURVE",
"477 715 OFFCURVE",
"534 659 CURVE SMOOTH",
"590 602 OFFCURVE",
"625 524 OFFCURVE",
"625 437 CURVE SMOOTH",
"625 373 OFFCURVE",
"606 316 OFFCURVE",
"573 265 CURVE",
"741 98 LINE"
);
}
);
width = 750;
}
);
unicode = 0073;
},
{
glyphname = scaron;
lastChange = "2012-08-21 22:33:42 +0000";
layers = (
{
layerId = "ABA48147-5BAC-4B76-8A51-0B949BA99F04";
name = Regular;
paths = (
{
closed = 1;
nodes = (
"402 750 OFFCURVE",
"410 744 OFFCURVE",
"417 731 CURVE",
"523 515 LINE",
"760 481 LINE SMOOTH",
"789 477 OFFCURVE",
"795 457 OFFCURVE",
"775 437 CURVE SMOOTH",
"603 269 LINE",
"643 33 LINE SMOOTH",
"647 12 OFFCURVE",
"640 0 OFFCURVE",
"625 0 CURVE SMOOTH",
"620 0 OFFCURVE",
"614 2 OFFCURVE",
"606 5 CURVE",
"393 117 LINE",
"181 5 LINE",
"173 2 OFFCURVE",
"167 0 OFFCURVE",
"162 0 CURVE SMOOTH",
"147 0 OFFCURVE",
"140 12 OFFCURVE",
"143 33 CURVE SMOOTH",
"184 269 LINE",
"12 437 LINE SMOOTH",
"-9 457 OFFCURVE",
"-2 477 OFFCURVE",
"26 481 CURVE SMOOTH",
"264 515 LINE",
"370 731 LINE",
"377 744 OFFCURVE",
"384 750 OFFCURVE",
"393 750 CURVE SMOOTH"
);
},
{
closed = 1;
nodes = (
"323 486 LINE",
"307 456 LINE",
"273 451 LINE",
"115 428 LINE",
"230 316 LINE",
"254 292 LINE",
"249 258 LINE",
"222 101 LINE",
"363 175 LINE",
"393 191 LINE",
"424 175 LINE",
"565 101 LINE",
"538 258 LINE",
"532 292 LINE",
"557 316 LINE",
"671 428 LINE",
"513 451 LINE",
"479 456 LINE",
"464 486 LINE",
"393 630 LINE"
);
}
);
width = 787;
}
);
unicode = 0161;
},
{
glyphname = v;
lastChange = "2012-08-21 22:33:42 +0000";
layers = (
{
layerId = "ABA48147-5BAC-4B76-8A51-0B949BA99F04";
name = Regular;
paths = (
{
closed = 1;
nodes = (
"825 672 LINE",
"358 672 LINE",
"351 627 LINE",
"75 627 LINE",
"75 559 LINE",
"825 559 LINE"
);
},
{
closed = 1;
nodes = (
"272 297 OFFCURVE",
"292 252 OFFCURVE",
"324 220 CURVE SMOOTH",
"356 188 OFFCURVE",
"401 168 OFFCURVE",
"450 168 CURVE SMOOTH",
"499 168 OFFCURVE",
"544 188 OFFCURVE",
"576 220 CURVE SMOOTH",
"608 252 OFFCURVE",
"628 297 OFFCURVE",
"628 346 CURVE SMOOTH",
"628 395 OFFCURVE",
"608 440 OFFCURVE",
"576 472 CURVE SMOOTH",
"544 504 OFFCURVE",
"499 524 OFFCURVE",
"450 524 CURVE SMOOTH",
"401 524 OFFCURVE",
"356 504 OFFCURVE",
"324 472 CURVE SMOOTH",
"292 440 OFFCURVE",
"272 395 OFFCURVE",
"272 346 CURVE SMOOTH"
);
},
{
closed = 1;
nodes = (
"825 134 LINE",
"75 134 LINE",
"75 78 LINE",
"825 78 LINE"
);
},
{
closed = 1;
nodes = (
"130 655 LINE",
"284 655 LINE",
"284 700 LINE",
"130 700 LINE"
);
},
{
closed = 1;
nodes = (
"875 750 OFFCURVE",
"900 725 OFFCURVE",
"900 694 CURVE SMOOTH",
"900 56 LINE SMOOTH",
"900 25 OFFCURVE",
"875 0 OFFCURVE",
"844 0 CURVE SMOOTH",
"56 0 LINE SMOOTH",
"25 0 OFFCURVE",
"0 25 OFFCURVE",
"0 56 CURVE SMOOTH",
"0 694 LINE SMOOTH",
"0 725 OFFCURVE",
"25 750 OFFCURVE",
"56 750 CURVE SMOOTH",
"844 750 LINE SMOOTH"
);
},
{
closed = 1;
nodes = (
"404 373 OFFCURVE",
"425 392 OFFCURVE",
"450 392 CURVE",
"450 393 LINE",
"462 393 OFFCURVE",
"471 402 OFFCURVE",
"471 413 CURVE SMOOTH",
"471 425 OFFCURVE",
"462 434 OFFCURVE",
"450 434 CURVE SMOOTH",
"402 434 OFFCURVE",
"363 394 OFFCURVE",
"363 346 CURVE SMOOTH",
"363 335 OFFCURVE",
"372 326 OFFCURVE",
"383 326 CURVE SMOOTH",
"395 326 OFFCURVE",
"404 335 OFFCURVE",
"404 346 CURVE SMOOTH"
);
},
{
closed = 1;
nodes = (
"572 313 OFFCURVE",
"559 282 OFFCURVE",
"537 260 CURVE SMOOTH",
"515 238 OFFCURVE",
"483 224 OFFCURVE",
"450 224 CURVE SMOOTH",
"417 224 OFFCURVE",
"386 238 OFFCURVE",
"364 260 CURVE SMOOTH",
"342 282 OFFCURVE",
"328 313 OFFCURVE",
"328 346 CURVE SMOOTH",
"328 379 OFFCURVE",
"342 411 OFFCURVE",
"364 433 CURVE SMOOTH",
"386 455 OFFCURVE",
"417 468 OFFCURVE",
"450 468 CURVE SMOOTH",
"483 468 OFFCURVE",
"515 455 OFFCURVE",
"537 433 CURVE SMOOTH",
"559 411 OFFCURVE",
"572 379 OFFCURVE",
"572 346 CURVE SMOOTH"
);
}
);
width = 900;
}
);
unicode = 0076;
},
{
glyphname = w;
lastChange = "2012-08-21 22:33:42 +0000";
layers = (
{
anchors = (
{
name = top;
position = "{450, 500}";
}
);
layerId = "ABA48147-5BAC-4B76-8A51-0B949BA99F04";
name = Regular;
paths = (
{
closed = 1;
nodes = (
"912 340 OFFCURVE",
"873 245 OFFCURVE",
"799 171 CURVE SMOOTH",
"725 97 OFFCURVE",
"617 44 OFFCURVE",
"494 31 CURVE SMOOTH",
"449 26 OFFCURVE",
"406 26 OFFCURVE",
"364 31 CURVE",
"291 -44 OFFCURVE",
"215 -74 OFFCURVE",
"163 -82 CURVE SMOOTH",
"136 -86 OFFCURVE",
"116 -86 OFFCURVE",
"103 -81 CURVE SMOOTH",
"89 -76 OFFCURVE",
"86 -71 OFFCURVE",
"94 -65 CURVE SMOOTH",
"169 -9 OFFCURVE",
"185 47 OFFCURVE",
"180 91 CURVE",
"83 147 OFFCURVE",
"16 233 OFFCURVE",
"4 337 CURVE SMOOTH",
"-8 436 OFFCURVE",
"32 531 OFFCURVE",
"106 604 CURVE SMOOTH",
"180 677 OFFCURVE",
"287 729 OFFCURVE",
"410 744 CURVE SMOOTH",
"534 757 OFFCURVE",
"651 731 OFFCURVE",
"740 675 CURVE SMOOTH",
"828 619 OFFCURVE",
"888 536 OFFCURVE",
"900 437 CURVE SMOOTH"
);
}
);
width = 900;
}
);
unicode = 0077;
},
{
glyphname = x;
lastChange = "2012-08-21 22:33:42 +0000";
layers = (
{
layerId = "ABA48147-5BAC-4B76-8A51-0B949BA99F04";
name = Regular;
paths = (
{
closed = 1;
nodes = (
"682 362 OFFCURVE",
"668 401 OFFCURVE",
"652 426 CURVE SMOOTH",
"643 441 OFFCURVE",
"631 452 OFFCURVE",
"618 461 CURVE",
"617 461 OFFCURVE",
"617 461 OFFCURVE",
"617 462 CURVE",
"616 462 OFFCURVE",
"616 462 OFFCURVE",
"615 462 CURVE SMOOTH",
"608 462 OFFCURVE",
"596 453 OFFCURVE",
"584 442 CURVE",
"389 247 LINE",
"394 230 OFFCURVE",
"392 216 OFFCURVE",
"381 205 CURVE",
"380 202 OFFCURVE",
"379 202 OFFCURVE",
"376 199 CURVE SMOOTH",
"340 163 OFFCURVE",
"310 133 OFFCURVE",
"287 110 CURVE SMOOTH",
"239 63 OFFCURVE",
"211 35 OFFCURVE",
"195 18 CURVE SMOOTH",
"192 15 OFFCURVE",
"192 14 OFFCURVE",
"189 13 CURVE",
"182 6 OFFCURVE",
"174 3 OFFCURVE",
"164 3 CURVE SMOOTH",
"140 3 OFFCURVE",
"113 22 OFFCURVE",
"95 46 CURVE SMOOTH",
"77 69 OFFCURVE",
"70 96 OFFCURVE",
"87 115 CURVE",
"88 116 OFFCURVE",
"90 117 OFFCURVE",
"93 120 CURVE SMOOTH",
"274 301 LINE SMOOTH",
"277 304 OFFCURVE",
"278 306 OFFCURVE",
"279 307 CURVE SMOOTH",
"286 314 OFFCURVE",
"294 317 OFFCURVE",
"305 317 CURVE SMOOTH",
"310 317 OFFCURVE",
"316 316 OFFCURVE",
"321 314 CURVE",
"496 488 LINE",
"500 493 OFFCURVE",
"507 502 OFFCURVE",
"511 514 CURVE SMOOTH",
"515 525 OFFCURVE",
"517 537 OFFCURVE",
"509 553 CURVE SMOOTH",
"498 577 OFFCURVE",
"468 584 OFFCURVE",
"455 587 CURVE",
"436 587 OFFCURVE",
"420 606 OFFCURVE",
"405 621 CURVE SMOOTH",
"400 626 LINE SMOOTH",
"379 646 OFFCURVE",
"374 649 OFFCURVE",
"398 672 CURVE SMOOTH",
"463 738 LINE SMOOTH",
"473 748 OFFCURVE",
"481 753 OFFCURVE",
"486 753 CURVE SMOOTH",
"493 753 OFFCURVE",
"498 746 OFFCURVE",
"509 735 CURVE SMOOTH",
"514 730 LINE",
"529 717 OFFCURVE",
"544 701 OFFCURVE",
"548 686 CURVE",
"549 684 OFFCURVE",
"551 679 OFFCURVE",
"554 672 CURVE",
"557 664 OFFCURVE",
"562 655 OFFCURVE",
"569 645 CURVE",
"572 642 OFFCURVE",
"578 640 OFFCURVE",
"586 641 CURVE SMOOTH",
"593 642 OFFCURVE",
"599 640 OFFCURVE",
"603 637 CURVE",
"620 620 OFFCURVE",
"639 601 OFFCURVE",
"658 582 CURVE SMOOTH",
"677 562 OFFCURVE",
"695 545 OFFCURVE",
"710 530 CURVE",
"738 497 OFFCURVE",
"751 450 OFFCURVE",
"750 382 CURVE SMOOTH",
"749 348 OFFCURVE",
"740 307 OFFCURVE",
"723 259 CURVE",
"675 305 LINE"
);
},
{
closed = 1;
nodes = (
"302 369 LINE",
"297 369 OFFCURVE",
"293 368 OFFCURVE",
"288 367 CURVE",
"225 430 LINE",
"208 422 OFFCURVE",
"190 416 OFFCURVE",
"174 416 CURVE SMOOTH",
"130 416 OFFCURVE",
"86 438 OFFCURVE",
"54 471 CURVE SMOOTH",
"22 503 OFFCURVE",
"0 547 OFFCURVE",
"0 591 CURVE",
"16 607 LINE",
"34 589 OFFCURVE",
"48 575 OFFCURVE",
"57 566 CURVE SMOOTH",
"75 547 OFFCURVE",
"83 541 OFFCURVE",
"94 541 CURVE SMOOTH",
"99 541 OFFCURVE",
"108 541 OFFCURVE",
"119 541 CURVE SMOOTH",
"136 541 OFFCURVE",
"159 556 OFFCURVE",
"178 574 CURVE SMOOTH",
"197 592 OFFCURVE",
"211 614 OFFCURVE",
"211 633 CURVE SMOOTH",
"211 644 OFFCURVE",
"211 652 OFFCURVE",
"211 658 CURVE SMOOTH",
"211 669 OFFCURVE",
"204 679 OFFCURVE",
"186 697 CURVE SMOOTH",
"177 706 OFFCURVE",
"163 719 OFFCURVE",
"145 737 CURVE",
"146 738 OFFCURVE",
"148 740 OFFCURVE",
"150 742 CURVE",
"152 743 OFFCURVE",
"154 745 OFFCURVE",
"155 746 CURVE SMOOTH",
"161 752 LINE",
"205 752 OFFCURVE",
"249 731 OFFCURVE",
"282 699 CURVE SMOOTH",
"314 666 OFFCURVE",
"336 622 OFFCURVE",
"336 578 CURVE SMOOTH",
"336 562 OFFCURVE",
"330 544 OFFCURVE",
"321 527 CURVE",
"391 457 LINE"
);
},
{
closed = 1;
nodes = (
"625 144 OFFCURVE",
"608 127 OFFCURVE",
"608 104 CURVE SMOOTH",
"608 83 OFFCURVE",
"625 65 OFFCURVE",
"648 65 CURVE SMOOTH",
"669 65 OFFCURVE",
"687 83 OFFCURVE",
"687 104 CURVE SMOOTH",
"687 127 OFFCURVE",
"669 144 OFFCURVE",
"648 144 CURVE SMOOTH"
);
},
{
closed = 1;
nodes = (
"443 216 OFFCURVE",
"443 221 OFFCURVE",
"443 228 CURVE",
"532 316 LINE",
"657 191 LINE",
"741 129 LINE",
"750 95 LINE",
"657 1 LINE",
"623 10 LINE",
"560 95 LINE",
"442 213 LINE"
);
}
);
width = 750;
}
);
unicode = 0078;
},
{
glyphname = yacute;
lastChange = "2012-08-21 22:16:42 +0000";
layers = (
{
layerId = "ABA48147-5BAC-4B76-8A51-0B949BA99F04";
name = Regular;
paths = (
{
closed = 1;
nodes = (
"844 675 LINE SMOOTH",
"844 686 OFFCURVE",
"836 694 OFFCURVE",
"825 694 CURVE SMOOTH",
"750 694 LINE SMOOTH",
"739 694 OFFCURVE",
"731 686 OFFCURVE",
"731 675 CURVE SMOOTH",
"731 600 LINE SMOOTH",
"731 589 OFFCURVE",
"739 581 OFFCURVE",
"750 581 CURVE SMOOTH",
"825 581 LINE SMOOTH",
"836 581 OFFCURVE",
"844 589 OFFCURVE",
"844 600 CURVE SMOOTH"
);
},
{
closed = 1;
nodes = (
"844 500 LINE SMOOTH",
"844 511 OFFCURVE",
"836 519 OFFCURVE",
"825 519 CURVE SMOOTH",
"750 519 LINE SMOOTH",
"739 519 OFFCURVE",
"731 511 OFFCURVE",
"731 500 CURVE SMOOTH",
"731 425 LINE SMOOTH",
"731 414 OFFCURVE",
"739 406 OFFCURVE",
"750 406 CURVE SMOOTH",
"825 406 LINE SMOOTH",
"836 406 OFFCURVE",
"844 414 OFFCURVE",
"844 425 CURVE SMOOTH"
);
},
{
closed = 1;
nodes = (
"844 325 LINE SMOOTH",
"844 336 OFFCURVE",
"836 344 OFFCURVE",
"825 344 CURVE SMOOTH",
"750 344 LINE SMOOTH",
"739 344 OFFCURVE",
"731 336 OFFCURVE",
"731 325 CURVE SMOOTH",
"731 250 LINE SMOOTH",
"731 239 OFFCURVE",
"739 231 OFFCURVE",
"750 231 CURVE SMOOTH",
"825 231 LINE SMOOTH",
"836 231 OFFCURVE",
"844 239 OFFCURVE",
"844 250 CURVE SMOOTH"
);
},
{
closed = 1;
nodes = (
"844 150 LINE SMOOTH",
"844 161 OFFCURVE",
"836 169 OFFCURVE",
"825 169 CURVE SMOOTH",
"750 169 LINE SMOOTH",
"739 169 OFFCURVE",
"731 161 OFFCURVE",
"731 150 CURVE SMOOTH",
"731 75 LINE SMOOTH",
"731 64 OFFCURVE",
"739 56 OFFCURVE",
"750 56 CURVE SMOOTH",
"825 56 LINE SMOOTH",
"836 56 OFFCURVE",
"844 64 OFFCURVE",
"844 75 CURVE SMOOTH"
);
},
{
closed = 1;
nodes = (
"675 675 LINE SMOOTH",
"675 686 OFFCURVE",
"667 694 OFFCURVE",
"656 694 CURVE SMOOTH",
"244 694 LINE SMOOTH",
"233 694 OFFCURVE",
"225 686 OFFCURVE",
"225 675 CURVE SMOOTH",
"225 425 LINE SMOOTH",
"225 414 OFFCURVE",
"233 406 OFFCURVE",
"244 406 CURVE SMOOTH",
"656 406 LINE SMOOTH",
"667 406 OFFCURVE",
"675 414 OFFCURVE",
"675 425 CURVE SMOOTH"
);
},
{
closed = 1;
nodes = (
"675 325 LINE SMOOTH",
"675 336 OFFCURVE",
"667 344 OFFCURVE",
"656 344 CURVE SMOOTH",
"244 344 LINE SMOOTH",
"233 344 OFFCURVE",
"225 336 OFFCURVE",
"225 325 CURVE SMOOTH",
"225 75 LINE SMOOTH",
"225 64 OFFCURVE",
"233 56 OFFCURVE",
"244 56 CURVE SMOOTH",
"656 56 LINE SMOOTH",
"667 56 OFFCURVE",
"675 64 OFFCURVE",
"675 75 CURVE SMOOTH"
);
},
{
closed = 1;
nodes = (
"169 675 LINE SMOOTH",
"169 686 OFFCURVE",
"161 694 OFFCURVE",
"150 694 CURVE SMOOTH",
"75 694 LINE SMOOTH",
"64 694 OFFCURVE",
"56 686 OFFCURVE",
"56 675 CURVE SMOOTH",
"56 600 LINE SMOOTH",
"56 589 OFFCURVE",
"64 581 OFFCURVE",
"75 581 CURVE SMOOTH",
"150 581 LINE SMOOTH",
"161 581 OFFCURVE",
"169 589 OFFCURVE",
"169 600 CURVE SMOOTH"
);
},
{
closed = 1;
nodes = (
"169 500 LINE SMOOTH",
"169 511 OFFCURVE",
"161 519 OFFCURVE",
"150 519 CURVE SMOOTH",
"75 519 LINE SMOOTH",
"64 519 OFFCURVE",
"56 511 OFFCURVE",
"56 500 CURVE SMOOTH",
"56 425 LINE SMOOTH",
"56 414 OFFCURVE",
"64 406 OFFCURVE",
"75 406 CURVE SMOOTH",
"150 406 LINE SMOOTH",
"161 406 OFFCURVE",
"169 414 OFFCURVE",
"169 425 CURVE SMOOTH"
);
},
{
closed = 1;
nodes = (
"169 325 LINE SMOOTH",
"169 336 OFFCURVE",
"161 344 OFFCURVE",
"150 344 CURVE SMOOTH",
"75 344 LINE SMOOTH",
"64 344 OFFCURVE",
"56 336 OFFCURVE",
"56 325 CURVE SMOOTH",
"56 250 LINE SMOOTH",
"56 239 OFFCURVE",
"64 231 OFFCURVE",
"75 231 CURVE SMOOTH",
"150 231 LINE SMOOTH",
"161 231 OFFCURVE",
"169 239 OFFCURVE",
"169 250 CURVE SMOOTH"
);
},
{
closed = 1;
nodes = (
"169 150 LINE SMOOTH",
"169 161 OFFCURVE",
"161 169 OFFCURVE",
"150 169 CURVE SMOOTH",
"75 169 LINE SMOOTH",
"64 169 OFFCURVE",
"56 161 OFFCURVE",
"56 150 CURVE SMOOTH",
"56 75 LINE SMOOTH",
"56 64 OFFCURVE",
"64 56 OFFCURVE",
"75 56 CURVE SMOOTH",
"150 56 LINE SMOOTH",
"161 56 OFFCURVE",
"169 64 OFFCURVE",
"169 75 CURVE SMOOTH"
);
},
{
closed = 1;
nodes = (
"875 750 OFFCURVE",
"900 725 OFFCURVE",
"900 694 CURVE SMOOTH",
"900 56 LINE SMOOTH",
"900 25 OFFCURVE",
"875 0 OFFCURVE",
"844 0 CURVE SMOOTH",
"56 0 LINE SMOOTH",
"25 0 OFFCURVE",
"0 25 OFFCURVE",
"0 56 CURVE SMOOTH",
"0 694 LINE SMOOTH",
"0 725 OFFCURVE",
"25 750 OFFCURVE",
"56 750 CURVE SMOOTH",
"844 750 LINE SMOOTH"
);
},
{
closed = 0;
nodes = (
"86 606 LINE",
"-380 809 LINE"
);
}
);
width = 900;
}
);
unicode = 00FD;
},
{
glyphname = zcaron;
lastChange = "2012-08-21 22:33:42 +0000";
layers = (
{
layerId = "ABA48147-5BAC-4B76-8A51-0B949BA99F04";
name = Regular;
paths = (
{
closed = 1;
nodes = (
"433 469 OFFCURVE",
"438 464 OFFCURVE",
"438 453 CURVE SMOOTH",
"438 422 LINE SMOOTH",
"438 411 OFFCURVE",
"433 406 OFFCURVE",
"422 406 CURVE SMOOTH",
"203 406 LINE SMOOTH",
"195 406 OFFCURVE",
"188 413 OFFCURVE",
"188 422 CURVE SMOOTH",
"188 453 LINE SMOOTH",
"188 462 OFFCURVE",
"195 469 OFFCURVE",
"203 469 CURVE SMOOTH",
"422 469 LINE SMOOTH"
);
},
{
closed = 1;
nodes = (
"125 385 OFFCURVE",
"146 339 OFFCURVE",
"180 305 CURVE SMOOTH",
"214 271 OFFCURVE",
"261 250 OFFCURVE",
"313 250 CURVE SMOOTH",
"365 250 OFFCURVE",
"412 271 OFFCURVE",
"446 305 CURVE SMOOTH",
"480 339 OFFCURVE",
"500 385 OFFCURVE",
"500 437 CURVE SMOOTH",
"500 489 OFFCURVE",
"480 536 OFFCURVE",
"446 570 CURVE SMOOTH",
"412 604 OFFCURVE",
"365 625 OFFCURVE",
"313 625 CURVE SMOOTH",
"261 625 OFFCURVE",
"214 604 OFFCURVE",
"180 570 CURVE SMOOTH",
"146 536 OFFCURVE",
"125 489 OFFCURVE",
"125 437 CURVE SMOOTH"
);
},
{
closed = 1;
nodes = (
"747 91 OFFCURVE",
"750 84 OFFCURVE",
"750 75 CURVE SMOOTH",
"750 66 OFFCURVE",
"747 59 OFFCURVE",
"741 53 CURVE SMOOTH",
"697 9 LINE SMOOTH",
"691 3 OFFCURVE",
"684 0 OFFCURVE",
"675 0 CURVE SMOOTH",
"666 0 OFFCURVE",
"659 3 OFFCURVE",
"653 9 CURVE SMOOTH",
"485 177 LINE",
"434 144 OFFCURVE",
"377 125 OFFCURVE",
"313 125 CURVE SMOOTH",
"226 125 OFFCURVE",
"148 160 OFFCURVE",
"92 217 CURVE SMOOTH",
"35 273 OFFCURVE",
"0 350 OFFCURVE",
"0 437 CURVE SMOOTH",
"0 524 OFFCURVE",
"35 602 OFFCURVE",
"92 659 CURVE SMOOTH",
"148 715 OFFCURVE",
"226 750 OFFCURVE",
"313 750 CURVE SMOOTH",
"398 750 OFFCURVE",
"477 715 OFFCURVE",
"534 659 CURVE SMOOTH",
"590 602 OFFCURVE",
"625 524 OFFCURVE",
"625 437 CURVE SMOOTH",
"625 373 OFFCURVE",
"606 316 OFFCURVE",
"573 265 CURVE",
"741 98 LINE"
);
}
);
width = 750;
}
);
unicode = 017E;
},
{
glyphname = zero;
lastChange = "2012-08-21 22:33:42 +0000";
layers = (
{
layerId = "ABA48147-5BAC-4B76-8A51-0B949BA99F04";
name = Regular;
paths = (
{
closed = 1;
nodes = (
"893 630 OFFCURVE",
"908 617 OFFCURVE",
"897 589 CURVE",
"827 384 LINE",
"822 365 OFFCURVE",
"798 356 OFFCURVE",
"781 361 CURVE",
"575 431 LINE SMOOTH",
"547 440 OFFCURVE",
"546 459 OFFCURVE",
"573 472 CURVE SMOOTH",
"668 519 LINE",
"636 567 OFFCURVE",
"590 604 OFFCURVE",
"534 623 CURVE SMOOTH",
"466 647 OFFCURVE",
"394 639 OFFCURVE",
"334 610 CURVE SMOOTH",
"274 581 OFFCURVE",
"225 527 OFFCURVE",
"201 459 CURVE",
"198 448 OFFCURVE",
"187 444 OFFCURVE",
"178 447 CURVE SMOOTH",
"107 472 LINE",
"96 475 OFFCURVE",
"92 486 OFFCURVE",
"95 495 CURVE SMOOTH",
"128 592 OFFCURVE",
"199 668 OFFCURVE",
"285 711 CURVE SMOOTH",
"371 754 OFFCURVE",
"472 763 OFFCURVE",
"571 730 CURVE SMOOTH",
"655 701 OFFCURVE",
"722 645 OFFCURVE",
"769 569 CURVE",
"866 617 LINE SMOOTH"
);
},
{
closed = 1;
nodes = (
"804 273 OFFCURVE",
"808 265 OFFCURVE",
"805 254 CURVE",
"772 155 OFFCURVE",
"702 81 OFFCURVE",
"616 39 CURVE SMOOTH",
"530 -3 OFFCURVE",
"426 -13 OFFCURVE",
"329 20 CURVE SMOOTH",
"245 48 OFFCURVE",
"176 104 OFFCURVE",
"131 180 CURVE",
"34 133 LINE",
"7 118 OFFCURVE",
"-8 132 OFFCURVE",
"3 160 CURVE",
"73 366 LINE",
"78 383 OFFCURVE",
"102 393 OFFCURVE",
"119 388 CURVE",
"325 318 LINE SMOOTH",
"353 309 OFFCURVE",
"354 290 OFFCURVE",
"327 277 CURVE SMOOTH",
"232 230 LINE",
"264 182 OFFCURVE",
"309 145 OFFCURVE",
"365 126 CURVE SMOOTH",
"433 102 OFFCURVE",
"505 110 OFFCURVE",
"566 139 CURVE SMOOTH",
"626 168 OFFCURVE",
"675 222 OFFCURVE",
"699 290 CURVE",
"702 301 OFFCURVE",
"711 305 OFFCURVE",
"722 302 CURVE",
"793 278 LINE"
);
}
);
width = 900;
}
);
unicode = 0030;
},
{
glyphname = three;
lastChange = "2012-08-21 22:33:42 +0000";
layers = (
{
layerId = "ABA48147-5BAC-4B76-8A51-0B949BA99F04";
name = Regular;
paths = (
{
closed = 1;
nodes = (
"372 0 LINE SMOOTH",
"348 0 OFFCURVE",
"315 14 OFFCURVE",
"298 31 CURVE SMOOTH",
"12 317 LINE",
"3 325 OFFCURVE",
"-1 335 OFFCURVE",
"-1 347 CURVE SMOOTH",
"-1 359 OFFCURVE",
"3 369 OFFCURVE",
"12 378 CURVE SMOOTH",
"106 472 LINE SMOOTH",
"115 481 OFFCURVE",
"125 485 OFFCURVE",
"137 485 CURVE SMOOTH",
"149 485 OFFCURVE",
"159 481 OFFCURVE",
"167 472 CURVE",
"365 274 LINE SMOOTH",
"374 265 OFFCURVE",
"384 261 OFFCURVE",
"396 261 CURVE SMOOTH",
"408 261 OFFCURVE",
"418 265 OFFCURVE",
"426 274 CURVE",
"831 679 LINE SMOOTH",
"840 688 OFFCURVE",
"850 692 OFFCURVE",
"862 692 CURVE SMOOTH",
"874 692 OFFCURVE",
"884 688 OFFCURVE",
"892 679 CURVE",
"987 585 LINE SMOOTH",
"996 576 OFFCURVE",
"1000 566 OFFCURVE",
"1000 554 CURVE SMOOTH",
"1000 542 OFFCURVE",
"996 532 OFFCURVE",
"987 524 CURVE",
"494 31 LINE SMOOTH",
"477 14 OFFCURVE",
"444 0 OFFCURVE",
"420 0 CURVE SMOOTH"
);
}
);
width = 1000;
}
);
unicode = 0033;
},
{
glyphname = onehalf;
lastChange = "2012-08-21 22:33:42 +0000";
layers = (
{
layerId = "ABA48147-5BAC-4B76-8A51-0B949BA99F04";
name = Regular;
paths = (
{
closed = 1;
nodes = (
"275 450 OFFCURVE",
"300 425 OFFCURVE",
"331 425 CURVE SMOOTH",
"600 425 LINE",
"600 56 LINE SMOOTH",
"600 25 OFFCURVE",
"575 0 OFFCURVE",
"544 0 CURVE SMOOTH",
"56 0 LINE SMOOTH",
"25 0 OFFCURVE",
"0 25 OFFCURVE",
"0 56 CURVE SMOOTH",
"0 694 LINE SMOOTH",
"0 725 OFFCURVE",
"25 750 OFFCURVE",
"56 750 CURVE SMOOTH",
"275 750 LINE",
"275 481 LINE SMOOTH"
);
},
{
closed = 1;
nodes = (
"597 481 LINE",
"331 481 LINE",
"331 747 LINE",
"334 747 LINE",
"597 484 LINE"
);
}
);
width = 600;
}
);
unicode = 00BD;
},
{
glyphname = onequarter;
lastChange = "2012-08-21 22:33:42 +0000";
layers = (
{
layerId = "ABA48147-5BAC-4B76-8A51-0B949BA99F04";
name = Regular;
paths = (
{
closed = 1;
nodes = (
"447 113 OFFCURVE",
"513 142 OFFCURVE",
"561 190 CURVE SMOOTH",
"609 237 OFFCURVE",
"638 303 OFFCURVE",
"638 375 CURVE SMOOTH",
"638 447 OFFCURVE",
"609 513 OFFCURVE",
"561 561 CURVE SMOOTH",
"513 608 OFFCURVE",
"447 637 OFFCURVE",
"375 637 CURVE SMOOTH",
"303 637 OFFCURVE",
"237 608 OFFCURVE",
"190 561 CURVE SMOOTH",
"142 513 OFFCURVE",
"113 447 OFFCURVE",
"113 375 CURVE SMOOTH",
"113 303 OFFCURVE",
"142 237 OFFCURVE",
"190 190 CURVE SMOOTH",
"237 142 OFFCURVE",
"303 113 OFFCURVE",
"375 113 CURVE SMOOTH"
);
},
{
closed = 1;
nodes = (
"479 750 OFFCURVE",
"572 708 OFFCURVE",
"640 640 CURVE SMOOTH",
"708 572 OFFCURVE",
"750 479 OFFCURVE",
"750 375 CURVE SMOOTH",
"750 271 OFFCURVE",
"708 178 OFFCURVE",
"640 110 CURVE SMOOTH",
"572 42 OFFCURVE",
"479 0 OFFCURVE",
"375 0 CURVE SMOOTH",
"271 0 OFFCURVE",
"178 42 OFFCURVE",
"110 110 CURVE SMOOTH",
"42 178 OFFCURVE",
"0 271 OFFCURVE",
"0 375 CURVE SMOOTH",
"0 479 OFFCURVE",
"42 572 OFFCURVE",
"110 640 CURVE SMOOTH",
"178 708 OFFCURVE",
"271 750 OFFCURVE",
"375 750 CURVE SMOOTH"
);
},
{
closed = 1;
nodes = (
"547 282 LINE",
"551 279 OFFCURVE",
"553 274 OFFCURVE",
"553 269 CURVE SMOOTH",
"553 264 OFFCURVE",
"551 259 OFFCURVE",
"547 256 CURVE",
"494 203 LINE",
"491 199 OFFCURVE",
"486 197 OFFCURVE",
"481 197 CURVE SMOOTH",
"476 197 OFFCURVE",
"471 199 OFFCURVE",
"468 203 CURVE",
"319 352 LINE",
"319 563 LINE SMOOTH",
"319 574 OFFCURVE",
"327 581 OFFCURVE",
"338 581 CURVE SMOOTH",
"413 581 LINE SMOOTH",
"424 581 OFFCURVE",
"431 574 OFFCURVE",
"431 563 CURVE SMOOTH",
"431 398 LINE"
);
}
);
width = 750;
}
);
unicode = 00BC;
},
{
glyphname = threequarters;
lastChange = "2012-08-21 22:33:42 +0000";
layers = (
{
layerId = "ABA48147-5BAC-4B76-8A51-0B949BA99F04";
name = Regular;
paths = (
{
closed = 1;
nodes = (
"177 442 LINE SMOOTH",
"162 457 OFFCURVE",
"167 469 OFFCURVE",
"188 469 CURVE SMOOTH",
"338 469 LINE",
"338 713 LINE SMOOTH",
"338 733 OFFCURVE",
"354 750 OFFCURVE",
"375 750 CURVE SMOOTH",
"525 750 LINE SMOOTH",
"546 750 OFFCURVE",
"563 733 OFFCURVE",
"563 713 CURVE SMOOTH",
"563 469 LINE",
"713 469 LINE SMOOTH",
"733 469 OFFCURVE",
"738 457 OFFCURVE",
"723 442 CURVE SMOOTH",
"477 195 LINE SMOOTH",
"470 188 OFFCURVE",
"461 184 OFFCURVE",
"450 184 CURVE SMOOTH",
"439 184 OFFCURVE",
"430 188 OFFCURVE",
"423 195 CURVE SMOOTH"
);
},
{
closed = 1;
nodes = (
"892 338 OFFCURVE",
"900 330 OFFCURVE",
"900 319 CURVE SMOOTH",
"900 19 LINE SMOOTH",
"900 6 OFFCURVE",
"894 0 OFFCURVE",
"881 0 CURVE SMOOTH",
"19 0 LINE SMOOTH",
"6 0 OFFCURVE",
"0 6 OFFCURVE",
"0 19 CURVE SMOOTH",
"0 319 LINE SMOOTH",
"0 330 OFFCURVE",
"8 338 OFFCURVE",
"19 338 CURVE SMOOTH",
"131 338 LINE SMOOTH",
"142 338 OFFCURVE",
"150 330 OFFCURVE",
"150 319 CURVE SMOOTH",
"150 150 LINE",
"750 150 LINE",
"750 319 LINE SMOOTH",
"750 330 OFFCURVE",
"758 338 OFFCURVE",
"769 338 CURVE SMOOTH",
"881 338 LINE SMOOTH"
);
}
);
width = 900;
}
);
unicode = 00BE;
},
{
glyphname = onesuperior;
lastChange = "2012-08-21 22:33:42 +0000";
layers = (
{
layerId = "ABA48147-5BAC-4B76-8A51-0B949BA99F04";
name = Regular;
paths = (
{
closed = 1;
nodes = (
"491 263 OFFCURVE",
"498 270 OFFCURVE",
"497 281 CURVE",
"496 300 OFFCURVE",
"496 317 OFFCURVE",
"496 332 CURVE",
"495 347 OFFCURVE",
"495 361 OFFCURVE",
"494 375 CURVE",
"493 403 OFFCURVE",
"491 432 OFFCURVE",
"490 469 CURVE",
"490 480 OFFCURVE",
"483 487 OFFCURVE",
"476 487 CURVE SMOOTH",
"471 487 LINE",
"429 487 LINE",
"424 487 LINE SMOOTH",
"417 487 OFFCURVE",
"410 480 OFFCURVE",
"410 469 CURVE SMOOTH",
"409 432 OFFCURVE",
"407 403 OFFCURVE",
"406 375 CURVE",
"405 361 OFFCURVE",
"405 347 OFFCURVE",
"405 332 CURVE",
"404 317 OFFCURVE",
"404 300 OFFCURVE",
"403 281 CURVE",
"402 270 OFFCURVE",
"409 263 OFFCURVE",
"418 263 CURVE SMOOTH",
"430 263 LINE",
"470 263 LINE",
"482 263 LINE SMOOTH"
);
},
{
closed = 1;
nodes = (
"906 25 OFFCURVE",
"887 0 OFFCURVE",
"856 0 CURVE SMOOTH",
"508 0 LINE",
"508 3 OFFCURVE",
"508 6 OFFCURVE",
"508 9 CURVE SMOOTH",
"508 12 OFFCURVE",
"508 15 OFFCURVE",
"507 19 CURVE",
"506 34 OFFCURVE",
"506 46 OFFCURVE",
"506 55 CURVE SMOOTH",
"506 64 OFFCURVE",
"506 76 OFFCURVE",
"505 91 CURVE",
"504 99 OFFCURVE",
"504 106 OFFCURVE",
"504 111 CURVE SMOOTH",
"504 122 OFFCURVE",
"505 137 OFFCURVE",
"498 145 CURVE",
"494 148 OFFCURVE",
"490 150 OFFCURVE",
"485 150 CURVE SMOOTH",
"472 150 LINE",
"428 150 LINE",
"415 150 LINE SMOOTH",
"406 150 OFFCURVE",
"397 142 OFFCURVE",
"397 131 CURVE",
"396 123 OFFCURVE",
"396 116 OFFCURVE",
"396 111 CURVE SMOOTH",
"396 106 OFFCURVE",
"396 99 OFFCURVE",
"395 91 CURVE",
"394 76 OFFCURVE",
"394 64 OFFCURVE",
"394 55 CURVE SMOOTH",
"394 46 OFFCURVE",
"394 34 OFFCURVE",
"393 19 CURVE",
"392 15 OFFCURVE",
"392 12 OFFCURVE",
"392 9 CURVE SMOOTH",
"392 6 OFFCURVE",
"392 3 OFFCURVE",
"392 0 CURVE",
"44 0 LINE SMOOTH",
"13 0 OFFCURVE",
"-6 25 OFFCURVE",
"2 56 CURVE SMOOTH",
"19 120 OFFCURVE",
"35 177 OFFCURVE",
"49 228 CURVE SMOOTH",
"63 278 OFFCURVE",
"77 327 OFFCURVE",
"90 375 CURVE SMOOTH",
"103 423 OFFCURVE",
"116 472 OFFCURVE",
"130 523 CURVE SMOOTH",
"143 573 OFFCURVE",
"159 630 OFFCURVE",
"176 694 CURVE SMOOTH",
"185 725 OFFCURVE",
"205 750 OFFCURVE",
"224 750 CURVE SMOOTH",
"420 750 LINE",
"420 731 LINE",
"419 717 OFFCURVE",
"419 705 OFFCURVE",
"419 696 CURVE",
"418 686 OFFCURVE",
"418 674 OFFCURVE",
"417 660 CURVE",
"416 651 OFFCURVE",
"416 644 OFFCURVE",
"416 639 CURVE SMOOTH",
"416 634 OFFCURVE",
"416 627 OFFCURVE",
"415 619 CURVE",
"415 606 OFFCURVE",
"419 600 OFFCURVE",
"427 600 CURVE SMOOTH",
"450 600 LINE",
"473 600 LINE SMOOTH",
"481 600 OFFCURVE",
"485 606 OFFCURVE",
"485 619 CURVE",
"484 627 OFFCURVE",
"484 634 OFFCURVE",
"484 639 CURVE SMOOTH",
"484 644 OFFCURVE",
"484 651 OFFCURVE",
"483 660 CURVE",
"482 674 OFFCURVE",
"482 686 OFFCURVE",
"482 696 CURVE",
"481 705 OFFCURVE",
"481 717 OFFCURVE",
"480 731 CURVE",
"480 750 LINE",
"676 750 LINE SMOOTH",
"695 750 OFFCURVE",
"715 725 OFFCURVE",
"724 694 CURVE SMOOTH",
"741 630 OFFCURVE",
"757 573 OFFCURVE",
"771 523 CURVE SMOOTH",
"784 472 OFFCURVE",
"798 423 OFFCURVE",
"811 375 CURVE SMOOTH",
"824 327 OFFCURVE",
"837 278 OFFCURVE",
"851 228 CURVE SMOOTH",
"865 177 OFFCURVE",
"881 120 OFFCURVE",
"898 56 CURVE SMOOTH"
);
}
);
width = 900;
}
);
unicode = 00B9;
},
{
glyphname = twosuperior;
lastChange = "2012-08-21 22:33:42 +0000";
layers = (
{
layerId = "ABA48147-5BAC-4B76-8A51-0B949BA99F04";
name = Regular;
paths = (
{
closed = 1;
nodes = (
"230 391 LINE SMOOTH",
"203 391 OFFCURVE",
"197 406 OFFCURVE",
"216 425 CURVE SMOOTH",
"352 561 LINE",
"359 567 OFFCURVE",
"366 570 OFFCURVE",
"375 570 CURVE SMOOTH",
"383 570 OFFCURVE",
"391 567 OFFCURVE",
"398 561 CURVE",
"534 425 LINE SMOOTH",
"553 406 OFFCURVE",
"547 391 OFFCURVE",
"520 391 CURVE SMOOTH",
"441 391 LINE",
"441 206 LINE SMOOTH",
"441 195 OFFCURVE",
"433 187 OFFCURVE",
"422 187 CURVE SMOOTH",
"328 187 LINE SMOOTH",
"317 187 OFFCURVE",
"309 195 OFFCURVE",
"309 206 CURVE SMOOTH",
"309 391 LINE"
);
},
{
closed = 1;
nodes = (
"303 637 OFFCURVE",
"237 608 OFFCURVE",
"190 561 CURVE SMOOTH",
"142 513 OFFCURVE",
"113 447 OFFCURVE",
"113 375 CURVE SMOOTH",
"113 303 OFFCURVE",
"142 237 OFFCURVE",
"190 190 CURVE SMOOTH",
"237 142 OFFCURVE",
"303 113 OFFCURVE",
"375 113 CURVE SMOOTH",
"447 113 OFFCURVE",
"513 142 OFFCURVE",
"561 190 CURVE SMOOTH",
"609 237 OFFCURVE",
"638 303 OFFCURVE",
"638 375 CURVE SMOOTH",
"638 447 OFFCURVE",
"609 513 OFFCURVE",
"561 561 CURVE SMOOTH",
"513 608 OFFCURVE",
"447 637 OFFCURVE",
"375 637 CURVE SMOOTH"
);
},
{
closed = 1;
nodes = (
"271 0 OFFCURVE",
"178 42 OFFCURVE",
"110 110 CURVE SMOOTH",
"42 178 OFFCURVE",
"0 271 OFFCURVE",
"0 375 CURVE SMOOTH",
"0 479 OFFCURVE",
"42 572 OFFCURVE",
"110 640 CURVE SMOOTH",
"178 708 OFFCURVE",
"271 750 OFFCURVE",
"375 750 CURVE SMOOTH",
"479 750 OFFCURVE",
"572 708 OFFCURVE",
"640 640 CURVE SMOOTH",
"708 572 OFFCURVE",
"750 479 OFFCURVE",
"750 375 CURVE SMOOTH",
"750 271 OFFCURVE",
"708 178 OFFCURVE",
"640 110 CURVE SMOOTH",
"572 42 OFFCURVE",
"479 0 OFFCURVE",
"375 0 CURVE SMOOTH"
);
}
);
width = 750;
}
);
unicode = 00B2;
},
{
glyphname = threesuperior;
lastChange = "2012-08-21 22:33:42 +0000";
layers = (
{
layerId = "ABA48147-5BAC-4B76-8A51-0B949BA99F04";
name = Regular;
paths = (
{
closed = 1;
nodes = (
"520 359 LINE SMOOTH",
"547 359 OFFCURVE",
"553 344 OFFCURVE",
"534 325 CURVE SMOOTH",
"398 189 LINE SMOOTH",
"392 183 OFFCURVE",
"384 180 OFFCURVE",
"375 180 CURVE SMOOTH",
"366 180 OFFCURVE",
"359 183 OFFCURVE",
"352 189 CURVE",
"216 325 LINE SMOOTH",
"197 344 OFFCURVE",
"203 359 OFFCURVE",
"230 359 CURVE SMOOTH",
"309 359 LINE",
"309 544 LINE SMOOTH",
"309 555 OFFCURVE",
"317 563 OFFCURVE",
"328 563 CURVE SMOOTH",
"422 563 LINE SMOOTH",
"433 563 OFFCURVE",
"441 555 OFFCURVE",
"441 544 CURVE SMOOTH",
"441 359 LINE"
);
},
{
closed = 1;
nodes = (
"447 113 OFFCURVE",
"513 142 OFFCURVE",
"561 190 CURVE SMOOTH",
"609 237 OFFCURVE",
"638 303 OFFCURVE",
"638 375 CURVE SMOOTH",
"638 447 OFFCURVE",
"609 513 OFFCURVE",
"561 561 CURVE SMOOTH",
"513 608 OFFCURVE",
"447 637 OFFCURVE",
"375 637 CURVE SMOOTH",
"303 637 OFFCURVE",
"237 608 OFFCURVE",
"190 561 CURVE SMOOTH",
"142 513 OFFCURVE",
"113 447 OFFCURVE",
"113 375 CURVE SMOOTH",
"113 303 OFFCURVE",
"142 237 OFFCURVE",
"190 190 CURVE SMOOTH",
"237 142 OFFCURVE",
"303 113 OFFCURVE",
"375 113 CURVE SMOOTH"
);
},
{
closed = 1;
nodes = (
"479 750 OFFCURVE",
"572 708 OFFCURVE",
"640 640 CURVE SMOOTH",
"708 572 OFFCURVE",
"750 479 OFFCURVE",
"750 375 CURVE SMOOTH",
"750 271 OFFCURVE",
"708 178 OFFCURVE",
"640 110 CURVE SMOOTH",
"572 42 OFFCURVE",
"479 0 OFFCURVE",
"375 0 CURVE SMOOTH",
"271 0 OFFCURVE",
"178 42 OFFCURVE",
"110 110 CURVE SMOOTH",
"42 178 OFFCURVE",
"0 271 OFFCURVE",
"0 375 CURVE SMOOTH",
"0 479 OFFCURVE",
"42 572 OFFCURVE",
"110 640 CURVE SMOOTH",
"178 708 OFFCURVE",
"271 750 OFFCURVE",
"375 750 CURVE SMOOTH"
);
}
);
width = 750;
}
);
unicode = 00B3;
},
{
glyphname = asterisk;
lastChange = "2012-08-21 22:33:42 +0000";
layers = (
{
layerId = "ABA48147-5BAC-4B76-8A51-0B949BA99F04";
name = Regular;
paths = (
{
closed = 1;
nodes = (
"737 158 LINE SMOOTH",
"746 149 OFFCURVE",
"750 138 OFFCURVE",
"750 126 CURVE SMOOTH",
"750 113 OFFCURVE",
"746 102 OFFCURVE",
"737 93 CURVE SMOOTH",
"656 13 LINE SMOOTH",
"647 4 OFFCURVE",
"637 -1 OFFCURVE",
"625 -1 CURVE SMOOTH",
"612 -1 OFFCURVE",
"601 4 OFFCURVE",
"592 13 CURVE SMOOTH",
"375 230 LINE",
"158 13 LINE SMOOTH",
"149 4 OFFCURVE",
"138 -1 OFFCURVE",
"126 -1 CURVE SMOOTH",
"113 -1 OFFCURVE",
"103 4 OFFCURVE",
"94 13 CURVE SMOOTH",
"13 93 LINE SMOOTH",
"4 102 OFFCURVE",
"0 113 OFFCURVE",
"0 126 CURVE SMOOTH",
"0 138 OFFCURVE",
"4 149 OFFCURVE",
"13 158 CURVE SMOOTH",
"230 375 LINE",
"13 592 LINE SMOOTH",
"4 601 OFFCURVE",
"0 611 OFFCURVE",
"0 624 CURVE SMOOTH",
"0 636 OFFCURVE",
"4 647 OFFCURVE",
"13 656 CURVE SMOOTH",
"94 736 LINE SMOOTH",
"103 745 OFFCURVE",
"113 750 OFFCURVE",
"126 750 CURVE SMOOTH",
"138 750 OFFCURVE",
"149 745 OFFCURVE",
"158 736 CURVE SMOOTH",
"375 519 LINE",
"592 736 LINE SMOOTH",
"601 745 OFFCURVE",
"612 750 OFFCURVE",
"625 750 CURVE SMOOTH",
"637 750 OFFCURVE",
"647 745 OFFCURVE",
"656 736 CURVE SMOOTH",
"737 656 LINE SMOOTH",
"746 647 OFFCURVE",
"750 636 OFFCURVE",
"750 624 CURVE SMOOTH",
"750 611 OFFCURVE",
"746 601 OFFCURVE",
"737 592 CURVE SMOOTH",
"520 375 LINE"
);
}
);
width = 750;
}
);
unicode = 002A;
},
{
glyphname = backslash;
lastChange = "2012-08-21 22:33:42 +0000";
layers = (
{
layerId = "ABA48147-5BAC-4B76-8A51-0B949BA99F04";
name = Regular;
paths = (
{
closed = 1;
nodes = (
"409 145 LINE",
"596 145 LINE",
"596 190 LINE",
"530 190 LINE",
"530 451 LINE",
"481 451 LINE",
"405 377 LINE",
"437 343 LINE",
"462 366 LINE",
"466 370 OFFCURVE",
"469 374 OFFCURVE",
"472 378 CURVE",
"475 383 LINE",
"476 383 LINE",
"476 377 LINE",
"476 363 LINE",
"476 190 LINE",
"409 190 LINE"
);
},
{
closed = 1;
nodes = (
"164 369 LINE",
"213 369 LINE",
"213 406 LINE",
"280 406 LINE SMOOTH",
"285 406 OFFCURVE",
"289 406 OFFCURVE",
"291 407 CURVE",
"297 407 LINE",
"297 406 LINE",
"293 402 LINE",
"291 401 OFFCURVE",
"288 398 OFFCURVE",
"284 394 CURVE",
"218 312 LINE",
"230 285 LINE",
"232 285 OFFCURVE",
"235 285 OFFCURVE",
"238 286 CURVE",
"241 286 OFFCURVE",
"244 286 OFFCURVE",
"247 286 CURVE SMOOTH",
"282 286 OFFCURVE",
"307 269 OFFCURVE",
"307 238 CURVE SMOOTH",
"307 210 OFFCURVE",
"284 189 OFFCURVE",
"252 189 CURVE SMOOTH",
"232 189 OFFCURVE",
"214 196 OFFCURVE",
"201 205 CURVE",
"193 210 OFFCURVE",
"186 215 OFFCURVE",
"181 220 CURVE",
"154 180 LINE",
"169 165 OFFCURVE",
"187 154 OFFCURVE",
"212 146 CURVE",
"224 141 OFFCURVE",
"238 139 OFFCURVE",
"255 139 CURVE SMOOTH",
"291 139 OFFCURVE",
"317 151 OFFCURVE",
"336 170 CURVE SMOOTH",
"355 189 OFFCURVE",
"364 213 OFFCURVE",
"364 240 CURVE SMOOTH",
"364 293 OFFCURVE",
"325 321 OFFCURVE",
"285 326 CURVE",
"358 412 LINE",
"358 451 LINE",
"164 451 LINE"
);
},
{
closed = 1;
nodes = (
"620 688 LINE SMOOTH",
"620 708 OFFCURVE",
"611 715 OFFCURVE",
"584 715 CURVE SMOOTH",
"557 715 OFFCURVE",
"548 708 OFFCURVE",
"548 688 CURVE SMOOTH",
"548 580 LINE SMOOTH",
"548 560 OFFCURVE",
"557 552 OFFCURVE",
"584 552 CURVE SMOOTH",
"611 552 OFFCURVE",
"620 560 OFFCURVE",
"620 580 CURVE SMOOTH"
);
},
{
closed = 1;
nodes = (
"412 688 LINE SMOOTH",
"412 708 OFFCURVE",
"402 715 OFFCURVE",
"375 715 CURVE SMOOTH",
"350 715 OFFCURVE",
"339 708 OFFCURVE",
"339 688 CURVE SMOOTH",
"339 580 LINE SMOOTH",
"339 561 OFFCURVE",
"351 552 OFFCURVE",
"375 552 CURVE SMOOTH",
"400 552 OFFCURVE",
"412 561 OFFCURVE",
"412 580 CURVE SMOOTH"
);
},
{
closed = 1;
nodes = (
"203 688 LINE SMOOTH",
"203 708 OFFCURVE",
"194 715 OFFCURVE",
"167 715 CURVE SMOOTH",
"140 715 OFFCURVE",
"131 708 OFFCURVE",
"131 688 CURVE SMOOTH",
"131 580 LINE SMOOTH",
"131 560 OFFCURVE",
"140 552 OFFCURVE",
"167 552 CURVE SMOOTH",
"194 552 OFFCURVE",
"203 560 OFFCURVE",
"203 580 CURVE SMOOTH"
);
},
{
closed = 1;
nodes = (
"733 648 OFFCURVE",
"750 631 OFFCURVE",
"750 610 CURVE SMOOTH",
"750 39 LINE SMOOTH",
"750 18 OFFCURVE",
"733 1 OFFCURVE",
"713 1 CURVE SMOOTH",
"38 1 LINE SMOOTH",
"17 1 OFFCURVE",
"0 18 OFFCURVE",
"0 39 CURVE SMOOTH",
"0 610 LINE SMOOTH",
"0 631 OFFCURVE",
"17 648 OFFCURVE",
"38 648 CURVE SMOOTH",
"89 648 LINE",
"89 688 LINE SMOOTH",
"89 728 OFFCURVE",
"118 751 OFFCURVE",
"167 751 CURVE SMOOTH",
"216 751 OFFCURVE",
"245 728 OFFCURVE",
"245 688 CURVE SMOOTH",
"245 648 LINE",
"298 648 LINE",
"298 688 LINE SMOOTH",
"298 728 OFFCURVE",
"327 751 OFFCURVE",
"375 751 CURVE SMOOTH",
"424 751 OFFCURVE",
"453 728 OFFCURVE",
"453 688 CURVE SMOOTH",
"453 648 LINE",
"506 648 LINE",
"506 688 LINE SMOOTH",
"506 728 OFFCURVE",
"535 751 OFFCURVE",
"584 751 CURVE SMOOTH",
"633 751 OFFCURVE",
"662 728 OFFCURVE",
"662 688 CURVE SMOOTH",
"662 648 LINE",
"713 648 LINE SMOOTH"
);
}
);
width = 750;
}
);
unicode = 005C;
},
{
glyphname = numbersign;
lastChange = "2012-08-21 22:33:42 +0000";
layers = (
{
layerId = "ABA48147-5BAC-4B76-8A51-0B949BA99F04";
name = Regular;
paths = (
{
closed = 1;
nodes = (
"437 98 LINE SMOOTH",
"437 87 OFFCURVE",
"438 82 OFFCURVE",
"440 82 CURVE SMOOTH",
"450 82 LINE SMOOTH",
"453 82 OFFCURVE",
"469 83 OFFCURVE",
"474 84 CURVE",
"481 84 OFFCURVE",
"485 92 OFFCURVE",
"485 101 CURVE",
"486 114 OFFCURVE",
"487 125 OFFCURVE",
"487 132 CURVE SMOOTH",
"487 143 LINE",
"488 150 OFFCURVE",
"488 156 OFFCURVE",
"488 163 CURVE",
"487 169 OFFCURVE",
"487 175 OFFCURVE",
"488 181 CURVE",
"489 203 OFFCURVE",
"491 225 OFFCURVE",
"492 248 CURVE SMOOTH",
"493 270 OFFCURVE",
"494 293 OFFCURVE",
"495 316 CURVE",
"495 321 OFFCURVE",
"495 327 OFFCURVE",
"496 334 CURVE",
"496 346 OFFCURVE",
"497 362 OFFCURVE",
"498 382 CURVE",
"498 392 OFFCURVE",
"493 397 OFFCURVE",
"482 397 CURVE",
"454 396 LINE",
"445 395 OFFCURVE",
"437 388 OFFCURVE",
"437 379 CURVE SMOOTH"
);
},
{
closed = 1;
nodes = (
"356 378 LINE SMOOTH",
"356 389 OFFCURVE",
"354 394 OFFCURVE",
"349 394 CURVE SMOOTH",
"343 394 LINE",
"310 394 LINE",
"303 394 LINE SMOOTH",
"299 394 OFFCURVE",
"297 389 OFFCURVE",
"297 378 CURVE",
"296 378 LINE",
"296 98 LINE SMOOTH",
"296 89 OFFCURVE",
"304 82 OFFCURVE",
"313 82 CURVE SMOOTH",
"339 82 LINE",
"340 82 LINE SMOOTH",
"351 82 OFFCURVE",
"356 87 OFFCURVE",
"356 98 CURVE SMOOTH"
);
},
{
closed = 1;
nodes = (
"215 379 LINE SMOOTH",
"215 389 OFFCURVE",
"210 395 OFFCURVE",
"199 396 CURVE",
"170 397 LINE SMOOTH",
"159 397 OFFCURVE",
"154 392 OFFCURVE",
"154 382 CURVE",
"155 372 OFFCURVE",
"155 363 OFFCURVE",
"155 355 CURVE SMOOTH",
"155 339 OFFCURVE",
"156 325 OFFCURVE",
"157 316 CURVE",
"158 293 OFFCURVE",
"160 270 OFFCURVE",
"161 248 CURVE SMOOTH",
"162 225 OFFCURVE",
"163 203 OFFCURVE",
"164 181 CURVE",
"165 175 OFFCURVE",
"165 169 OFFCURVE",
"165 163 CURVE SMOOTH",
"165 156 OFFCURVE",
"165 150 OFFCURVE",
"165 143 CURVE",
"166 140 OFFCURVE",
"166 136 OFFCURVE",
"166 132 CURVE SMOOTH",
"166 129 OFFCURVE",
"166 124 OFFCURVE",
"166 119 CURVE SMOOTH",
"166 108 OFFCURVE",
"166 96 OFFCURVE",
"175 89 CURVE SMOOTH",
"180 85 OFFCURVE",
"183 83 OFFCURVE",
"186 83 CURVE SMOOTH",
"189 83 OFFCURVE",
"192 83 OFFCURVE",
"195 83 CURVE",
"198 82 OFFCURVE",
"201 82 OFFCURVE",
"203 82 CURVE SMOOTH",
"212 82 LINE SMOOTH",
"214 82 OFFCURVE",
"215 87 OFFCURVE",
"215 98 CURVE SMOOTH"
);
},
{
closed = 1;
nodes = (
"351 475 OFFCURVE",
"365 475 OFFCURVE",
"380 476 CURVE",
"394 476 OFFCURVE",
"408 476 OFFCURVE",
"423 476 CURVE",
"445 477 OFFCURVE",
"471 479 OFFCURVE",
"500 480 CURVE SMOOTH",
"529 481 OFFCURVE",
"558 484 OFFCURVE",
"585 487 CURVE",
"582 436 OFFCURVE",
"579 384 OFFCURVE",
"577 332 CURVE SMOOTH",
"575 279 OFFCURVE",
"572 227 OFFCURVE",
"569 176 CURVE SMOOTH",
"568 163 OFFCURVE",
"568 149 OFFCURVE",
"568 134 CURVE SMOOTH",
"568 102 OFFCURVE",
"567 71 OFFCURVE",
"560 47 CURVE SMOOTH",
"553 22 OFFCURVE",
"543 8 OFFCURVE",
"504 4 CURVE",
"484 1 OFFCURVE",
"464 0 OFFCURVE",
"445 0 CURVE SMOOTH",
"207 0 LINE SMOOTH",
"170 0 OFFCURVE",
"123 3 OFFCURVE",
"107 19 CURVE SMOOTH",
"94 32 OFFCURVE",
"89 59 OFFCURVE",
"86 88 CURVE",
"85 103 OFFCURVE",
"84 118 OFFCURVE",
"84 134 CURVE SMOOTH",
"84 149 OFFCURVE",
"84 163 OFFCURVE",
"83 176 CURVE SMOOTH",
"80 227 OFFCURVE",
"77 279 OFFCURVE",
"75 332 CURVE SMOOTH",
"73 384 OFFCURVE",
"70 436 OFFCURVE",
"67 487 CURVE",
"94 484 OFFCURVE",
"123 481 OFFCURVE",
"152 480 CURVE SMOOTH",
"181 479 OFFCURVE",
"207 477 OFFCURVE",
"229 476 CURVE",
"244 476 OFFCURVE",
"259 476 OFFCURVE",
"274 476 CURVE",
"288 475 OFFCURVE",
"302 475 OFFCURVE",
"316 475 CURVE SMOOTH",
"326 475 LINE",
"336 475 LINE SMOOTH"
);
},
{
closed = 1;
nodes = (
"400 660 OFFCURVE",
"402 670 OFFCURVE",
"399 677 CURVE",
"384 681 OFFCURVE",
"353 685 OFFCURVE",
"326 685 CURVE SMOOTH",
"299 685 OFFCURVE",
"268 681 OFFCURVE",
"253 677 CURVE",
"252 670 OFFCURVE",
"253 660 OFFCURVE",
"254 647 CURVE",
"316 647 LINE",
"326 647 LINE",
"336 647 LINE",
"399 647 LINE"
);
},
{
closed = 1;
nodes = (
"652 586 LINE",
"652 552 LINE",
"631 540 OFFCURVE",
"575 534 OFFCURVE",
"524 530 CURVE SMOOTH",
"498 528 OFFCURVE",
"475 527 OFFCURVE",
"455 526 CURVE SMOOTH",
"434 525 OFFCURVE",
"423 525 OFFCURVE",
"422 525 CURVE SMOOTH",
"407 525 OFFCURVE",
"393 525 OFFCURVE",
"379 525 CURVE",
"364 524 OFFCURVE",
"350 524 OFFCURVE",
"336 524 CURVE SMOOTH",
"326 524 LINE",
"316 524 LINE SMOOTH",
"302 524 OFFCURVE",
"288 524 OFFCURVE",
"274 525 CURVE",
"260 525 OFFCURVE",
"246 525 OFFCURVE",
"231 525 CURVE SMOOTH",
"230 525 LINE SMOOTH",
"229 525 OFFCURVE",
"224 525 OFFCURVE",
"215 526 CURVE",
"195 526 OFFCURVE",
"165 527 OFFCURVE",
"130 530 CURVE SMOOTH",
"94 533 OFFCURVE",
"60 537 OFFCURVE",
"32 542 CURVE SMOOTH",
"18 545 OFFCURVE",
"8 548 OFFCURVE",
"1 552 CURVE",
"1 559 OFFCURVE",
"1 565 OFFCURVE",
"1 570 CURVE",
"0 575 OFFCURVE",
"0 581 OFFCURVE",
"0 586 CURVE SMOOTH",
"0 591 OFFCURVE",
"0 597 OFFCURVE",
"1 602 CURVE",
"1 607 OFFCURVE",
"1 613 OFFCURVE",
"1 619 CURVE",
"16 627 OFFCURVE",
"48 633 OFFCURVE",
"84 637 CURVE SMOOTH",
"120 641 OFFCURVE",
"160 644 OFFCURVE",
"188 645 CURVE",
"185 665 OFFCURVE",
"186 685 OFFCURVE",
"194 708 CURVE SMOOTH",
"195 711 OFFCURVE",
"197 714 OFFCURVE",
"200 719 CURVE SMOOTH",
"203 724 OFFCURVE",
"209 728 OFFCURVE",
"218 733 CURVE",
"236 742 OFFCURVE",
"267 750 OFFCURVE",
"326 750 CURVE SMOOTH",
"385 750 OFFCURVE",
"417 742 OFFCURVE",
"435 733 CURVE",
"444 728 OFFCURVE",
"450 724 OFFCURVE",
"453 719 CURVE SMOOTH",
"456 714 OFFCURVE",
"457 711 OFFCURVE",
"458 708 CURVE SMOOTH",
"466 685 OFFCURVE",
"467 665 OFFCURVE",
"464 645 CURVE",
"493 644 OFFCURVE",
"532 641 OFFCURVE",
"568 637 CURVE SMOOTH",
"604 633 OFFCURVE",
"637 627 OFFCURVE",
"652 619 CURVE"
);
}
);
width = 652;
}
);
unicode = 0023;
},
{
glyphname = question;
lastChange = "2012-08-21 22:33:42 +0000";
layers = (
{
layerId = "ABA48147-5BAC-4B76-8A51-0B949BA99F04";
name = Regular;
paths = (
{
closed = 1;
nodes = (
"477 357 OFFCURVE",
"494 372 OFFCURVE",
"507 392 CURVE",
"519 412 OFFCURVE",
"529 435 OFFCURVE",
"529 467 CURVE SMOOTH",
"529 510 OFFCURVE",
"510 544 OFFCURVE",
"482 566 CURVE SMOOTH",
"453 588 OFFCURVE",
"415 599 OFFCURVE",
"379 599 CURVE SMOOTH",
"339 599 OFFCURVE",
"308 587 OFFCURVE",
"286 575 CURVE SMOOTH",
"275 569 OFFCURVE",
"266 563 OFFCURVE",
"261 558 CURVE",
"249 547 OFFCURVE",
"239 543 OFFCURVE",
"250 531 CURVE",
"294 476 LINE",
"302 471 OFFCURVE",
"309 470 OFFCURVE",
"314 475 CURVE",
"325 483 OFFCURVE",
"337 489 OFFCURVE",
"351 494 CURVE",
"358 496 OFFCURVE",
"365 497 OFFCURVE",
"372 497 CURVE SMOOTH",
"399 497 OFFCURVE",
"418 481 OFFCURVE",
"418 460 CURVE SMOOTH",
"418 437 OFFCURVE",
"401 421 OFFCURVE",
"378 401 CURVE",
"363 389 OFFCURVE",
"348 376 OFFCURVE",
"336 358 CURVE SMOOTH",
"324 340 OFFCURVE",
"315 318 OFFCURVE",
"315 290 CURVE SMOOTH",
"315 260 LINE SMOOTH",
"315 253 OFFCURVE",
"322 246 OFFCURVE",
"329 246 CURVE SMOOTH",
"406 246 LINE SMOOTH",
"414 246 OFFCURVE",
"420 253 OFFCURVE",
"420 260 CURVE SMOOTH",
"420 285 LINE SMOOTH",
"420 309 OFFCURVE",
"438 324 OFFCURVE",
"461 344 CURVE SMOOTH"
);
},
{
closed = 1;
nodes = (
"420 206 LINE SMOOTH",
"420 215 OFFCURVE",
"415 220 OFFCURVE",
"406 220 CURVE SMOOTH",
"329 220 LINE SMOOTH",
"322 220 OFFCURVE",
"315 214 OFFCURVE",
"315 206 CURVE SMOOTH",
"315 132 LINE SMOOTH",
"315 125 OFFCURVE",
"322 118 OFFCURVE",
"329 118 CURVE SMOOTH",
"406 118 LINE SMOOTH",
"414 118 OFFCURVE",
"420 125 OFFCURVE",
"420 132 CURVE SMOOTH"
);
},
{
closed = 1;
nodes = (
"479 750 OFFCURVE",
"572 708 OFFCURVE",
"640 640 CURVE SMOOTH",
"708 572 OFFCURVE",
"750 479 OFFCURVE",
"750 375 CURVE SMOOTH",
"750 271 OFFCURVE",
"708 178 OFFCURVE",
"640 110 CURVE SMOOTH",
"572 42 OFFCURVE",
"479 0 OFFCURVE",
"375 0 CURVE SMOOTH",
"271 0 OFFCURVE",
"178 42 OFFCURVE",
"110 110 CURVE SMOOTH",
"42 178 OFFCURVE",
"0 271 OFFCURVE",
"0 375 CURVE SMOOTH",
"0 479 OFFCURVE",
"42 572 OFFCURVE",
"110 640 CURVE SMOOTH",
"178 708 OFFCURVE",
"271 750 OFFCURVE",
"375 750 CURVE SMOOTH"
);
}
);
width = 750;
}
);
unicode = 003F;
},
{
glyphname = parenleft;
lastChange = "2012-08-21 22:33:42 +0000";
layers = (
{
layerId = "ABA48147-5BAC-4B76-8A51-0B949BA99F04";
name = Regular;
paths = (
{
closed = 1;
nodes = (
"463 595 LINE SMOOTH",
"463 628 OFFCURVE",
"450 659 OFFCURVE",
"428 681 CURVE SMOOTH",
"406 703 OFFCURVE",
"374 717 OFFCURVE",
"341 717 CURVE SMOOTH",
"338 717 LINE",
"332 717 LINE SMOOTH",
"297 717 OFFCURVE",
"268 703 OFFCURVE",
"245 681 CURVE SMOOTH",
"222 659 OFFCURVE",
"209 628 OFFCURVE",
"209 595 CURVE SMOOTH",
"209 447 LINE",
"463 447 LINE"
);
},
{
closed = 1;
nodes = (
"376 197 LINE",
"399 210 OFFCURVE",
"414 235 OFFCURVE",
"414 263 CURVE SMOOTH",
"414 306 OFFCURVE",
"381 339 OFFCURVE",
"338 339 CURVE SMOOTH",
"295 339 OFFCURVE",
"261 306 OFFCURVE",
"261 263 CURVE SMOOTH",
"261 235 OFFCURVE",
"276 210 OFFCURVE",
"299 197 CURVE",
"261 33 LINE",
"414 33 LINE"
);
},
{
closed = 1;
nodes = (
"675 447 LINE",
"675 -60 LINE",
"0 -60 LINE",
"0 447 LINE",
"87 447 LINE",
"87 595 LINE SMOOTH",
"87 663 OFFCURVE",
"115 724 OFFCURVE",
"159 768 CURVE SMOOTH",
"203 812 OFFCURVE",
"264 840 OFFCURVE",
"332 840 CURVE SMOOTH",
"336 840 LINE",
"341 840 LINE SMOOTH",
"409 840 OFFCURVE",
"470 812 OFFCURVE",
"514 768 CURVE SMOOTH",
"558 724 OFFCURVE",
"586 663 OFFCURVE",
"586 595 CURVE SMOOTH",
"586 447 LINE"
);
}
);
width = 675;
}
);
unicode = 0028;
},
{
glyphname = parenright;
lastChange = "2012-08-21 22:33:42 +0000";
layers = (
{
layerId = "ABA48147-5BAC-4B76-8A51-0B949BA99F04";
name = Regular;
paths = (
{
closed = 1;
nodes = (
"375 196 LINE",
"398 211 OFFCURVE",
"413 234 OFFCURVE",
"413 263 CURVE SMOOTH",
"413 306 OFFCURVE",
"379 339 OFFCURVE",
"336 339 CURVE SMOOTH",
"293 339 OFFCURVE",
"260 306 OFFCURVE",
"260 263 CURVE SMOOTH",
"260 235 OFFCURVE",
"274 210 OFFCURVE",
"297 197 CURVE",
"260 32 LINE",
"413 32 LINE"
);
},
{
closed = 1;
nodes = (
"718 840 LINE SMOOTH",
"786 840 OFFCURVE",
"847 812 OFFCURVE",
"891 768 CURVE SMOOTH",
"935 724 OFFCURVE",
"963 663 OFFCURVE",
"963 595 CURVE SMOOTH",
"963 447 LINE",
"840 447 LINE",
"840 481 LINE",
"881 520 LINE",
"881 536 LINE",
"840 536 LINE",
"840 595 LINE SMOOTH",
"840 628 OFFCURVE",
"827 659 OFFCURVE",
"805 681 CURVE SMOOTH",
"783 703 OFFCURVE",
"751 717 OFFCURVE",
"718 717 CURVE SMOOTH",
"715 717 LINE",
"709 717 LINE SMOOTH",
"674 717 OFFCURVE",
"645 703 OFFCURVE",
"622 681 CURVE SMOOTH",
"599 659 OFFCURVE",
"586 628 OFFCURVE",
"586 595 CURVE SMOOTH",
"586 447 LINE",
"675 447 LINE",
"675 -60 LINE",
"0 -60 LINE",
"0 447 LINE",
"464 447 LINE",
"464 595 LINE SMOOTH",
"464 663 OFFCURVE",
"491 724 OFFCURVE",
"536 768 CURVE SMOOTH",
"580 812 OFFCURVE",
"641 840 OFFCURVE",
"709 840 CURVE SMOOTH",
"713 840 LINE"
);
}
);
width = 963;
}
);
unicode = 0029;
},
{
glyphname = CR;
lastChange = "2012-08-21 22:33:42 +0000";
layers = (
{
layerId = "ABA48147-5BAC-4B76-8A51-0B949BA99F04";
name = Regular;
paths = (
{
closed = 1;
nodes = (
"737 158 LINE SMOOTH",
"746 149 OFFCURVE",
"750 138 OFFCURVE",
"750 126 CURVE SMOOTH",
"750 113 OFFCURVE",
"746 102 OFFCURVE",
"737 93 CURVE SMOOTH",
"656 13 LINE SMOOTH",
"647 4 OFFCURVE",
"637 -1 OFFCURVE",
"625 -1 CURVE SMOOTH",
"612 -1 OFFCURVE",
"601 4 OFFCURVE",
"592 13 CURVE SMOOTH",
"375 230 LINE",
"158 13 LINE SMOOTH",
"149 4 OFFCURVE",
"138 -1 OFFCURVE",
"126 -1 CURVE SMOOTH",
"113 -1 OFFCURVE",
"103 4 OFFCURVE",
"94 13 CURVE SMOOTH",
"13 93 LINE SMOOTH",
"4 102 OFFCURVE",
"0 113 OFFCURVE",
"0 126 CURVE SMOOTH",
"0 138 OFFCURVE",
"4 149 OFFCURVE",
"13 158 CURVE SMOOTH",
"230 375 LINE",
"13 592 LINE SMOOTH",
"4 601 OFFCURVE",
"0 611 OFFCURVE",
"0 624 CURVE SMOOTH",
"0 636 OFFCURVE",
"4 647 OFFCURVE",
"13 656 CURVE SMOOTH",
"94 736 LINE SMOOTH",
"103 745 OFFCURVE",
"113 750 OFFCURVE",
"126 750 CURVE SMOOTH",
"138 750 OFFCURVE",
"149 745 OFFCURVE",
"158 736 CURVE SMOOTH",
"375 519 LINE",
"592 736 LINE SMOOTH",
"601 745 OFFCURVE",
"612 750 OFFCURVE",
"625 750 CURVE SMOOTH",
"637 750 OFFCURVE",
"647 745 OFFCURVE",
"656 736 CURVE SMOOTH",
"737 656 LINE SMOOTH",
"746 647 OFFCURVE",
"750 636 OFFCURVE",
"750 624 CURVE SMOOTH",
"750 611 OFFCURVE",
"746 601 OFFCURVE",
"737 592 CURVE SMOOTH",
"520 375 LINE"
);
}
);
width = 750;
}
);
unicode = 000D;
},
{
glyphname = greater;
lastChange = "2012-08-21 22:33:42 +0000";
layers = (
{
layerId = "ABA48147-5BAC-4B76-8A51-0B949BA99F04";
name = Regular;
paths = (
{
closed = 1;
nodes = (
"467 398 OFFCURVE",
"472 387 OFFCURVE",
"472 374 CURVE SMOOTH",
"472 361 OFFCURVE",
"467 350 OFFCURVE",
"458 341 CURVE SMOOTH",
"408 292 LINE",
"129 13 LINE SMOOTH",
"120 4 OFFCURVE",
"109 -1 OFFCURVE",
"96 -1 CURVE SMOOTH",
"83 -1 OFFCURVE",
"72 4 OFFCURVE",
"63 13 CURVE SMOOTH",
"14 62 LINE SMOOTH",
"5 71 OFFCURVE",
"0 82 OFFCURVE",
"0 95 CURVE SMOOTH",
"0 108 OFFCURVE",
"5 119 OFFCURVE",
"14 128 CURVE SMOOTH",
"260 374 LINE",
"14 621 LINE SMOOTH",
"5 630 OFFCURVE",
"0 641 OFFCURVE",
"0 654 CURVE SMOOTH",
"0 666 OFFCURVE",
"5 677 OFFCURVE",
"14 686 CURVE SMOOTH",
"63 736 LINE SMOOTH",
"72 745 OFFCURVE",
"83 750 OFFCURVE",
"96 750 CURVE SMOOTH",
"109 750 OFFCURVE",
"120 745 OFFCURVE",
"129 736 CURVE SMOOTH",
"458 407 LINE SMOOTH"
);
}
);
width = 471;
}
);
unicode = 003E;
},
{
glyphname = less;
lastChange = "2012-08-21 22:33:42 +0000";
layers = (
{
layerId = "ABA48147-5BAC-4B76-8A51-0B949BA99F04";
name = Regular;
paths = (
{
closed = 1;
nodes = (
"6 350 OFFCURVE",
"1 361 OFFCURVE",
"1 374 CURVE SMOOTH",
"1 387 OFFCURVE",
"6 398 OFFCURVE",
"15 407 CURVE SMOOTH",
"64 456 LINE",
"343 736 LINE SMOOTH",
"352 745 OFFCURVE",
"363 750 OFFCURVE",
"376 750 CURVE SMOOTH",
"389 750 OFFCURVE",
"400 745 OFFCURVE",
"409 736 CURVE SMOOTH",
"458 686 LINE SMOOTH",
"467 677 OFFCURVE",
"472 666 OFFCURVE",
"472 654 CURVE SMOOTH",
"472 641 OFFCURVE",
"467 630 OFFCURVE",
"458 621 CURVE SMOOTH",
"212 374 LINE",
"458 128 LINE SMOOTH",
"467 119 OFFCURVE",
"472 108 OFFCURVE",
"472 95 CURVE SMOOTH",
"472 82 OFFCURVE",
"467 71 OFFCURVE",
"458 62 CURVE SMOOTH",
"409 13 LINE SMOOTH",
"400 4 OFFCURVE",
"389 -1 OFFCURVE",
"376 -1 CURVE SMOOTH",
"363 -1 OFFCURVE",
"352 4 OFFCURVE",
"343 13 CURVE SMOOTH",
"15 341 LINE SMOOTH"
);
}
);
width = 471;
}
);
unicode = 003C;
},
{
glyphname = minus;
lastChange = "2012-08-21 22:33:42 +0000";
layers = (
{
layerId = "ABA48147-5BAC-4B76-8A51-0B949BA99F04";
name = Regular;
paths = (
{
closed = 1;
nodes = (
"501 402 LINE",
"508 393 OFFCURVE",
"512 384 OFFCURVE",
"512 375 CURVE SMOOTH",
"512 366 OFFCURVE",
"508 357 OFFCURVE",
"501 348 CURVE",
"341 189 LINE SMOOTH",
"318 166 OFFCURVE",
"301 174 OFFCURVE",
"301 205 CURVE SMOOTH",
"301 545 LINE SMOOTH",
"301 576 OFFCURVE",
"318 584 OFFCURVE",
"341 561 CURVE SMOOTH"
);
},
{
closed = 1;
nodes = (
"447 113 OFFCURVE",
"513 142 OFFCURVE",
"561 190 CURVE SMOOTH",
"608 237 OFFCURVE",
"637 303 OFFCURVE",
"637 375 CURVE SMOOTH",
"637 447 OFFCURVE",
"608 513 OFFCURVE",
"561 561 CURVE SMOOTH",
"513 608 OFFCURVE",
"447 637 OFFCURVE",
"375 637 CURVE SMOOTH",
"303 637 OFFCURVE",
"237 608 OFFCURVE",
"190 561 CURVE SMOOTH",
"142 513 OFFCURVE",
"113 447 OFFCURVE",
"113 375 CURVE SMOOTH",
"113 303 OFFCURVE",
"142 237 OFFCURVE",
"190 190 CURVE SMOOTH",
"237 142 OFFCURVE",
"303 113 OFFCURVE",
"375 113 CURVE SMOOTH"
);
},
{
closed = 1;
nodes = (
"479 750 OFFCURVE",
"572 708 OFFCURVE",
"640 640 CURVE SMOOTH",
"708 572 OFFCURVE",
"750 479 OFFCURVE",
"750 375 CURVE SMOOTH",
"750 271 OFFCURVE",
"708 178 OFFCURVE",
"640 110 CURVE SMOOTH",
"572 42 OFFCURVE",
"479 0 OFFCURVE",
"375 0 CURVE SMOOTH",
"271 0 OFFCURVE",
"178 42 OFFCURVE",
"110 110 CURVE SMOOTH",
"42 178 OFFCURVE",
"0 271 OFFCURVE",
"0 375 CURVE SMOOTH",
"0 479 OFFCURVE",
"42 572 OFFCURVE",
"110 640 CURVE SMOOTH",
"178 708 OFFCURVE",
"271 750 OFFCURVE",
"375 750 CURVE SMOOTH"
);
}
);
width = 750;
}
);
unicode = 2212;
},
{
glyphname = multiply;
lastChange = "2012-08-21 22:33:42 +0000";
layers = (
{
layerId = "ABA48147-5BAC-4B76-8A51-0B949BA99F04";
name = Regular;
paths = (
{
closed = 1;
nodes = (
"742 345 OFFCURVE",
"748 336 OFFCURVE",
"747 325 CURVE",
"735 233 OFFCURVE",
"689 152 OFFCURVE",
"622 94 CURVE SMOOTH",
"555 36 OFFCURVE",
"468 0 OFFCURVE",
"375 0 CURVE SMOOTH",
"271 0 OFFCURVE",
"178 42 OFFCURVE",
"110 110 CURVE SMOOTH",
"42 178 OFFCURVE",
"0 271 OFFCURVE",
"0 375 CURVE SMOOTH",
"0 479 OFFCURVE",
"42 572 OFFCURVE",
"110 640 CURVE SMOOTH",
"178 708 OFFCURVE",
"271 750 OFFCURVE",
"375 750 CURVE SMOOTH",
"463 750 OFFCURVE",
"547 718 OFFCURVE",
"615 662 CURVE",
"691 738 LINE SMOOTH",
"712 759 OFFCURVE",
"729 753 OFFCURVE",
"729 722 CURVE SMOOTH",
"729 505 LINE SMOOTH",
"729 485 OFFCURVE",
"713 469 OFFCURVE",
"693 469 CURVE SMOOTH",
"476 468 LINE SMOOTH",
"445 468 OFFCURVE",
"439 486 OFFCURVE",
"460 507 CURVE SMOOTH",
"535 582 LINE",
"488 617 OFFCURVE",
"434 638 OFFCURVE",
"375 638 CURVE SMOOTH",
"303 638 OFFCURVE",
"237 609 OFFCURVE",
"190 561 CURVE SMOOTH",
"142 513 OFFCURVE",
"113 447 OFFCURVE",
"113 375 CURVE SMOOTH",
"113 303 OFFCURVE",
"142 237 OFFCURVE",
"190 190 CURVE SMOOTH",
"237 142 OFFCURVE",
"303 113 OFFCURVE",
"375 113 CURVE SMOOTH",
"440 113 OFFCURVE",
"501 137 OFFCURVE",
"548 178 CURVE SMOOTH",
"595 218 OFFCURVE",
"627 275 OFFCURVE",
"635 340 CURVE SMOOTH",
"636 348 OFFCURVE",
"647 357 OFFCURVE",
"656 356 CURVE SMOOTH",
"731 346 LINE"
);
}
);
width = 747;
}
);
unicode = 00D7;
},
{
glyphname = plus;
lastChange = "2012-08-21 22:33:42 +0000";
layers = (
{
layerId = "ABA48147-5BAC-4B76-8A51-0B949BA99F04";
name = Regular;
paths = (
{
closed = 1;
nodes = (
"591 412 LINE SMOOTH",
"591 420 OFFCURVE",
"584 427 OFFCURVE",
"576 427 CURVE SMOOTH",
"429 427 LINE",
"429 589 LINE SMOOTH",
"429 598 OFFCURVE",
"422 605 OFFCURVE",
"414 605 CURVE SMOOTH",
"336 605 LINE SMOOTH",
"328 605 OFFCURVE",
"321 598 OFFCURVE",
"321 589 CURVE SMOOTH",
"321 427 LINE",
"174 427 LINE SMOOTH",
"166 427 OFFCURVE",
"159 420 OFFCURVE",
"159 412 CURVE SMOOTH",
"159 338 LINE SMOOTH",
"159 329 OFFCURVE",
"166 322 OFFCURVE",
"174 322 CURVE SMOOTH",
"321 322 LINE",
"321 161 LINE SMOOTH",
"321 152 OFFCURVE",
"328 145 OFFCURVE",
"336 145 CURVE SMOOTH",
"414 145 LINE SMOOTH",
"422 145 OFFCURVE",
"429 152 OFFCURVE",
"429 161 CURVE SMOOTH",
"429 322 LINE",
"576 322 LINE SMOOTH",
"584 322 OFFCURVE",
"591 329 OFFCURVE",
"591 338 CURVE SMOOTH"
);
},
{
closed = 1;
nodes = (
"479 750 OFFCURVE",
"572 708 OFFCURVE",
"640 640 CURVE SMOOTH",
"708 572 OFFCURVE",
"750 479 OFFCURVE",
"750 375 CURVE SMOOTH",
"750 271 OFFCURVE",
"708 178 OFFCURVE",
"640 110 CURVE SMOOTH",
"572 42 OFFCURVE",
"479 0 OFFCURVE",
"375 0 CURVE SMOOTH",
"271 0 OFFCURVE",
"178 42 OFFCURVE",
"110 110 CURVE SMOOTH",
"42 178 OFFCURVE",
"0 271 OFFCURVE",
"0 375 CURVE SMOOTH",
"0 479 OFFCURVE",
"42 572 OFFCURVE",
"110 640 CURVE SMOOTH",
"178 708 OFFCURVE",
"271 750 OFFCURVE",
"375 750 CURVE SMOOTH"
);
}
);
width = 750;
}
);
unicode = 002B;
},
{
glyphname = brokenbar;
lastChange = "2012-08-21 22:33:42 +0000";
layers = (
{
layerId = "ABA48147-5BAC-4B76-8A51-0B949BA99F04";
name = Regular;
paths = (
{
closed = 1;
nodes = (
"118 347 LINE",
"117 346 OFFCURVE",
"117 345 OFFCURVE",
"117 344 CURVE SMOOTH",
"117 342 OFFCURVE",
"117 340 OFFCURVE",
"116 339 CURVE",
"305 339 LINE",
"361 226 LINE",
"548 226 LINE",
"605 339 LINE",
"784 339 LINE",
"783 340 OFFCURVE",
"783 342 OFFCURVE",
"783 344 CURVE SMOOTH",
"783 345 OFFCURVE",
"783 347 OFFCURVE",
"782 348 CURVE",
"657 638 LINE",
"243 638 LINE"
);
},
{
closed = 1;
nodes = (
"893 373 OFFCURVE",
"900 341 OFFCURVE",
"900 320 CURVE SMOOTH",
"900 38 LINE SMOOTH",
"900 17 OFFCURVE",
"883 0 OFFCURVE",
"863 0 CURVE SMOOTH",
"38 0 LINE SMOOTH",
"17 0 OFFCURVE",
"0 17 OFFCURVE",
"0 38 CURVE SMOOTH",
"0 320 LINE SMOOTH",
"0 341 OFFCURVE",
"7 373 OFFCURVE",
"15 392 CURVE SMOOTH",
"154 716 LINE SMOOTH",
"162 735 OFFCURVE",
"186 750 OFFCURVE",
"206 750 CURVE SMOOTH",
"694 750 LINE SMOOTH",
"714 750 OFFCURVE",
"738 735 OFFCURVE",
"746 716 CURVE SMOOTH",
"885 392 LINE SMOOTH"
);
}
);
width = 900;
}
);
unicode = 00A6;
},
{
glyphname = DC1;
lastChange = "2012-08-21 22:33:42 +0000";
layers = (
{
layerId = "ABA48147-5BAC-4B76-8A51-0B949BA99F04";
name = Regular;
paths = (
{
closed = 1;
nodes = (
"131 19 LINE SMOOTH",
"131 8 OFFCURVE",
"124 0 OFFCURVE",
"113 0 CURVE SMOOTH",
"19 0 LINE SMOOTH",
"6 0 OFFCURVE",
"0 6 OFFCURVE",
"0 19 CURVE SMOOTH",
"0 146 LINE SMOOTH",
"0 157 OFFCURVE",
"8 165 OFFCURVE",
"19 165 CURVE SMOOTH",
"113 165 LINE SMOOTH",
"124 165 OFFCURVE",
"131 157 OFFCURVE",
"131 146 CURVE SMOOTH"
);
},
{
closed = 1;
nodes = (
"323 19 LINE SMOOTH",
"323 8 OFFCURVE",
"316 0 OFFCURVE",
"305 0 CURVE SMOOTH",
"211 0 LINE SMOOTH",
"200 0 OFFCURVE",
"192 8 OFFCURVE",
"192 19 CURVE SMOOTH",
"192 231 LINE SMOOTH",
"192 242 OFFCURVE",
"200 250 OFFCURVE",
"211 250 CURVE SMOOTH",
"305 250 LINE SMOOTH",
"316 250 OFFCURVE",
"323 242 OFFCURVE",
"323 231 CURVE SMOOTH"
);
},
{
closed = 1;
nodes = (
"516 19 LINE SMOOTH",
"516 8 OFFCURVE",
"508 0 OFFCURVE",
"497 0 CURVE SMOOTH",
"403 0 LINE SMOOTH",
"392 0 OFFCURVE",
"384 8 OFFCURVE",
"384 19 CURVE SMOOTH",
"384 349 LINE SMOOTH",
"384 360 OFFCURVE",
"392 368 OFFCURVE",
"403 368 CURVE SMOOTH",
"497 368 LINE SMOOTH",
"508 368 OFFCURVE",
"516 360 OFFCURVE",
"516 349 CURVE SMOOTH"
);
},
{
closed = 1;
nodes = (
"708 19 LINE SMOOTH",
"708 8 OFFCURVE",
"700 0 OFFCURVE",
"689 0 CURVE SMOOTH",
"595 0 LINE SMOOTH",
"584 0 OFFCURVE",
"577 8 OFFCURVE",
"577 19 CURVE SMOOTH",
"577 505 LINE SMOOTH",
"577 516 OFFCURVE",
"584 524 OFFCURVE",
"595 524 CURVE SMOOTH",
"689 524 LINE SMOOTH",
"700 524 OFFCURVE",
"708 516 OFFCURVE",
"708 505 CURVE SMOOTH"
);
},
{
closed = 1;
nodes = (
"900 19 LINE SMOOTH",
"900 6 OFFCURVE",
"894 0 OFFCURVE",
"881 0 CURVE SMOOTH",
"788 0 LINE SMOOTH",
"775 0 OFFCURVE",
"769 6 OFFCURVE",
"769 19 CURVE SMOOTH",
"769 731 LINE SMOOTH",
"769 744 OFFCURVE",
"775 750 OFFCURVE",
"788 750 CURVE SMOOTH",
"881 750 LINE SMOOTH",
"894 750 OFFCURVE",
"900 744 OFFCURVE",
"900 731 CURVE SMOOTH"
);
}
);
width = 900;
}
);
},
{
glyphname = DC2;
lastChange = "2012-08-21 22:33:42 +0000";
layers = (
{
layerId = "ABA48147-5BAC-4B76-8A51-0B949BA99F04";
name = Regular;
paths = (
{
closed = 1;
nodes = (
"405 262 OFFCURVE",
"433 275 OFFCURVE",
"453 295 CURVE SMOOTH",
"473 315 OFFCURVE",
"486 343 OFFCURVE",
"486 375 CURVE SMOOTH",
"486 406 OFFCURVE",
"473 434 OFFCURVE",
"453 454 CURVE SMOOTH",
"433 474 OFFCURVE",
"405 487 OFFCURVE",
"374 487 CURVE SMOOTH",
"343 487 OFFCURVE",
"315 474 OFFCURVE",
"295 454 CURVE SMOOTH",
"274 434 OFFCURVE",
"261 406 OFFCURVE",
"261 375 CURVE SMOOTH",
"261 343 OFFCURVE",
"274 315 OFFCURVE",
"295 295 CURVE SMOOTH",
"315 275 OFFCURVE",
"343 262 OFFCURVE",
"374 262 CURVE SMOOTH"
);
},
{
closed = 1;
nodes = (
"746 437 OFFCURVE",
"748 434 OFFCURVE",
"748 429 CURVE SMOOTH",
"748 318 LINE SMOOTH",
"748 313 OFFCURVE",
"746 310 OFFCURVE",
"741 309 CURVE",
"717 302 OFFCURVE",
"690 300 OFFCURVE",
"663 297 CURVE",
"660 296 OFFCURVE",
"657 296 OFFCURVE",
"654 296 CURVE",
"651 295 OFFCURVE",
"647 295 OFFCURVE",
"644 294 CURVE",
"637 275 OFFCURVE",
"630 258 OFFCURVE",
"621 239 CURVE",
"637 216 OFFCURVE",
"657 189 OFFCURVE",
"678 165 CURVE",
"681 162 OFFCURVE",
"681 158 OFFCURVE",
"678 153 CURVE",
"653 122 OFFCURVE",
"625 94 OFFCURVE",
"594 69 CURVE",
"591 66 OFFCURVE",
"587 66 OFFCURVE",
"582 69 CURVE",
"567 84 OFFCURVE",
"552 95 OFFCURVE",
"536 106 CURVE",
"531 109 OFFCURVE",
"527 113 OFFCURVE",
"522 117 CURVE",
"517 120 OFFCURVE",
"513 124 OFFCURVE",
"508 127 CURVE",
"491 118 OFFCURVE",
"472 110 OFFCURVE",
"453 104 CURVE",
"450 73 OFFCURVE",
"446 39 OFFCURVE",
"438 7 CURVE",
"437 2 OFFCURVE",
"434 -1 OFFCURVE",
"429 -1 CURVE SMOOTH",
"318 -1 LINE SMOOTH",
"313 -1 OFFCURVE",
"310 2 OFFCURVE",
"309 7 CURVE",
"307 20 OFFCURVE",
"305 32 OFFCURVE",
"304 45 CURVE",
"302 58 OFFCURVE",
"300 71 OFFCURVE",
"298 84 CURVE SMOOTH",
"295 104 LINE",
"276 111 OFFCURVE",
"258 116 OFFCURVE",
"241 127 CURVE",
"237 124 OFFCURVE",
"233 121 OFFCURVE",
"229 118 CURVE",
"224 115 OFFCURVE",
"220 111 OFFCURVE",
"216 108 CURVE SMOOTH",
"199 96 OFFCURVE",
"182 83 OFFCURVE",
"165 69 CURVE",
"161 65 OFFCURVE",
"157 65 OFFCURVE",
"153 70 CURVE",
"150 73 OFFCURVE",
"146 77 OFFCURVE",
"142 81 CURVE",
"138 84 OFFCURVE",
"134 88 OFFCURVE",
"131 91 CURVE SMOOTH",
"111 110 OFFCURVE",
"91 130 OFFCURVE",
"72 153 CURVE",
"69 157 OFFCURVE",
"69 161 OFFCURVE",
"72 165 CURVE",
"82 177 OFFCURVE",
"92 189 OFFCURVE",
"101 202 CURVE SMOOTH",
"110 215 OFFCURVE",
"119 227 OFFCURVE",
"128 238 CURVE",
"118 257 OFFCURVE",
"110 277 OFFCURVE",
"104 296 CURVE",
"96 298 OFFCURVE",
"88 300 OFFCURVE",
"80 301 CURVE SMOOTH",
"71 302 OFFCURVE",
"63 303 OFFCURVE",
"55 304 CURVE SMOOTH",
"47 305 OFFCURVE",
"39 307 OFFCURVE",
"31 308 CURVE SMOOTH",
"22 309 OFFCURVE",
"14 310 OFFCURVE",
"7 311 CURVE",
"2 312 OFFCURVE",
"0 315 OFFCURVE",
"0 320 CURVE SMOOTH",
"0 431 LINE SMOOTH",
"0 436 OFFCURVE",
"2 439 OFFCURVE",
"7 440 CURVE",
"32 447 OFFCURVE",
"60 450 OFFCURVE",
"87 453 CURVE",
"92 453 OFFCURVE",
"97 454 OFFCURVE",
"104 455 CURVE",
"111 474 OFFCURVE",
"118 491 OFFCURVE",
"127 510 CURVE",
"111 533 OFFCURVE",
"91 560 OFFCURVE",
"70 584 CURVE",
"67 587 OFFCURVE",
"67 591 OFFCURVE",
"70 596 CURVE",
"95 627 OFFCURVE",
"123 655 OFFCURVE",
"154 680 CURVE",
"157 683 OFFCURVE",
"161 683 OFFCURVE",
"166 680 CURVE",
"181 665 OFFCURVE",
"196 654 OFFCURVE",
"212 643 CURVE",
"217 640 OFFCURVE",
"221 636 OFFCURVE",
"226 633 CURVE",
"231 629 OFFCURVE",
"235 625 OFFCURVE",
"240 622 CURVE",
"257 631 OFFCURVE",
"276 639 OFFCURVE",
"295 645 CURVE",
"299 682 OFFCURVE",
"302 713 OFFCURVE",
"309 742 CURVE",
"310 747 OFFCURVE",
"313 750 OFFCURVE",
"318 750 CURVE SMOOTH",
"429 750 LINE SMOOTH",
"435 750 OFFCURVE",
"438 747 OFFCURVE",
"438 742 CURVE",
"441 729 OFFCURVE",
"443 717 OFFCURVE",
"445 704 CURVE",
"446 691 OFFCURVE",
"448 678 OFFCURVE",
"450 665 CURVE SMOOTH",
"453 645 LINE",
"472 638 OFFCURVE",
"490 633 OFFCURVE",
"507 622 CURVE",
"516 629 OFFCURVE",
"524 634 OFFCURVE",
"532 641 CURVE",
"541 648 OFFCURVE",
"549 654 OFFCURVE",
"558 660 CURVE SMOOTH",
"567 666 OFFCURVE",
"575 673 OFFCURVE",
"583 680 CURVE",
"587 684 OFFCURVE",
"591 684 OFFCURVE",
"595 679 CURVE",
"598 676 OFFCURVE",
"602 672 OFFCURVE",
"606 669 CURVE",
"609 665 OFFCURVE",
"613 661 OFFCURVE",
"617 658 CURVE",
"637 639 OFFCURVE",
"657 619 OFFCURVE",
"676 596 CURVE",
"679 592 OFFCURVE",
"679 588 OFFCURVE",
"676 584 CURVE",
"659 564 OFFCURVE",
"643 542 OFFCURVE",
"620 511 CURVE",
"630 492 OFFCURVE",
"638 472 OFFCURVE",
"644 453 CURVE",
"652 451 OFFCURVE",
"660 450 OFFCURVE",
"669 449 CURVE SMOOTH",
"677 448 OFFCURVE",
"685 446 OFFCURVE",
"694 445 CURVE SMOOTH",
"701 444 OFFCURVE",
"709 443 OFFCURVE",
"718 442 CURVE SMOOTH",
"726 441 OFFCURVE",
"734 439 OFFCURVE",
"741 438 CURVE"
);
}
);
width = 748;
}
);
},
{
glyphname = DC3;
lastChange = "2012-08-21 22:33:42 +0000";
layers = (
{
layerId = "ABA48147-5BAC-4B76-8A51-0B949BA99F04";
name = Regular;
paths = (
{
closed = 1;
nodes = (
"437 98 LINE SMOOTH",
"437 87 OFFCURVE",
"438 82 OFFCURVE",
"440 82 CURVE SMOOTH",
"450 82 LINE SMOOTH",
"453 82 OFFCURVE",
"469 83 OFFCURVE",
"474 84 CURVE",
"481 84 OFFCURVE",
"485 92 OFFCURVE",
"485 101 CURVE",
"486 114 OFFCURVE",
"487 125 OFFCURVE",
"487 132 CURVE SMOOTH",
"487 143 LINE",
"488 150 OFFCURVE",
"488 156 OFFCURVE",
"488 163 CURVE",
"487 169 OFFCURVE",
"487 175 OFFCURVE",
"488 181 CURVE",
"489 203 OFFCURVE",
"491 225 OFFCURVE",
"492 248 CURVE SMOOTH",
"493 270 OFFCURVE",
"494 293 OFFCURVE",
"495 316 CURVE",
"495 321 OFFCURVE",
"495 327 OFFCURVE",
"496 334 CURVE",
"496 346 OFFCURVE",
"497 362 OFFCURVE",
"498 382 CURVE",
"498 392 OFFCURVE",
"493 397 OFFCURVE",
"482 397 CURVE",
"454 396 LINE",
"445 395 OFFCURVE",
"437 388 OFFCURVE",
"437 379 CURVE SMOOTH"
);
},
{
closed = 1;
nodes = (
"356 378 LINE SMOOTH",
"356 389 OFFCURVE",
"354 394 OFFCURVE",
"349 394 CURVE SMOOTH",
"343 394 LINE",
"310 394 LINE",
"303 394 LINE SMOOTH",
"299 394 OFFCURVE",
"297 389 OFFCURVE",
"297 378 CURVE",
"296 378 LINE",
"296 98 LINE SMOOTH",
"296 89 OFFCURVE",
"304 82 OFFCURVE",
"313 82 CURVE SMOOTH",
"339 82 LINE",
"340 82 LINE SMOOTH",
"351 82 OFFCURVE",
"356 87 OFFCURVE",
"356 98 CURVE SMOOTH"
);
},
{
closed = 1;
nodes = (
"215 379 LINE SMOOTH",
"215 389 OFFCURVE",
"210 395 OFFCURVE",
"199 396 CURVE",
"170 397 LINE SMOOTH",
"159 397 OFFCURVE",
"154 392 OFFCURVE",
"154 382 CURVE",
"155 372 OFFCURVE",
"155 363 OFFCURVE",
"155 355 CURVE SMOOTH",
"155 339 OFFCURVE",
"156 325 OFFCURVE",
"157 316 CURVE",
"158 293 OFFCURVE",
"160 270 OFFCURVE",
"161 248 CURVE SMOOTH",
"162 225 OFFCURVE",
"163 203 OFFCURVE",
"164 181 CURVE",
"165 175 OFFCURVE",
"165 169 OFFCURVE",
"165 163 CURVE SMOOTH",
"165 156 OFFCURVE",
"165 150 OFFCURVE",
"165 143 CURVE",
"166 140 OFFCURVE",
"166 136 OFFCURVE",
"166 132 CURVE SMOOTH",
"166 129 OFFCURVE",
"166 124 OFFCURVE",
"166 119 CURVE SMOOTH",
"166 108 OFFCURVE",
"166 96 OFFCURVE",
"175 89 CURVE SMOOTH",
"180 85 OFFCURVE",
"183 83 OFFCURVE",
"186 83 CURVE SMOOTH",
"189 83 OFFCURVE",
"192 83 OFFCURVE",
"195 83 CURVE",
"198 82 OFFCURVE",
"201 82 OFFCURVE",
"203 82 CURVE SMOOTH",
"212 82 LINE SMOOTH",
"214 82 OFFCURVE",
"215 87 OFFCURVE",
"215 98 CURVE SMOOTH"
);
},
{
closed = 1;
nodes = (
"351 475 OFFCURVE",
"365 475 OFFCURVE",
"380 476 CURVE",
"394 476 OFFCURVE",
"408 476 OFFCURVE",
"423 476 CURVE",
"445 477 OFFCURVE",
"471 479 OFFCURVE",
"500 480 CURVE SMOOTH",
"529 481 OFFCURVE",
"558 484 OFFCURVE",
"585 487 CURVE",
"582 436 OFFCURVE",
"579 384 OFFCURVE",
"577 332 CURVE SMOOTH",
"575 279 OFFCURVE",
"572 227 OFFCURVE",
"569 176 CURVE SMOOTH",
"568 163 OFFCURVE",
"568 149 OFFCURVE",
"568 134 CURVE SMOOTH",
"568 102 OFFCURVE",
"567 71 OFFCURVE",
"560 47 CURVE SMOOTH",
"553 22 OFFCURVE",
"543 8 OFFCURVE",
"504 4 CURVE",
"484 1 OFFCURVE",
"464 0 OFFCURVE",
"445 0 CURVE SMOOTH",
"207 0 LINE SMOOTH",
"170 0 OFFCURVE",
"123 3 OFFCURVE",
"107 19 CURVE SMOOTH",
"94 32 OFFCURVE",
"89 59 OFFCURVE",
"86 88 CURVE",
"85 103 OFFCURVE",
"84 118 OFFCURVE",
"84 134 CURVE SMOOTH",
"84 149 OFFCURVE",
"84 163 OFFCURVE",
"83 176 CURVE SMOOTH",
"80 227 OFFCURVE",
"77 279 OFFCURVE",
"75 332 CURVE SMOOTH",
"73 384 OFFCURVE",
"70 436 OFFCURVE",
"67 487 CURVE",
"94 484 OFFCURVE",
"123 481 OFFCURVE",
"152 480 CURVE SMOOTH",
"181 479 OFFCURVE",
"207 477 OFFCURVE",
"229 476 CURVE",
"244 476 OFFCURVE",
"259 476 OFFCURVE",
"274 476 CURVE",
"288 475 OFFCURVE",
"302 475 OFFCURVE",
"316 475 CURVE SMOOTH",
"326 475 LINE",
"336 475 LINE SMOOTH"
);
},
{
closed = 1;
nodes = (
"400 660 OFFCURVE",
"402 670 OFFCURVE",
"399 677 CURVE",
"384 681 OFFCURVE",
"353 685 OFFCURVE",
"326 685 CURVE SMOOTH",
"299 685 OFFCURVE",
"268 681 OFFCURVE",
"253 677 CURVE",
"252 670 OFFCURVE",
"253 660 OFFCURVE",
"254 647 CURVE",
"316 647 LINE",
"326 647 LINE",
"336 647 LINE",
"399 647 LINE"
);
},
{
closed = 1;
nodes = (
"652 586 LINE",
"652 552 LINE",
"631 540 OFFCURVE",
"575 534 OFFCURVE",
"524 530 CURVE SMOOTH",
"498 528 OFFCURVE",
"475 527 OFFCURVE",
"455 526 CURVE SMOOTH",
"434 525 OFFCURVE",
"423 525 OFFCURVE",
"422 525 CURVE SMOOTH",
"407 525 OFFCURVE",
"393 525 OFFCURVE",
"379 525 CURVE",
"364 524 OFFCURVE",
"350 524 OFFCURVE",
"336 524 CURVE SMOOTH",
"326 524 LINE",
"316 524 LINE SMOOTH",
"302 524 OFFCURVE",
"288 524 OFFCURVE",
"274 525 CURVE",
"260 525 OFFCURVE",
"246 525 OFFCURVE",
"231 525 CURVE SMOOTH",
"230 525 LINE SMOOTH",
"229 525 OFFCURVE",
"224 525 OFFCURVE",
"215 526 CURVE",
"195 526 OFFCURVE",
"165 527 OFFCURVE",
"130 530 CURVE SMOOTH",
"94 533 OFFCURVE",
"60 537 OFFCURVE",
"32 542 CURVE SMOOTH",
"18 545 OFFCURVE",
"8 548 OFFCURVE",
"1 552 CURVE",
"1 559 OFFCURVE",
"1 565 OFFCURVE",
"1 570 CURVE",
"0 575 OFFCURVE",
"0 581 OFFCURVE",
"0 586 CURVE SMOOTH",
"0 591 OFFCURVE",
"0 597 OFFCURVE",
"1 602 CURVE",
"1 607 OFFCURVE",
"1 613 OFFCURVE",
"1 619 CURVE",
"16 627 OFFCURVE",
"48 633 OFFCURVE",
"84 637 CURVE SMOOTH",
"120 641 OFFCURVE",
"160 644 OFFCURVE",
"188 645 CURVE",
"185 665 OFFCURVE",
"186 685 OFFCURVE",
"194 708 CURVE SMOOTH",
"195 711 OFFCURVE",
"197 714 OFFCURVE",
"200 719 CURVE SMOOTH",
"203 724 OFFCURVE",
"209 728 OFFCURVE",
"218 733 CURVE",
"236 742 OFFCURVE",
"267 750 OFFCURVE",
"326 750 CURVE SMOOTH",
"385 750 OFFCURVE",
"417 742 OFFCURVE",
"435 733 CURVE",
"444 728 OFFCURVE",
"450 724 OFFCURVE",
"453 719 CURVE SMOOTH",
"456 714 OFFCURVE",
"457 711 OFFCURVE",
"458 708 CURVE SMOOTH",
"466 685 OFFCURVE",
"467 665 OFFCURVE",
"464 645 CURVE",
"493 644 OFFCURVE",
"532 641 OFFCURVE",
"568 637 CURVE SMOOTH",
"604 633 OFFCURVE",
"637 627 OFFCURVE",
"652 619 CURVE"
);
}
);
width = 652;
}
);
},
{
glyphname = DC4;
lastChange = "2012-08-21 22:33:42 +0000";
layers = (
{
layerId = "ABA48147-5BAC-4B76-8A51-0B949BA99F04";
name = Regular;
paths = (
{
closed = 1;
nodes = (
"543 225 LINE",
"356 225 LINE",
"356 0 LINE",
"543 0 LINE"
);
},
{
closed = 1;
nodes = (
"898 393 OFFCURVE",
"902 379 OFFCURVE",
"897 362 CURVE",
"890 347 OFFCURVE",
"877 338 OFFCURVE",
"861 338 CURVE SMOOTH",
"786 338 LINE",
"786 37 LINE SMOOTH",
"786 16 OFFCURVE",
"770 0 OFFCURVE",
"749 0 CURVE SMOOTH",
"150 0 LINE SMOOTH",
"129 0 OFFCURVE",
"112 16 OFFCURVE",
"112 37 CURVE SMOOTH",
"112 338 LINE",
"37 338 LINE SMOOTH",
"22 338 OFFCURVE",
"9 347 OFFCURVE",
"2 362 CURVE",
"-3 377 OFFCURVE",
"1 393 OFFCURVE",
"14 404 CURVE SMOOTH",
"426 741 LINE",
"433 746 OFFCURVE",
"440 749 OFFCURVE",
"449 749 CURVE SMOOTH",
"458 749 OFFCURVE",
"466 746 OFFCURVE",
"473 741 CURVE",
"885 404 LINE SMOOTH"
);
}
);
width = 899;
}
);
},
{
glyphname = DLE;
lastChange = "2012-08-21 22:33:42 +0000";
layers = (
{
layerId = "ABA48147-5BAC-4B76-8A51-0B949BA99F04";
name = Regular;
paths = (
{
closed = 1;
nodes = (
"654 583 OFFCURVE",
"713 475 OFFCURVE",
"713 356 CURVE SMOOTH",
"713 257 OFFCURVE",
"673 169 OFFCURVE",
"609 105 CURVE SMOOTH",
"544 40 OFFCURVE",
"455 0 OFFCURVE",
"356 0 CURVE SMOOTH",
"257 0 OFFCURVE",
"169 40 OFFCURVE",
"105 105 CURVE SMOOTH",
"40 169 OFFCURVE",
"0 257 OFFCURVE",
"0 356 CURVE SMOOTH",
"0 475 OFFCURVE",
"57 583 OFFCURVE",
"156 651 CURVE",
"164 655 OFFCURVE",
"175 655 OFFCURVE",
"182 646 CURVE",
"224 584 LINE SMOOTH",
"231 573 OFFCURVE",
"229 565 OFFCURVE",
"219 558 CURVE SMOOTH",
"151 511 OFFCURVE",
"113 437 OFFCURVE",
"113 356 CURVE SMOOTH",
"113 289 OFFCURVE",
"140 228 OFFCURVE",
"184 184 CURVE SMOOTH",
"228 140 OFFCURVE",
"289 113 OFFCURVE",
"356 113 CURVE SMOOTH",
"424 113 OFFCURVE",
"485 140 OFFCURVE",
"529 184 CURVE SMOOTH",
"573 228 OFFCURVE",
"600 289 OFFCURVE",
"600 356 CURVE SMOOTH",
"600 437 OFFCURVE",
"561 511 OFFCURVE",
"493 558 CURVE",
"485 562 OFFCURVE",
"483 573 OFFCURVE",
"488 584 CURVE",
"531 646 LINE",
"538 654 OFFCURVE",
"548 656 OFFCURVE",
"557 651 CURVE"
);
},
{
closed = 1;
nodes = (
"306 375 OFFCURVE",
"300 381 OFFCURVE",
"300 394 CURVE SMOOTH",
"300 731 LINE SMOOTH",
"300 744 OFFCURVE",
"306 750 OFFCURVE",
"319 750 CURVE SMOOTH",
"394 750 LINE SMOOTH",
"405 750 OFFCURVE",
"413 742 OFFCURVE",
"413 731 CURVE SMOOTH",
"413 394 LINE SMOOTH",
"413 383 OFFCURVE",
"405 375 OFFCURVE",
"394 375 CURVE SMOOTH",
"319 375 LINE SMOOTH"
);
}
);
width = 713;
}
);
},
{
glyphname = HT;
lastChange = "2012-08-21 22:33:42 +0000";
layers = (
{
layerId = "ABA48147-5BAC-4B76-8A51-0B949BA99F04";
name = Regular;
paths = (
{
closed = 1;
nodes = (
"883 338 OFFCURVE",
"900 321 OFFCURVE",
"900 300 CURVE SMOOTH",
"900 38 LINE SMOOTH",
"900 17 OFFCURVE",
"883 0 OFFCURVE",
"863 0 CURVE SMOOTH",
"525 0 LINE SMOOTH",
"504 0 OFFCURVE",
"488 17 OFFCURVE",
"488 38 CURVE SMOOTH",
"488 300 LINE SMOOTH",
"488 321 OFFCURVE",
"504 338 OFFCURVE",
"525 338 CURVE SMOOTH",
"863 338 LINE SMOOTH"
);
},
{
closed = 1;
nodes = (
"883 750 OFFCURVE",
"900 733 OFFCURVE",
"900 713 CURVE SMOOTH",
"900 450 LINE SMOOTH",
"900 429 OFFCURVE",
"883 413 OFFCURVE",
"863 413 CURVE SMOOTH",
"525 413 LINE SMOOTH",
"504 413 OFFCURVE",
"488 429 OFFCURVE",
"488 450 CURVE SMOOTH",
"488 713 LINE SMOOTH",
"488 733 OFFCURVE",
"504 750 OFFCURVE",
"525 750 CURVE SMOOTH",
"863 750 LINE SMOOTH"
);
},
{
closed = 1;
nodes = (
"396 338 OFFCURVE",
"413 321 OFFCURVE",
"413 300 CURVE SMOOTH",
"413 38 LINE SMOOTH",
"413 17 OFFCURVE",
"396 0 OFFCURVE",
"375 0 CURVE SMOOTH",
"38 0 LINE SMOOTH",
"17 0 OFFCURVE",
"0 17 OFFCURVE",
"0 38 CURVE SMOOTH",
"0 300 LINE SMOOTH",
"0 321 OFFCURVE",
"17 338 OFFCURVE",
"38 338 CURVE SMOOTH",
"375 338 LINE SMOOTH"
);
},
{
closed = 1;
nodes = (
"396 750 OFFCURVE",
"413 733 OFFCURVE",
"413 713 CURVE SMOOTH",
"413 450 LINE SMOOTH",
"413 429 OFFCURVE",
"396 413 OFFCURVE",
"375 413 CURVE SMOOTH",
"38 413 LINE SMOOTH",
"17 413 OFFCURVE",
"0 429 OFFCURVE",
"0 450 CURVE SMOOTH",
"0 713 LINE SMOOTH",
"0 733 OFFCURVE",
"17 750 OFFCURVE",
"38 750 CURVE SMOOTH",
"375 750 LINE SMOOTH"
);
}
);
width = 900;
}
);
},
{
glyphname = LF;
lastChange = "2012-08-21 22:33:42 +0000";
layers = (
{
layerId = "ABA48147-5BAC-4B76-8A51-0B949BA99F04";
name = Regular;
paths = (
{
closed = 1;
nodes = (
"650 170 LINE SMOOTH",
"650 191 OFFCURVE",
"667 207 OFFCURVE",
"688 207 CURVE SMOOTH",
"863 207 LINE SMOOTH",
"883 207 OFFCURVE",
"900 191 OFFCURVE",
"900 170 CURVE SMOOTH",
"900 38 LINE SMOOTH",
"900 17 OFFCURVE",
"883 0 OFFCURVE",
"863 0 CURVE SMOOTH",
"688 0 LINE SMOOTH",
"667 0 OFFCURVE",
"650 17 OFFCURVE",
"650 38 CURVE SMOOTH"
);
},
{
closed = 1;
nodes = (
"538 207 LINE SMOOTH",
"558 207 OFFCURVE",
"575 191 OFFCURVE",
"575 170 CURVE SMOOTH",
"575 38 LINE SMOOTH",
"575 17 OFFCURVE",
"558 0 OFFCURVE",
"538 0 CURVE SMOOTH",
"363 0 LINE SMOOTH",
"342 0 OFFCURVE",
"325 17 OFFCURVE",
"325 38 CURVE SMOOTH",
"325 170 LINE SMOOTH",
"325 191 OFFCURVE",
"342 207 OFFCURVE",
"363 207 CURVE SMOOTH"
);
},
{
closed = 1;
nodes = (
"863 750 LINE SMOOTH",
"883 750 OFFCURVE",
"900 733 OFFCURVE",
"900 713 CURVE SMOOTH",
"900 580 LINE SMOOTH",
"900 559 OFFCURVE",
"883 542 OFFCURVE",
"863 542 CURVE SMOOTH",
"688 542 LINE SMOOTH",
"667 542 OFFCURVE",
"650 559 OFFCURVE",
"650 580 CURVE SMOOTH",
"650 713 LINE SMOOTH",
"650 733 OFFCURVE",
"667 750 OFFCURVE",
"688 750 CURVE SMOOTH"
);
},
{
closed = 1;
nodes = (
"650 430 LINE SMOOTH",
"650 451 OFFCURVE",
"667 467 OFFCURVE",
"688 467 CURVE SMOOTH",
"863 467 LINE SMOOTH",
"883 467 OFFCURVE",
"900 451 OFFCURVE",
"900 430 CURVE SMOOTH",
"900 320 LINE SMOOTH",
"900 299 OFFCURVE",
"883 282 OFFCURVE",
"863 282 CURVE SMOOTH",
"688 282 LINE SMOOTH",
"667 282 OFFCURVE",
"650 299 OFFCURVE",
"650 320 CURVE SMOOTH"
);
},
{
closed = 1;
nodes = (
"575 320 LINE SMOOTH",
"575 299 OFFCURVE",
"558 282 OFFCURVE",
"538 282 CURVE SMOOTH",
"363 282 LINE SMOOTH",
"342 282 OFFCURVE",
"325 299 OFFCURVE",
"325 320 CURVE SMOOTH",
"325 430 LINE SMOOTH",
"325 451 OFFCURVE",
"342 467 OFFCURVE",
"363 467 CURVE SMOOTH",
"538 467 LINE SMOOTH",
"558 467 OFFCURVE",
"575 451 OFFCURVE",
"575 430 CURVE SMOOTH"
);
},
{
closed = 1;
nodes = (
"363 542 LINE SMOOTH",
"342 542 OFFCURVE",
"325 559 OFFCURVE",
"325 580 CURVE SMOOTH",
"325 713 LINE SMOOTH",
"325 733 OFFCURVE",
"342 750 OFFCURVE",
"363 750 CURVE SMOOTH",
"538 750 LINE SMOOTH",
"558 750 OFFCURVE",
"575 733 OFFCURVE",
"575 713 CURVE SMOOTH",
"575 580 LINE SMOOTH",
"575 559 OFFCURVE",
"558 542 OFFCURVE",
"538 542 CURVE SMOOTH"
);
},
{
closed = 1;
nodes = (
"213 207 LINE SMOOTH",
"233 207 OFFCURVE",
"250 191 OFFCURVE",
"250 170 CURVE SMOOTH",
"250 38 LINE SMOOTH",
"250 17 OFFCURVE",
"233 0 OFFCURVE",
"213 0 CURVE SMOOTH",
"38 0 LINE SMOOTH",
"17 0 OFFCURVE",
"0 17 OFFCURVE",
"0 38 CURVE SMOOTH",
"0 170 LINE SMOOTH",
"0 191 OFFCURVE",
"17 207 OFFCURVE",
"38 207 CURVE SMOOTH"
);
},
{
closed = 1;
nodes = (
"250 320 LINE SMOOTH",
"250 299 OFFCURVE",
"233 282 OFFCURVE",
"213 282 CURVE SMOOTH",
"38 282 LINE SMOOTH",
"17 282 OFFCURVE",
"0 299 OFFCURVE",
"0 320 CURVE SMOOTH",
"0 430 LINE SMOOTH",
"0 451 OFFCURVE",
"17 467 OFFCURVE",
"38 467 CURVE SMOOTH",
"213 467 LINE SMOOTH",
"233 467 OFFCURVE",
"250 451 OFFCURVE",
"250 430 CURVE SMOOTH"
);
},
{
closed = 1;
nodes = (
"250 580 LINE SMOOTH",
"250 559 OFFCURVE",
"233 542 OFFCURVE",
"213 542 CURVE SMOOTH",
"38 542 LINE SMOOTH",
"17 542 OFFCURVE",
"0 559 OFFCURVE",
"0 580 CURVE SMOOTH",
"0 713 LINE SMOOTH",
"0 733 OFFCURVE",
"17 750 OFFCURVE",
"38 750 CURVE SMOOTH",
"213 750 LINE SMOOTH",
"233 750 OFFCURVE",
"250 733 OFFCURVE",
"250 713 CURVE SMOOTH"
);
}
);
width = 900;
}
);
},
{
glyphname = RS;
lastChange = "2012-08-21 22:33:42 +0000";
layers = (
{
layerId = "ABA48147-5BAC-4B76-8A51-0B949BA99F04";
name = Regular;
paths = (
{
closed = 1;
nodes = (
"893 630 OFFCURVE",
"908 617 OFFCURVE",
"897 589 CURVE",
"827 384 LINE",
"822 365 OFFCURVE",
"798 356 OFFCURVE",
"781 361 CURVE",
"575 431 LINE SMOOTH",
"547 440 OFFCURVE",
"546 459 OFFCURVE",
"573 472 CURVE SMOOTH",
"668 519 LINE",
"636 567 OFFCURVE",
"590 604 OFFCURVE",
"534 623 CURVE SMOOTH",
"466 647 OFFCURVE",
"394 639 OFFCURVE",
"334 610 CURVE SMOOTH",
"274 581 OFFCURVE",
"225 527 OFFCURVE",
"201 459 CURVE",
"198 448 OFFCURVE",
"187 444 OFFCURVE",
"178 447 CURVE SMOOTH",
"107 472 LINE",
"96 475 OFFCURVE",
"92 486 OFFCURVE",
"95 495 CURVE SMOOTH",
"128 592 OFFCURVE",
"199 668 OFFCURVE",
"285 711 CURVE SMOOTH",
"371 754 OFFCURVE",
"472 763 OFFCURVE",
"571 730 CURVE SMOOTH",
"655 701 OFFCURVE",
"722 645 OFFCURVE",
"769 569 CURVE",
"866 617 LINE SMOOTH"
);
},
{
closed = 1;
nodes = (
"804 273 OFFCURVE",
"808 265 OFFCURVE",
"805 254 CURVE",
"772 155 OFFCURVE",
"702 81 OFFCURVE",
"616 39 CURVE SMOOTH",
"530 -3 OFFCURVE",
"426 -13 OFFCURVE",
"329 20 CURVE SMOOTH",
"245 48 OFFCURVE",
"176 104 OFFCURVE",
"131 180 CURVE",
"34 133 LINE",
"7 118 OFFCURVE",
"-8 132 OFFCURVE",
"3 160 CURVE",
"73 366 LINE",
"78 383 OFFCURVE",
"102 393 OFFCURVE",
"119 388 CURVE",
"325 318 LINE SMOOTH",
"353 309 OFFCURVE",
"354 290 OFFCURVE",
"327 277 CURVE SMOOTH",
"232 230 LINE",
"264 182 OFFCURVE",
"309 145 OFFCURVE",
"365 126 CURVE SMOOTH",
"433 102 OFFCURVE",
"505 110 OFFCURVE",
"566 139 CURVE SMOOTH",
"626 168 OFFCURVE",
"675 222 OFFCURVE",
"699 290 CURVE",
"702 301 OFFCURVE",
"711 305 OFFCURVE",
"722 302 CURVE",
"793 278 LINE"
);
}
